<?xml version="1.0" encoding="UTF-8"?>
<svg version="1.1" xmlns="http://www.w3.org/2000/svg" width="1408" height="736">
<path d="M0 0 C464.64 0 929.28 0 1408 0 C1408 242.88 1408 485.76 1408 736 C943.36 736 478.72 736 0 736 C0 493.12 0 250.24 0 0 Z " fill="#FCFCFC" transform="translate(0,0)"/>
<path d="M0 0 C1.60875 -0.00386719 1.60875 -0.00386719 3.25 -0.0078125 C6 0.125 6 0.125 8 1.125 C8 1.785 8 2.445 8 3.125 C8.86625 3.186875 8.86625 3.186875 9.75 3.25 C12 4.125 12 4.125 16 10.125 C16 15.075 16 20.025 16 25.125 C71.44 25.125 126.88 25.125 184 25.125 C184 20.175 184 15.225 184 10.125 C185.485 7.65 185.485 7.65 187 5.125 C187.66 5.125 188.32 5.125 189 5.125 C189.33 4.135 189.66 3.145 190 2.125 C194.70085725 -1.00890483 199.50162637 -0.55707673 205 0.125 C210.32770696 2.17151601 213.49134735 4.98567092 216 10.125 C216.20952713 12.82091571 216.28744431 15.25950509 216.1875 17.9375 C216.17396484 18.63037109 216.16042969 19.32324219 216.14648438 20.03710938 C216.11138845 21.73341265 216.05758943 23.42931136 216 25.125 C216.9472998 25.10928955 217.89459961 25.0935791 218.87060547 25.07739258 C222.43039573 25.02585499 225.98978183 24.98845325 229.54980469 24.96020508 C231.08209543 24.94524256 232.61434429 24.92486503 234.14648438 24.89868164 C247.50490943 24.67633188 257.96775387 25.47639617 268 35.125 C274.61074815 42.58509481 276.29876056 48.45090223 276.27415466 58.28834534 C276.27939134 59.32137297 276.28462802 60.3544006 276.29002339 61.41873211 C276.3050427 64.88539492 276.30572898 68.35191038 276.30639648 71.81860352 C276.31401682 74.30230458 276.3224441 76.78600329 276.33161926 79.2696991 C276.35358743 86.0220703 276.36238858 92.77438214 276.36744571 99.52678037 C276.37070555 103.74664288 276.37722989 107.96649631 276.3844471 112.18635368 C276.40401334 123.87969067 276.4204166 135.57301922 276.42332363 147.26637363 C276.4235112 148.01445254 276.42369877 148.76253145 276.42389202 149.53327942 C276.42425827 151.04970769 276.42462197 152.56613597 276.42498314 154.08256424 C276.42516595 154.83528142 276.42534876 155.5879986 276.42553711 156.36352539 C276.42580793 157.49398677 276.42580793 157.49398677 276.42608423 158.64728575 C276.42962275 170.84774242 276.45662478 183.04802224 276.494035 195.24841762 C276.53217379 207.7872609 276.55148153 220.32601658 276.55178314 232.86491913 C276.55236657 239.89980158 276.5607839 246.93447323 276.58978081 253.96930122 C276.61694864 260.59069798 276.61815218 267.2117513 276.60212517 273.83320808 C276.60031251 276.25830495 276.60698466 278.68342589 276.62294388 281.10847092 C276.78820239 307.85955638 276.78820239 307.85955638 267.25 318.625 C263.26908374 322.26534358 259.02137456 324.28105125 254 326.125 C253.34 326.455 252.68 326.785 252 327.125 C250.34700684 327.22325939 248.69006247 327.25780712 247.0341568 327.26201439 C245.97738944 327.26708893 244.92062207 327.27216347 243.83183146 327.27739179 C242.07652935 327.27813843 242.07652935 327.27813843 240.2857666 327.27890015 C239.04971349 327.2832824 237.81366038 327.28766465 236.54015112 327.2921797 C233.09788611 327.30326258 229.65566666 327.30979784 226.21339035 327.31436086 C222.50494209 327.32031037 218.79651066 327.33192207 215.08807373 327.34265137 C206.12475284 327.36719393 197.16142637 327.3818071 188.19808221 327.39471143 C185.66640642 327.39842261 183.13473119 327.40239592 180.60305595 327.4064641 C164.88331778 327.43170453 149.16357874 327.45375881 133.44382477 327.46619225 C129.80109148 327.46912198 126.15835822 327.47208364 122.515625 327.47509766 C121.15753583 327.47621673 121.15753583 327.47621673 119.77201051 327.47735842 C105.1127519 327.49000571 90.45361476 327.52321876 75.79441291 327.56489949 C60.74479534 327.60733939 45.6952399 327.63088983 30.64556265 327.63611281 C22.19553577 327.63952506 13.74569855 327.65125788 5.29573059 327.68421555 C-1.90278205 327.7122458 -9.10106618 327.72320251 -16.29962915 327.71202008 C-19.97084763 327.70684055 -23.64158782 327.70967328 -27.31273651 327.73448563 C-31.29878697 327.76120053 -35.28378932 327.74889365 -39.26989746 327.73300171 C-40.42225309 327.7468838 -41.57460872 327.76076588 -42.76188421 327.77506864 C-52.32079424 327.68129221 -59.07956412 324.83733734 -66.3125 318.625 C-77.10462294 306.74765994 -75.70474924 291.6122684 -75.61523438 276.62744141 C-75.61873961 274.15415059 -75.62440271 271.68086204 -75.63204956 269.20758057 C-75.64477446 263.21437068 -75.63442432 257.2216144 -75.61293632 251.22846349 C-75.58881072 244.24100206 -75.59064756 237.25361693 -75.59324223 230.2661231 C-75.59692341 217.79827585 -75.57618016 205.33058863 -75.54199219 192.86279297 C-75.50886377 180.77681439 -75.49474213 168.69100353 -75.50097656 156.60498047 C-75.5077443 143.42036347 -75.50527273 130.23581648 -75.48561716 117.05120981 C-75.48457768 116.35382564 -75.48353819 115.65644146 -75.4824672 114.93792444 C-75.48037642 113.53749494 -75.47826544 112.13706548 -75.47613403 110.73663605 C-75.46924894 105.87012962 -75.4685673 101.00364483 -75.47001648 96.13713455 C-75.47160837 89.5887193 -75.45668395 83.04047684 -75.43078995 76.49210358 C-75.42362687 74.08910722 -75.42154519 71.68608955 -75.42490768 69.28308487 C-75.42862116 66.00390495 -75.41387903 62.72531 -75.39440918 59.44619751 C-75.39973711 58.49493599 -75.40506503 57.54367446 -75.41055441 56.56358683 C-75.32005288 47.7325576 -72.52471004 40.73862355 -66.2109375 34.30078125 C-59.00918848 27.66905483 -52.09269271 24.95772218 -42.26953125 25.02734375 C-41.14390022 25.02946617 -41.14390022 25.02946617 -39.99552917 25.03163147 C-37.6011454 25.0372244 -35.20685547 25.04977556 -32.8125 25.0625 C-31.18815239 25.06751592 -29.56380332 25.07207866 -27.93945312 25.07617188 C-23.95959931 25.08719152 -19.97981556 25.10445127 -16 25.125 C-16.02320313 24.07699219 -16.04640625 23.02898437 -16.0703125 21.94921875 C-16.08907303 20.57031963 -16.10727293 19.1914128 -16.125 17.8125 C-16.14175781 17.12220703 -16.15851563 16.43191406 -16.17578125 15.72070312 C-16.21217794 11.95364604 -16.14378864 10.34068296 -14 7.125 C-13.34 7.125 -12.68 7.125 -12 7.125 C-12 6.465 -12 5.805 -12 5.125 C-11.34 5.125 -10.68 5.125 -10 5.125 C-9.71125 4.485625 -9.4225 3.84625 -9.125 3.1875 C-7.00334465 -0.70220148 -4.07517506 -0.00979609 0 0 Z " fill="#FBFBFB" transform="translate(366,207.875)"/>
<path d="M0 0 C1.60875 -0.00386719 1.60875 -0.00386719 3.25 -0.0078125 C6 0.125 6 0.125 8 1.125 C8 1.785 8 2.445 8 3.125 C8.86625 3.186875 8.86625 3.186875 9.75 3.25 C12 4.125 12 4.125 16 10.125 C16 15.075 16 20.025 16 25.125 C71.44 25.125 126.88 25.125 184 25.125 C184 20.175 184 15.225 184 10.125 C185.485 7.65 185.485 7.65 187 5.125 C187.66 5.125 188.32 5.125 189 5.125 C189.33 4.135 189.66 3.145 190 2.125 C194.70085725 -1.00890483 199.50162637 -0.55707673 205 0.125 C210.32770696 2.17151601 213.49134735 4.98567092 216 10.125 C216.20952713 12.82091571 216.28744431 15.25950509 216.1875 17.9375 C216.17396484 18.63037109 216.16042969 19.32324219 216.14648438 20.03710938 C216.11138845 21.73341265 216.05758943 23.42931136 216 25.125 C216.9472998 25.10928955 217.89459961 25.0935791 218.87060547 25.07739258 C222.43039573 25.02585499 225.98978183 24.98845325 229.54980469 24.96020508 C231.08209543 24.94524256 232.61434429 24.92486503 234.14648438 24.89868164 C247.50490943 24.67633188 257.96775387 25.47639617 268 35.125 C274.61074815 42.58509481 276.29876056 48.45090223 276.27415466 58.28834534 C276.27939134 59.32137297 276.28462802 60.3544006 276.29002339 61.41873211 C276.3050427 64.88539492 276.30572898 68.35191038 276.30639648 71.81860352 C276.31401682 74.30230458 276.3224441 76.78600329 276.33161926 79.2696991 C276.35358743 86.0220703 276.36238858 92.77438214 276.36744571 99.52678037 C276.37070555 103.74664288 276.37722989 107.96649631 276.3844471 112.18635368 C276.40401334 123.87969067 276.4204166 135.57301922 276.42332363 147.26637363 C276.4235112 148.01445254 276.42369877 148.76253145 276.42389202 149.53327942 C276.42425827 151.04970769 276.42462197 152.56613597 276.42498314 154.08256424 C276.42516595 154.83528142 276.42534876 155.5879986 276.42553711 156.36352539 C276.42580793 157.49398677 276.42580793 157.49398677 276.42608423 158.64728575 C276.42962275 170.84774242 276.45662478 183.04802224 276.494035 195.24841762 C276.53217379 207.7872609 276.55148153 220.32601658 276.55178314 232.86491913 C276.55236657 239.89980158 276.5607839 246.93447323 276.58978081 253.96930122 C276.61694864 260.59069798 276.61815218 267.2117513 276.60212517 273.83320808 C276.60031251 276.25830495 276.60698466 278.68342589 276.62294388 281.10847092 C276.78820239 307.85955638 276.78820239 307.85955638 267.25 318.625 C263.26908374 322.26534358 259.02137456 324.28105125 254 326.125 C253.34 326.455 252.68 326.785 252 327.125 C250.34700684 327.22325939 248.69006247 327.25780712 247.0341568 327.26201439 C245.97738944 327.26708893 244.92062207 327.27216347 243.83183146 327.27739179 C242.07652935 327.27813843 242.07652935 327.27813843 240.2857666 327.27890015 C239.04971349 327.2832824 237.81366038 327.28766465 236.54015112 327.2921797 C233.09788611 327.30326258 229.65566666 327.30979784 226.21339035 327.31436086 C222.50494209 327.32031037 218.79651066 327.33192207 215.08807373 327.34265137 C206.12475284 327.36719393 197.16142637 327.3818071 188.19808221 327.39471143 C185.66640642 327.39842261 183.13473119 327.40239592 180.60305595 327.4064641 C164.88331778 327.43170453 149.16357874 327.45375881 133.44382477 327.46619225 C129.80109148 327.46912198 126.15835822 327.47208364 122.515625 327.47509766 C121.15753583 327.47621673 121.15753583 327.47621673 119.77201051 327.47735842 C105.1127519 327.49000571 90.45361476 327.52321876 75.79441291 327.56489949 C60.74479534 327.60733939 45.6952399 327.63088983 30.64556265 327.63611281 C22.19553577 327.63952506 13.74569855 327.65125788 5.29573059 327.68421555 C-1.90278205 327.7122458 -9.10106618 327.72320251 -16.29962915 327.71202008 C-19.97084763 327.70684055 -23.64158782 327.70967328 -27.31273651 327.73448563 C-31.29878697 327.76120053 -35.28378932 327.74889365 -39.26989746 327.73300171 C-40.42225309 327.7468838 -41.57460872 327.76076588 -42.76188421 327.77506864 C-52.32079424 327.68129221 -59.07956412 324.83733734 -66.3125 318.625 C-77.10462294 306.74765994 -75.70474924 291.6122684 -75.61523438 276.62744141 C-75.61873961 274.15415059 -75.62440271 271.68086204 -75.63204956 269.20758057 C-75.64477446 263.21437068 -75.63442432 257.2216144 -75.61293632 251.22846349 C-75.58881072 244.24100206 -75.59064756 237.25361693 -75.59324223 230.2661231 C-75.59692341 217.79827585 -75.57618016 205.33058863 -75.54199219 192.86279297 C-75.50886377 180.77681439 -75.49474213 168.69100353 -75.50097656 156.60498047 C-75.5077443 143.42036347 -75.50527273 130.23581648 -75.48561716 117.05120981 C-75.48457768 116.35382564 -75.48353819 115.65644146 -75.4824672 114.93792444 C-75.48037642 113.53749494 -75.47826544 112.13706548 -75.47613403 110.73663605 C-75.46924894 105.87012962 -75.4685673 101.00364483 -75.47001648 96.13713455 C-75.47160837 89.5887193 -75.45668395 83.04047684 -75.43078995 76.49210358 C-75.42362687 74.08910722 -75.42154519 71.68608955 -75.42490768 69.28308487 C-75.42862116 66.00390495 -75.41387903 62.72531 -75.39440918 59.44619751 C-75.39973711 58.49493599 -75.40506503 57.54367446 -75.41055441 56.56358683 C-75.32005288 47.7325576 -72.52471004 40.73862355 -66.2109375 34.30078125 C-59.00918848 27.66905483 -52.09269271 24.95772218 -42.26953125 25.02734375 C-41.14390022 25.02946617 -41.14390022 25.02946617 -39.99552917 25.03163147 C-37.6011454 25.0372244 -35.20685547 25.04977556 -32.8125 25.0625 C-31.18815239 25.06751592 -29.56380332 25.07207866 -27.93945312 25.07617188 C-23.95959931 25.08719152 -19.97981556 25.10445127 -16 25.125 C-16.02320313 24.07699219 -16.04640625 23.02898437 -16.0703125 21.94921875 C-16.08907303 20.57031963 -16.10727293 19.1914128 -16.125 17.8125 C-16.14175781 17.12220703 -16.15851563 16.43191406 -16.17578125 15.72070312 C-16.21217794 11.95364604 -16.14378864 10.34068296 -14 7.125 C-13.34 7.125 -12.68 7.125 -12 7.125 C-12 6.465 -12 5.805 -12 5.125 C-11.34 5.125 -10.68 5.125 -10 5.125 C-9.71125 4.485625 -9.4225 3.84625 -9.125 3.1875 C-7.00334465 -0.70220148 -4.07517506 -0.00979609 0 0 Z M-59 111.125 C-59.12375 142.124375 -59.2475 173.12375 -59.375 205.0625 C-59.42962402 214.84769287 -59.48424805 224.63288574 -59.54052734 234.71459961 C-59.56059495 243.4921888 -59.56059495 243.4921888 -59.57266235 252.26979065 C-59.57824849 256.17710342 -59.60071693 260.08392622 -59.63345337 263.99110413 C-59.67469366 268.97953447 -59.68693169 273.96725522 -59.67843366 278.95584023 C-59.68020987 280.78375603 -59.69205857 282.61169734 -59.71529078 284.43946636 C-59.99658993 296.73138762 -59.99658993 296.73138762 -54.77683449 307.60680485 C-51.16168078 310.69573005 -47.41055577 311.3750001 -42.76036835 311.37668228 C-41.71892811 311.38189778 -40.67748788 311.38711327 -39.60448885 311.39248681 C-38.46685201 311.38802537 -37.32921517 311.38356392 -36.15710449 311.37896729 C-34.94354515 311.38208727 -33.7299858 311.38520725 -32.47965193 311.38842177 C-29.11425546 311.39502027 -25.74908211 311.39264342 -22.38369918 311.38644934 C-18.75311117 311.3819269 -15.12254275 311.38890758 -11.49195862 311.39440918 C-4.38086625 311.40330704 2.73018393 311.40137942 9.84127796 311.3955839 C15.62010537 311.39106896 21.39892096 311.39045378 27.17774963 311.39263153 C28.41099147 311.39309123 28.41099147 311.39309123 29.66914728 311.39356022 C31.33929996 311.39419966 33.00945263 311.39484809 34.67960531 311.3955054 C50.34429248 311.40120984 66.00895626 311.394649 81.6736396 311.38390467 C95.11756182 311.37496905 108.5614495 311.37652106 122.00537109 311.38574219 C137.61362702 311.39644279 153.22186243 311.40066051 168.83012152 311.39451766 C170.49416446 311.39388056 172.15820741 311.39325181 173.82225037 311.39263153 C174.64101262 311.39232298 175.45977487 311.39201443 176.30334809 311.39169653 C182.07589938 311.38996896 187.84843767 311.39288602 193.62098694 311.39759064 C200.65483691 311.40319714 207.68864224 311.40168788 214.72248709 311.39102915 C218.31193857 311.38576933 221.90131558 311.38372097 225.49076653 311.39032745 C229.37958805 311.39737674 233.26828737 311.38896518 237.15710449 311.37896729 C238.86355975 311.38565945 238.86355975 311.38565945 240.60448885 311.39248681 C241.64592908 311.38727132 242.68736932 311.38205582 243.76036835 311.37668228 C245.10677816 311.37619522 245.10677816 311.37619522 246.48038816 311.37569833 C249.28334472 311.09680754 251.4446089 310.2827297 254 309.125 C254 308.465 254 307.805 254 307.125 C254.66 307.125 255.32 307.125 256 307.125 C259.78815148 302.59701134 260.57353929 298.92073073 260.48101807 293.19033813 C260.48444214 292.41121063 260.48786621 291.63208313 260.49139404 290.8293457 C260.49799564 288.220001 260.4759551 285.61169167 260.45410156 283.00244141 C260.45287583 281.09937256 260.45341087 279.1963019 260.45556259 277.29323387 C260.45646496 272.2007815 260.43329624 267.10870574 260.40512085 262.01634216 C260.3823266 257.23638737 260.38126761 252.45652377 260.37841797 247.67651367 C260.35743578 233.70095931 260.30159108 219.72547489 260.25 205.75 C260.1675 174.52375 260.085 143.2975 260 111.125 C154.73 111.125 49.46 111.125 -59 111.125 Z " fill="#181818" transform="translate(366,207.875)"/>
<path d="M0 0 C0.69891357 -0.00524185 1.39782715 -0.0104837 2.11791992 -0.0158844 C3.59389926 -0.02230072 5.06992975 -0.02097256 6.54589844 -0.01245117 C8.804961 -0.00393467 11.06149945 -0.03271163 13.3203125 -0.06445312 C14.75520758 -0.06606512 16.19010713 -0.06548764 17.625 -0.0625 C18.93082031 -0.06435303 20.23664063 -0.06620605 21.58203125 -0.06811523 C24.8125 0.43359375 24.8125 0.43359375 26.73681641 2.03881836 C28.1674617 5.22383871 28.20117994 7.75567672 28.2109375 11.24609375 C28.21380768 11.89682861 28.21667786 12.54756348 28.21963501 13.21801758 C28.22167056 14.58968988 28.21617623 15.96139154 28.20361328 17.33300781 C28.18754985 19.4270954 28.20347657 21.51925336 28.22265625 23.61328125 C28.22067372 24.94922299 28.21682985 26.28516353 28.2109375 27.62109375 C28.20755371 28.83152344 28.20416992 30.04195313 28.20068359 31.2890625 C27.77286872 34.75463203 27.48565461 36.18208423 24.8125 38.43359375 C21.68969727 38.95117188 21.68969727 38.95117188 17.87890625 38.96484375 C17.20456039 38.96867065 16.53021454 38.97249756 15.83543396 38.97644043 C14.41070054 38.97915941 12.98591719 38.97179885 11.5612793 38.95507812 C9.38541688 38.93369612 7.21286804 38.9548571 5.03710938 38.98046875 C3.6510344 38.97782481 2.26496149 38.97269845 0.87890625 38.96484375 C-0.37978271 38.96033203 -1.63847168 38.95582031 -2.93530273 38.95117188 C-6.1875 38.43359375 -6.1875 38.43359375 -8.59814453 36.84204102 C-10.76108086 33.5644117 -10.68935189 31.27846756 -10.68359375 27.3671875 C-10.68504898 26.69188492 -10.68650421 26.01658234 -10.68800354 25.32081604 C-10.6863482 23.89783397 -10.67482752 22.47483333 -10.65405273 21.05200195 C-10.62504391 18.87439032 -10.63345884 16.69920699 -10.64648438 14.52148438 C-10.64024795 13.13670693 -10.63185774 11.75193715 -10.62109375 10.3671875 C-10.61134521 9.10962646 -10.60159668 7.85206543 -10.59155273 6.55639648 C-10.1875 3.43359375 -10.1875 3.43359375 -9.10961914 1.52734375 C-6.10736442 -0.18103947 -3.42838634 0.02559444 0 0 Z " fill="#1E1E1E" transform="translate(404.1875,400.56640625)"/>
<path d="M0 0 C1.01151878 -0.00786278 1.01151878 -0.00786278 2.04347229 -0.0158844 C3.46817652 -0.02230064 4.89293376 -0.02097264 6.31762695 -0.01245117 C8.49331447 -0.00394765 10.66636928 -0.03268967 12.84179688 -0.06445312 C14.2278638 -0.06606552 15.61393536 -0.06548687 17 -0.0625 C18.25868896 -0.06435303 19.51737793 -0.06620605 20.81420898 -0.06811523 C24.06640625 0.43359375 24.06640625 0.43359375 26.47265625 2.0546875 C29.45005134 6.49888752 28.69283516 11.66151781 28.64282227 16.85083008 C28.62896526 18.86252674 28.66301841 20.86955632 28.70117188 22.88085938 C28.69923828 24.15509766 28.69730469 25.42933594 28.6953125 26.7421875 C28.6960376 27.90548584 28.6967627 29.06878418 28.69750977 30.26733398 C27.86192181 34.45949654 26.48560395 35.9144291 23.06640625 38.43359375 C19.90014648 39.06469727 19.90014648 39.06469727 16.375 39.0625 C14.46364258 39.06540039 14.46364258 39.06540039 12.51367188 39.06835938 C11.85536377 39.05587158 11.19705566 39.04338379 10.51879883 39.03051758 C8.50525632 38.99611682 6.49608768 39.00988982 4.48242188 39.02929688 C-5.15365924 38.95611145 -5.15365924 38.95611145 -8.3125 36.83984375 C-10.5186254 33.56520943 -10.43547503 31.29842738 -10.4296875 27.3671875 C-10.43114273 26.69188492 -10.43259796 26.01658234 -10.43409729 25.32081604 C-10.43244195 23.89783397 -10.42092127 22.47483333 -10.40014648 21.05200195 C-10.37113766 18.87439032 -10.37955259 16.69920699 -10.39257812 14.52148438 C-10.3863417 13.13670693 -10.37795149 11.75193715 -10.3671875 10.3671875 C-10.35743896 9.10962646 -10.34769043 7.85206543 -10.33764648 6.55639648 C-9.93359375 3.43359375 -9.93359375 3.43359375 -8.83984375 1.52734375 C-5.91081476 -0.15324665 -3.35454444 0.02600422 0 0 Z " fill="#191919" transform="translate(403.93359375,346.56640625)"/>
<path d="M0 0 C0.67434586 -0.0038269 1.34869171 -0.00765381 2.04347229 -0.01159668 C3.46820571 -0.01431566 4.89298906 -0.0069551 6.31762695 0.00976562 C8.49348937 0.03114763 10.66603821 0.00998665 12.84179688 -0.015625 C14.22787185 -0.01298106 15.61394476 -0.0078547 17 0 C18.25868896 0.00451172 19.51737793 0.00902344 20.81420898 0.01367188 C24.06640625 0.53125 24.06640625 0.53125 26.48364258 2.12988281 C28.6318312 5.38911208 28.52288583 7.59895479 28.45703125 11.484375 C28.45137146 12.14459656 28.44571167 12.80481812 28.43988037 13.48504639 C28.41756855 15.58453263 28.36738939 17.6822837 28.31640625 19.78125 C28.29633419 21.2083086 28.27808464 22.63539408 28.26171875 24.0625 C28.21772318 27.55264293 28.14873501 31.04177699 28.06640625 34.53125 C27.07640625 34.86125 26.08640625 35.19125 25.06640625 35.53125 C25.06640625 36.19125 25.06640625 36.85125 25.06640625 37.53125 C20.84617429 39.64136598 15.38780793 38.84007434 10.74511719 38.88134766 C9.37938395 38.8979079 8.01373743 38.92520011 6.6484375 38.96337891 C4.67630864 39.01821324 2.70327957 39.03689662 0.73046875 39.0546875 C-1.04142822 39.0844165 -1.04142822 39.0844165 -2.84912109 39.11474609 C-5.93359375 38.53125 -5.93359375 38.53125 -8.3190918 36.41674805 C-10.25352024 32.95946546 -10.43597592 30.78760714 -10.4296875 26.83984375 C-10.43033203 25.56560547 -10.43097656 24.29136719 -10.43164062 22.97851562 C-10.42124756 22.32020752 -10.41085449 21.66189941 -10.40014648 20.98364258 C-10.3711216 18.9706815 -10.37956198 16.96034731 -10.39257812 14.94726562 C-10.32968236 5.39194701 -10.32968236 5.39194701 -8.83984375 2.15454102 C-5.98129305 -0.27969357 -3.70920134 0.0133074 0 0 Z " fill="#181818" transform="translate(569.93359375,346.46875)"/>
<path d="M0 0 C0.71800781 0.00217529 1.43601562 0.00435059 2.17578125 0.0065918 C4.35988616 0.00974381 6.54262596 -0.01367362 8.7265625 -0.0390625 C10.11718579 -0.04133636 11.50781272 -0.04203858 12.8984375 -0.04101562 C14.16349121 -0.04399658 15.42854492 -0.04697754 16.73193359 -0.05004883 C20.27059357 0.353093 21.72218517 0.58398931 24 3.32226562 C24.51757812 6.44506836 24.51757812 6.44506836 24.53125 10.25585938 C24.5350769 10.93020523 24.53890381 11.60455109 24.54284668 12.29933167 C24.54556566 13.72406509 24.5382051 15.14884843 24.52148438 16.57348633 C24.50010237 18.74934875 24.52126335 20.92189759 24.546875 23.09765625 C24.54423106 24.48373122 24.5391047 25.86980414 24.53125 27.25585938 C24.52673828 28.51454834 24.52222656 29.7732373 24.51757812 31.07006836 C24 34.32226562 24 34.32226562 22.39477539 36.73510742 C19.17457641 38.86932228 16.99996004 38.80918848 13.15234375 38.78320312 C12.49923721 38.78228668 11.84613068 38.78137024 11.17323303 38.78042603 C9.79729919 38.77440209 8.42137772 38.75869194 7.0456543 38.73388672 C4.94075193 38.69732211 2.83760907 38.69286791 0.73242188 38.69335938 C-9.55664579 38.6178351 -9.55664579 38.6178351 -13 36.32226562 C-13.29201724 33.72111006 -13.3962335 31.36135411 -13.36328125 28.75976562 C-13.36377975 28.01267334 -13.36427826 27.26558105 -13.36479187 26.49584961 C-13.36245023 24.9155003 -13.35271631 23.33514735 -13.33618164 21.75488281 C-13.31259178 19.33169311 -13.3156191 16.90960341 -13.32226562 14.48632812 C-13.31668886 12.95246738 -13.30957899 11.41861128 -13.30078125 9.88476562 C-13.30169266 9.15765381 -13.30260406 8.43054199 -13.30354309 7.68139648 C-13.17289926 -1.55766881 -7.61222069 0.03057095 0 0 Z " fill="#1D1C1C" transform="translate(463,346.677734375)"/>
<path d="M0 0 C0.67671753 -0.00287018 1.35343506 -0.00574036 2.05065918 -0.00869751 C3.47958209 -0.01073647 4.90853302 -0.00521819 6.33740234 0.00732422 C8.52374725 0.02338239 10.70824379 0.00747216 12.89453125 -0.01171875 C14.28385824 -0.00973629 15.67318409 -0.00589254 17.0625 0 C18.32642578 0.00338379 19.59035156 0.00676758 20.89257812 0.01025391 C24.03125 0.3984375 24.03125 0.3984375 25.93969727 1.47412109 C27.64383559 4.47837478 27.43924963 7.15759517 27.46484375 10.5859375 C27.4700856 11.28485107 27.47532745 11.98376465 27.48072815 12.70385742 C27.48714447 14.17983676 27.48581631 15.65586725 27.47729492 17.13183594 C27.46877842 19.3908985 27.49755538 21.64743695 27.52929688 23.90625 C27.53090887 25.34114508 27.53033139 26.77604463 27.52734375 28.2109375 C27.53012329 30.16966797 27.53012329 30.16966797 27.53295898 32.16796875 C27.03125 35.3984375 27.03125 35.3984375 25.41235352 37.32055664 C20.73489447 39.43795454 15.60854752 38.87703188 10.55908203 38.84448242 C8.53705367 38.83596196 6.51784393 38.8647639 4.49609375 38.89648438 C3.21863281 38.89583984 1.94117188 38.89519531 0.625 38.89453125 C-1.12780273 38.89731079 -1.12780273 38.89731079 -2.91601562 38.90014648 C-5.96875 38.3984375 -5.96875 38.3984375 -8.34985352 36.80908203 C-10.55110087 33.53127832 -10.4706316 31.26349334 -10.46484375 27.33203125 C-10.46629898 26.65672867 -10.46775421 25.98142609 -10.46925354 25.28565979 C-10.4675982 23.86267772 -10.45607752 22.43967708 -10.43530273 21.0168457 C-10.40629391 18.83923407 -10.41470884 16.66405074 -10.42773438 14.48632812 C-10.42149795 13.10155068 -10.41310774 11.7167809 -10.40234375 10.33203125 C-10.39259521 9.07447021 -10.38284668 7.81690918 -10.37280273 6.52124023 C-9.96875 3.3984375 -9.96875 3.3984375 -8.87719727 1.48999023 C-5.93524001 -0.19268738 -3.36561636 0.00901045 0 0 Z " fill="#191919" transform="translate(514.96875,346.6015625)"/>
<path d="M0 0 C1.01151878 -0.00786278 1.01151878 -0.00786278 2.04347229 -0.0158844 C3.46817652 -0.02230064 4.89293376 -0.02097264 6.31762695 -0.01245117 C8.49331447 -0.00394765 10.66636928 -0.03268967 12.84179688 -0.06445312 C14.2278638 -0.06606552 15.61393536 -0.06548687 17 -0.0625 C18.25868896 -0.06435303 19.51737793 -0.06620605 20.81420898 -0.06811523 C24.06640625 0.43359375 24.06640625 0.43359375 26.47705078 2.03662109 C28.60997602 5.25337379 28.56835519 7.43642788 28.5625 11.28125 C28.56395523 11.93435654 28.56541046 12.58746307 28.56690979 13.26036072 C28.56525479 14.63626584 28.55373777 16.01219024 28.53295898 17.38793945 C28.50394683 19.49314915 28.51236597 21.5958473 28.52539062 23.70117188 C28.51915422 25.04037681 28.51076403 26.37957381 28.5 27.71875 C28.49025146 28.9344165 28.48050293 30.15008301 28.47045898 31.40258789 C28.06640625 34.43359375 28.06640625 34.43359375 26.98852539 36.32836914 C23.98608287 38.05478312 21.31506523 37.82312709 17.87890625 37.83203125 C17.17999268 37.83490143 16.4810791 37.83777161 15.76098633 37.84072876 C14.28498524 37.842768 12.80895704 37.83724778 11.33300781 37.82470703 C9.07425487 37.80864955 6.81729107 37.82455845 4.55859375 37.84375 C3.12369397 37.84176754 1.6887953 37.83792381 0.25390625 37.83203125 C-1.05191406 37.82864746 -2.35773437 37.82526367 -3.703125 37.82177734 C-6.93359375 37.43359375 -6.93359375 37.43359375 -8.85791016 36.34423828 C-10.51659407 33.39806028 -10.3230401 30.82325212 -10.33203125 27.46484375 C-10.33490143 26.78812622 -10.33777161 26.11140869 -10.34072876 25.41418457 C-10.34276772 23.98526166 -10.33724944 22.55631073 -10.32470703 21.12744141 C-10.30864886 18.9410965 -10.32455909 16.75659996 -10.34375 14.5703125 C-10.34176754 13.18098551 -10.33792379 11.79165966 -10.33203125 10.40234375 C-10.32864746 9.13841797 -10.32526367 7.87449219 -10.32177734 6.57226562 C-9.93359375 3.43359375 -9.93359375 3.43359375 -8.84204102 1.52514648 C-5.91108493 -0.15123891 -3.35442198 0.02600327 0 0 Z " fill="#191919" transform="translate(569.93359375,400.56640625)"/>
<path d="M0 0 C4.64473982 -0.07416067 9.28913499 -0.12860615 13.93432617 -0.16479492 C15.51446536 -0.17988094 17.09456269 -0.2003525 18.67456055 -0.22631836 C20.94590585 -0.26271126 23.21669759 -0.27972762 25.48828125 -0.29296875 C26.54780754 -0.31619453 26.54780754 -0.31619453 27.6287384 -0.33988953 C30.38197297 -0.34083412 32.51061772 -0.27249346 34.94458008 1.08276367 C36.57079687 4.03688822 36.3894659 6.61764496 36.3984375 9.96875 C36.40130768 10.64546753 36.40417786 11.32218506 36.40713501 12.01940918 C36.40917397 13.44833209 36.40365569 14.87728302 36.39111328 16.30615234 C36.37505511 18.49249725 36.39096534 20.67699379 36.41015625 22.86328125 C36.40817379 24.25260824 36.40433004 25.64193409 36.3984375 27.03125 C36.39505371 28.29517578 36.39166992 29.55910156 36.38818359 30.86132812 C36 34 36 34 34.92651367 35.9128418 C31.90678178 37.6169181 29.21715758 37.37109565 25.77734375 37.36328125 C25.0760585 37.36377975 24.37477325 37.36427826 23.65223694 37.36479187 C22.17201906 37.3624542 20.69179699 37.35274363 19.21166992 37.33618164 C16.94218565 37.31254879 14.67387324 37.31562728 12.40429688 37.32226562 C1.27913434 37.27913434 1.27913434 37.27913434 -1 35 C-1.18727088 32.51409674 -1.25579285 30.14173878 -1.23046875 27.65625 C-1.23001053 26.93135376 -1.22955231 26.20645752 -1.2290802 25.45959473 C-1.22605799 23.92633427 -1.21817258 22.39307688 -1.20581055 20.85986328 C-1.18757239 18.50932978 -1.18530074 16.15919057 -1.18554688 13.80859375 C-1.18063091 12.32030908 -1.17480225 10.8320271 -1.16796875 9.34375 C-1.16629951 8.28589294 -1.16629951 8.28589294 -1.16459656 7.20666504 C-1.11607536 2.23215072 -1.11607536 2.23215072 0 0 Z " fill="#191919" transform="translate(451,401)"/>
<path d="M0 0 C0.7437085 0.00217529 1.48741699 0.00435059 2.25366211 0.0065918 C4.52116059 0.00974886 6.78735072 -0.01369197 9.0546875 -0.0390625 C10.49413898 -0.04133579 11.93359397 -0.04203885 13.37304688 -0.04101562 C14.68523193 -0.04399658 15.99741699 -0.04697754 17.34936523 -0.05004883 C20.59570312 0.32226562 20.59570312 0.32226562 22.5222168 1.40942383 C24.17668746 4.35751972 23.98514973 6.93270103 23.99414062 10.29101562 C23.9970108 10.96773315 23.99988098 11.64445068 24.00283813 12.3416748 C24.0048771 13.77059772 23.99935881 15.19954865 23.98681641 16.62841797 C23.97075823 18.81476287 23.98666847 20.99925942 24.00585938 23.18554688 C24.00387691 24.57487387 24.00003316 25.96419971 23.99414062 27.35351562 C23.99075684 28.61744141 23.98737305 29.88136719 23.98388672 31.18359375 C23.59570312 34.32226562 23.59570312 34.32226562 22.51293945 36.23950195 C19.53035427 37.92392386 16.9193955 37.65684145 13.52148438 37.61523438 C12.83765182 37.61098953 12.15381927 37.60674469 11.44926453 37.60237122 C9.26850751 37.58559916 7.08868004 37.54795219 4.90820312 37.50976562 C3.42839878 37.49471677 1.94857992 37.48102871 0.46875 37.46875 C-3.15590024 37.43570131 -6.78000782 37.38393008 -10.40429688 37.32226562 C-10.40429688 36.66226563 -10.40429688 36.00226563 -10.40429688 35.32226562 C-11.39429688 34.99226563 -12.38429688 34.66226563 -13.40429688 34.32226562 C-13.45367388 29.80161134 -13.4900051 25.28111346 -13.51416016 20.76025391 C-13.52422805 19.22181464 -13.53788334 17.68339455 -13.55517578 16.14501953 C-13.57939004 13.9358243 -13.59077178 11.72688168 -13.59960938 9.51757812 C-13.60993195 8.82793976 -13.62025452 8.13830139 -13.63088989 7.42776489 C-13.63129166 5.72425656 -13.52620713 4.0214062 -13.40429688 2.32226562 C-9.90928716 -1.17274409 -4.72456884 0.01831674 0 0 Z " fill="#181818" transform="translate(352.404296875,454.677734375)"/>
<path d="M0 0 C3.11694336 -0.38818359 3.11694336 -0.38818359 7.08984375 -0.3984375 C7.79017227 -0.40130768 8.49050079 -0.40417786 9.21205139 -0.40713501 C10.6940288 -0.40917739 12.17603307 -0.40363524 13.65795898 -0.39111328 C15.92558242 -0.37508424 18.19141714 -0.39094167 20.45898438 -0.41015625 C21.89844143 -0.40817338 23.33789738 -0.40432878 24.77734375 -0.3984375 C26.08952881 -0.39505371 27.40171387 -0.39166992 28.75366211 -0.38818359 C32 0 32 0 33.92651367 1.08935547 C35.58201455 4.03589854 35.38944939 6.61147753 35.3984375 9.96875 C35.40130768 10.64546753 35.40417786 11.32218506 35.40713501 12.01940918 C35.40917397 13.44833209 35.40365569 14.87728302 35.39111328 16.30615234 C35.37505511 18.49249725 35.39096534 20.67699379 35.41015625 22.86328125 C35.40817379 24.25260824 35.40433004 25.64193409 35.3984375 27.03125 C35.39505371 28.29517578 35.39166992 29.55910156 35.38818359 30.86132812 C35 34 35 34 33.91064453 35.91064453 C30.96674542 37.58911091 28.3967669 37.38942732 25.03125 37.3984375 C24.35453247 37.40130768 23.67781494 37.40417786 22.98059082 37.40713501 C21.55166791 37.40917397 20.12271698 37.40365569 18.69384766 37.39111328 C16.50750275 37.37505511 14.32300621 37.39096534 12.13671875 37.41015625 C10.74739176 37.40817379 9.35806591 37.40433004 7.96875 37.3984375 C6.70482422 37.39505371 5.44089844 37.39166992 4.13867188 37.38818359 C1 37 1 37 -0.9128418 35.91064453 C-2.58960598 32.96378703 -2.37122119 30.39778618 -2.36328125 27.03125 C-2.36377975 26.35453247 -2.36427826 25.67781494 -2.36479187 24.98059082 C-2.36245423 23.55164652 -2.35274383 22.12269788 -2.33618164 20.69384766 C-2.3125838 18.50776313 -2.31562295 16.32289833 -2.32226562 14.13671875 C-2.27924282 3.41886422 -2.27924282 3.41886422 0 0 Z " fill="#191919" transform="translate(507,455)"/>
<path d="M0 0 C3.11694336 -0.37231445 3.11694336 -0.37231445 7.08984375 -0.36328125 C7.79017227 -0.36377975 8.49050079 -0.36427826 9.21205139 -0.36479187 C10.69404942 -0.36245032 12.17605135 -0.35271685 13.65795898 -0.33618164 C15.92533001 -0.31262643 18.19152241 -0.31561473 20.45898438 -0.32226562 C31.58125196 -0.27916536 31.58125196 -0.27916536 35 2 C35.38818359 5.11694336 35.38818359 5.11694336 35.3984375 9.08984375 C35.40130768 9.79017227 35.40417786 10.49050079 35.40713501 11.21205139 C35.40917739 12.6940288 35.40363524 14.17603307 35.39111328 15.65795898 C35.37508424 17.92558242 35.39094167 20.19141714 35.41015625 22.45898438 C35.40817338 23.89844143 35.40432878 25.33789738 35.3984375 26.77734375 C35.39505371 28.08952881 35.39166992 29.40171387 35.38818359 30.75366211 C35 34 35 34 33.91064453 35.92431641 C30.96701719 37.58156431 28.38743655 37.40770781 25.03125 37.43359375 C24.35453247 37.4388356 23.67781494 37.44407745 22.98059082 37.44947815 C21.55169038 37.45589358 20.12273709 37.45456744 18.69384766 37.44604492 C16.50718292 37.43752798 14.32312574 37.46630633 12.13671875 37.49804688 C10.74739662 37.49965887 9.35806986 37.49908138 7.96875 37.49609375 C6.70482422 37.49794678 5.44089844 37.4997998 4.13867188 37.50170898 C1 37 1 37 -0.9128418 35.39697266 C-2.36477361 32.19574505 -2.37188784 29.66545949 -2.36328125 26.15234375 C-2.36377975 25.49923721 -2.36427826 24.84613068 -2.36479187 24.17323303 C-2.36245844 22.79734238 -2.35277298 21.42144689 -2.33618164 20.0456543 C-2.31253769 17.94085541 -2.31563177 15.83732031 -2.32226562 13.73242188 C-2.27932607 3.41898911 -2.27932607 3.41898911 0 0 Z " fill="#191918" transform="translate(396,455)"/>
<path d="M0 0 C0.67671753 -0.00524185 1.35343506 -0.0104837 2.05065918 -0.0158844 C3.47955962 -0.02229983 4.90851291 -0.02097369 6.33740234 -0.01245117 C8.52406708 -0.00393423 10.70812426 -0.03271258 12.89453125 -0.06445312 C14.28385338 -0.06606512 15.67318014 -0.06548763 17.0625 -0.0625 C18.32642578 -0.06435303 19.59035156 -0.06620605 20.89257812 -0.06811523 C24.03125 0.43359375 24.03125 0.43359375 25.94189453 2.02075195 C27.42034166 5.295403 27.42008415 7.94487667 27.4296875 11.53515625 C27.43255768 12.21283051 27.43542786 12.89050476 27.43838501 13.5887146 C27.44042047 15.01585734 27.43492682 16.4430283 27.42236328 17.87011719 C27.40625016 20.05857222 27.42225285 22.24519464 27.44140625 24.43359375 C27.4394247 25.82161867 27.43558285 27.20964244 27.4296875 28.59765625 C27.42630371 29.8604541 27.42291992 31.12325195 27.41943359 32.42431641 C27.29133301 33.41737793 27.16323242 34.41043945 27.03125 35.43359375 C22.15678178 38.68323923 16.42980582 37.76660126 10.72509766 37.74926758 C8.53888231 37.74610479 6.35401708 37.7695828 4.16796875 37.79492188 C2.77864754 37.79719469 1.38932269 37.79789845 0 37.796875 C-1.26392578 37.79985596 -2.52785156 37.80283691 -3.83007812 37.8059082 C-6.96875 37.43359375 -6.96875 37.43359375 -8.87939453 36.34643555 C-10.5568268 33.40096674 -10.35817452 30.83140787 -10.3671875 27.46484375 C-10.37005768 26.78812622 -10.37292786 26.11140869 -10.37588501 25.41418457 C-10.37792397 23.98526166 -10.37240569 22.55631073 -10.35986328 21.12744141 C-10.34380511 18.9410965 -10.35971534 16.75659996 -10.37890625 14.5703125 C-10.37692379 13.18098551 -10.37308004 11.79165966 -10.3671875 10.40234375 C-10.36380371 9.13841797 -10.36041992 7.87449219 -10.35693359 6.57226562 C-9.96875 3.43359375 -9.96875 3.43359375 -8.87939453 1.52514648 C-5.93842434 -0.15503212 -3.36443182 0.02594953 0 0 Z " fill="#191919" transform="translate(514.96875,400.56640625)"/>
<path d="M0 0 C0.97965981 -0.00430527 0.97965981 -0.00430527 1.97911072 -0.00869751 C3.35497916 -0.0107328 4.73087688 -0.00524028 6.10668945 0.00732422 C8.21175719 0.02341391 10.31491286 0.00744673 12.41992188 -0.01171875 C13.75911881 -0.00973673 15.09831456 -0.00589389 16.4375 0 C17.6531665 0.00338379 18.86883301 0.00676758 20.12133789 0.01025391 C23.15234375 0.3984375 23.15234375 0.3984375 25.04711914 1.48779297 C26.74849772 4.42903193 26.54174875 6.9933319 26.55078125 10.3671875 C26.55365143 11.04390503 26.55652161 11.72062256 26.55947876 12.41784668 C26.56151772 13.84676959 26.55599944 15.27572052 26.54345703 16.70458984 C26.52739886 18.89093475 26.54330909 21.07543129 26.5625 23.26171875 C26.56051754 24.65104574 26.55667379 26.04037159 26.55078125 27.4296875 C26.54739746 28.69361328 26.54401367 29.95753906 26.54052734 31.25976562 C26.15234375 34.3984375 26.15234375 34.3984375 25.06298828 36.30908203 C22.11908917 37.98754841 19.54911065 37.78786482 16.18359375 37.796875 C15.50687622 37.79974518 14.83015869 37.80261536 14.13293457 37.80557251 C12.70401166 37.80761147 11.27506073 37.80209319 9.84619141 37.78955078 C7.6598465 37.77349261 5.47534996 37.78940284 3.2890625 37.80859375 C1.89973551 37.80661129 0.51040966 37.80276754 -0.87890625 37.796875 C-2.14283203 37.79349121 -3.40675781 37.79010742 -4.70898438 37.78662109 C-7.84765625 37.3984375 -7.84765625 37.3984375 -9.75610352 36.30908203 C-11.43628212 33.36811184 -11.25530047 30.79411932 -11.28125 27.4296875 C-11.28649185 26.75296997 -11.2917337 26.07625244 -11.2971344 25.37902832 C-11.30354983 23.95012788 -11.30222369 22.52117459 -11.29370117 21.09228516 C-11.28518423 18.90562042 -11.31396258 16.72156324 -11.34570312 14.53515625 C-11.34731512 13.14583412 -11.34673763 11.75650736 -11.34375 10.3671875 C-11.34560303 9.10326172 -11.34745605 7.83933594 -11.34936523 6.53710938 C-10.84765625 3.3984375 -10.84765625 3.3984375 -9.24462891 1.48779297 C-6.0482425 0.03512683 -3.50931204 0.00975906 0 0 Z " fill="#171717" transform="translate(349.84765625,400.6015625)"/>
<path d="M0 0 C0.65310654 -0.00145523 1.30621307 -0.00291046 1.97911072 -0.00440979 C3.35501584 -0.00275479 4.73094024 0.00876223 6.10668945 0.02954102 C8.21189915 0.05855317 10.3145973 0.05013403 12.41992188 0.03710938 C13.75912681 0.04334578 15.09832381 0.05173597 16.4375 0.0625 C17.6531665 0.07224854 18.86883301 0.08199707 20.12133789 0.09204102 C23.15234375 0.49609375 23.15234375 0.49609375 25.04711914 1.58764648 C26.74953646 4.52729663 26.54175157 7.09204183 26.55078125 10.46484375 C26.55365143 11.14156128 26.55652161 11.81827881 26.55947876 12.51550293 C26.56151772 13.94442584 26.55599944 15.37337677 26.54345703 16.80224609 C26.52739886 18.988591 26.54330909 21.17308754 26.5625 23.359375 C26.56051754 24.74870199 26.55667379 26.13802784 26.55078125 27.52734375 C26.54739746 28.79126953 26.54401367 30.05519531 26.54052734 31.35742188 C26.15234375 34.49609375 26.15234375 34.49609375 25.06298828 36.40673828 C22.11908917 38.08520466 19.54911065 37.88552107 16.18359375 37.89453125 C15.50687622 37.89740143 14.83015869 37.90027161 14.13293457 37.90322876 C12.70401166 37.90526772 11.27506073 37.89974944 9.84619141 37.88720703 C7.6598465 37.87114886 5.47534996 37.88705909 3.2890625 37.90625 C1.89973551 37.90426754 0.51040966 37.90042379 -0.87890625 37.89453125 C-2.14283203 37.89114746 -3.40675781 37.88776367 -4.70898438 37.88427734 C-7.84765625 37.49609375 -7.84765625 37.49609375 -9.75610352 36.39086914 C-11.40807461 33.5232897 -11.25486654 31.07133322 -11.28125 27.78125 C-11.28649185 27.12910019 -11.2917337 26.47695038 -11.2971344 25.80503845 C-11.30354972 24.42741314 -11.30222382 23.04973302 -11.29370117 21.67211914 C-11.28519762 19.56882674 -11.31393986 17.46825792 -11.34570312 15.36523438 C-11.34731554 14.02474039 -11.34673684 12.68424162 -11.34375 11.34375 C-11.34560303 10.12695557 -11.34745605 8.91016113 -11.34936523 7.65649414 C-10.84765625 4.49609375 -10.84765625 4.49609375 -9.24462891 2.09912109 C-6.02831971 -0.05185529 -3.85384234 -0.00586892 0 0 Z " fill="#181818" transform="translate(460.84765625,454.50390625)"/>
<path d="M0 0 C99.66 0 199.32 0 302 0 C301.67 0.99 301.34 1.98 301 3 C263.08763987 3.06861602 225.17528907 3.12150328 187.26287944 3.15319599 C182.79040585 3.15694826 178.31793239 3.16083121 173.84545898 3.16479492 C172.95504271 3.16558185 172.06462644 3.16636878 171.14722786 3.16717956 C156.71594853 3.18024551 142.28470492 3.20390587 127.8534468 3.23145839 C113.05366214 3.25947955 98.25389623 3.27616928 83.45408612 3.28226548 C74.31644941 3.28638877 65.17891367 3.2994275 56.04130802 3.3237494 C49.78149616 3.33956603 43.52173676 3.34440964 37.26190635 3.34050413 C33.64636462 3.3385762 30.03099975 3.34160127 26.4154892 3.35761642 C22.50159173 3.37482736 18.58792728 3.36899052 14.67399597 3.36076355 C13.5232319 3.36950207 12.37246784 3.3782406 11.18683213 3.38724393 C9.62079459 3.37828421 9.62079459 3.37828421 8.02311993 3.36914349 C6.66694877 3.37085223 6.66694877 3.37085223 5.28338021 3.37259549 C3 3 3 3 0 0 Z " fill="#696A6A" transform="translate(316,518)"/>
<path d="M0 0 C1.02574883 0.00848969 1.02574883 0.00848969 2.07221985 0.01715088 C4.25329024 0.03951684 6.43270878 0.08970735 8.61328125 0.140625 C10.0930752 0.16069 11.57289495 0.17894078 13.05273438 0.1953125 C16.67761885 0.23938026 20.30153881 0.30840678 23.92578125 0.390625 C23.92578125 0.720625 23.92578125 1.050625 23.92578125 1.390625 C14.02578125 1.720625 4.12578125 2.050625 -6.07421875 2.390625 C-7.40809216 5.05837182 -7.20381627 7.11346926 -7.20703125 10.09765625 C-7.20832031 11.24169922 -7.20960938 12.38574219 -7.2109375 13.56445312 C-7.20707031 14.76521484 -7.20320312 15.96597656 -7.19921875 17.203125 C-7.20308594 18.39228516 -7.20695313 19.58144531 -7.2109375 20.80664062 C-7.20964844 21.95455078 -7.20835937 23.10246094 -7.20703125 24.28515625 C-7.20590332 25.33550049 -7.20477539 26.38584473 -7.20361328 27.46801758 C-7.13225219 30.76151994 -7.13225219 30.76151994 -6.07421875 35.390625 C4.15578125 35.720625 14.38578125 36.050625 24.92578125 36.390625 C21.29308836 40.02331789 15.52328571 38.80257102 10.60449219 38.81616211 C8.56452815 38.82804492 6.52760496 38.87719504 4.48828125 38.92773438 C3.20179688 38.93482422 1.9153125 38.94191406 0.58984375 38.94921875 C-0.5914209 38.96267334 -1.77268555 38.97612793 -2.98974609 38.98999023 C-6.07421875 38.390625 -6.07421875 38.390625 -8.4597168 36.27392578 C-10.39494568 32.81784638 -10.57659988 30.64632625 -10.5703125 26.69921875 C-10.57095703 25.42498047 -10.57160156 24.15074219 -10.57226562 22.83789062 C-10.56187256 22.17958252 -10.55147949 21.52127441 -10.54077148 20.84301758 C-10.5117466 18.8300565 -10.52018698 16.81972231 -10.53320312 14.80664062 C-10.47037536 5.26165249 -10.47037536 5.26165249 -8.98925781 2.00512695 C-6.0824105 -0.44553359 -3.74850279 -0.06120005 0 0 Z " fill="#575757" transform="translate(570.07421875,346.609375)"/>
<path d="M0 0 C0.68383255 0.00424484 1.3676651 0.00848969 2.07221985 0.01286316 C4.25297686 0.02963522 6.43280434 0.06728218 8.61328125 0.10546875 C10.0930856 0.12051761 11.57290445 0.13420567 13.05273438 0.14648438 C16.67738461 0.17953306 20.30149219 0.23130429 23.92578125 0.29296875 C23.92578125 0.62296875 23.92578125 0.95296875 23.92578125 1.29296875 C14.02578125 1.62296875 4.12578125 1.95296875 -6.07421875 2.29296875 C-7.04962792 6.19460544 -7.18883262 9.24409604 -7.171875 13.24609375 C-7.17046005 13.90631531 -7.1690451 14.56653687 -7.16758728 15.24676514 C-7.1620112 17.34554669 -7.14946322 19.4442197 -7.13671875 21.54296875 C-7.13170065 22.97005054 -7.12713829 24.397134 -7.12304688 25.82421875 C-7.11204963 29.31383707 -7.09480155 32.80339231 -7.07421875 36.29296875 C-8.06421875 35.63296875 -9.05421875 34.97296875 -10.07421875 34.29296875 C-10.46240234 31.26782227 -10.46240234 31.26782227 -10.47265625 27.421875 C-10.47552643 26.74374252 -10.47839661 26.06561005 -10.48135376 25.3669281 C-10.48339597 23.93202887 -10.47785502 22.4971019 -10.46533203 21.06225586 C-10.44930324 18.86704046 -10.46516029 16.67367296 -10.484375 14.47851562 C-10.48239211 13.08463135 -10.47854747 11.69074823 -10.47265625 10.296875 C-10.46758057 8.39143921 -10.46758057 8.39143921 -10.46240234 6.44750977 C-10.07421875 3.29296875 -10.07421875 3.29296875 -8.99145508 1.37353516 C-6.00848882 -0.30768331 -3.39678333 -0.04159327 0 0 Z " fill="#454545" transform="translate(570.07421875,400.70703125)"/>
<path d="M0 0 C0.33 0 0.66 0 1 0 C1.12406007 4.03825066 1.21455045 8.07575638 1.2746582 12.11547852 C1.29972617 13.48807102 1.33379082 14.86053102 1.37719727 16.23266602 C1.43817531 18.21050696 1.46361009 20.18934184 1.48828125 22.16796875 C1.51446533 23.35672607 1.54064941 24.5454834 1.56762695 25.77026367 C0.81617395 30.04595045 -0.51129618 31.46639649 -4 34 C-7.22973633 34.56762695 -7.22973633 34.56762695 -10.83203125 34.48828125 C-12.12431641 34.47216797 -13.41660156 34.45605469 -14.74804688 34.43945312 C-16.10288157 34.39768274 -17.45769928 34.35535809 -18.8125 34.3125 C-20.18680866 34.28740069 -21.56116116 34.26459036 -22.93554688 34.24414062 C-26.29147976 34.18526461 -29.6451809 34.1030642 -33 34 C-33.33 33.34 -33.66 32.68 -34 32 C-23.77 32 -13.54 32 -3 32 C-2.67 30.35 -2.34 28.7 -2 27 C-1.505 26.505 -1.505 26.505 -1 26 C-0.84193469 24.07521187 -0.748865 22.1450079 -0.68359375 20.21484375 C-0.62075195 18.46010742 -0.62075195 18.46010742 -0.55664062 16.66992188 C-0.51732422 15.43822266 -0.47800781 14.20652344 -0.4375 12.9375 C-0.39431641 11.70193359 -0.35113281 10.46636719 -0.30664062 9.19335938 C-0.20015802 6.12902665 -0.09814576 3.06460927 0 0 Z " fill="#5D5D5C" transform="translate(431,351)"/>
<path d="M0 0 C10.56 0 21.12 0 32 0 C32 0.99 32 1.98 32 3 C27.79172527 3.05828635 23.58355511 3.093693 19.375 3.125 C17.59029297 3.15013672 17.59029297 3.15013672 15.76953125 3.17578125 C14.03896484 3.18544922 14.03896484 3.18544922 12.2734375 3.1953125 C10.68668213 3.21102295 10.68668213 3.21102295 9.06787109 3.22705078 C5.76636112 2.98270857 3.08587237 2.16882977 0 1 C0 0.67 0 0.34 0 0 Z " fill="#161515" transform="translate(452,381)"/>
<path d="M0 0 C0.33 0 0.66 0 1 0 C1.25 3.3125 1.25 3.3125 1 7 C-1.29439747 9.44376593 -2.72885777 9.96570004 -6.06860352 10.38818359 C-7.83095337 10.39325928 -7.83095337 10.39325928 -9.62890625 10.3984375 C-11.55186523 10.40423828 -11.55186523 10.40423828 -13.51367188 10.41015625 C-14.17810303 10.40387207 -14.84253418 10.39758789 -15.52709961 10.39111328 C-17.55976223 10.37502167 -19.59044501 10.39099235 -21.62304688 10.41015625 C-22.90373047 10.40628906 -24.18441406 10.40242188 -25.50390625 10.3984375 C-26.67767822 10.39505371 -27.8514502 10.39166992 -29.06079102 10.38818359 C-32 10 -32 10 -33.90600586 8.47509766 C-34.26702393 7.98831543 -34.62804199 7.5015332 -35 7 C-34.34 6.67 -33.68 6.34 -33 6 C-33 6.66 -33 7.32 -33 8 C-22.77 8 -12.54 8 -2 8 C-2 7.01 -2 6.02 -2 5 C-1.34 5 -0.68 5 0 5 C0 3.35 0 1.7 0 0 Z " fill="#50504F" transform="translate(541,375)"/>
<path d="M0 0 C0.66 0 1.32 0 2 0 C2.19220663 4.23538316 2.37093557 8.47105371 2.53710938 12.70751953 C2.59556424 14.14908142 2.65772144 15.59049807 2.72363281 17.03173828 C2.81765355 19.10161905 2.89841315 21.17165438 2.9765625 23.2421875 C3.05511475 25.11173096 3.05511475 25.11173096 3.13525391 27.01904297 C3 30 3 30 1 32 C0 31 0 31 -0.11352539 28.04077148 C-0.10828857 26.74727783 -0.10305176 25.45378418 -0.09765625 24.12109375 C-0.0962413 23.4344313 -0.09482635 22.74776886 -0.09336853 22.04029846 C-0.08775479 19.83932199 -0.07520007 17.63844591 -0.0625 15.4375 C-0.05748676 13.94856917 -0.05292355 12.45963676 -0.04882812 10.97070312 C-0.03778093 7.31376925 -0.02050713 3.65689442 0 0 Z " fill="#2B2A2A" transform="translate(339,404)"/>
<path d="M0 0 C1.4540625 0.0309375 1.4540625 0.0309375 2.9375 0.0625 C2.298125 0.371875 1.65875 0.68125 1 1 C-0.99860821 1.8970163 -0.99860821 1.8970163 -2.0625 3.0625 C-2.22108842 5.20636657 -2.31379298 7.35516838 -2.37890625 9.50390625 C-2.42080078 10.80908203 -2.46269531 12.11425781 -2.50585938 13.45898438 C-2.54567608 14.8476533 -2.58538825 16.23632522 -2.625 17.625 C-2.66817989 19.01759183 -2.711794 20.41017028 -2.75585938 21.80273438 C-2.86235876 25.22254801 -2.96436923 28.64243763 -3.0625 32.0625 C-3.3925 32.0625 -3.7225 32.0625 -4.0625 32.0625 C-4.08715504 27.66593827 -4.10533842 23.2694128 -4.11743164 18.87280273 C-4.12247121 17.37605082 -4.12930287 15.87930384 -4.13793945 14.38256836 C-4.15002159 12.23550193 -4.15573191 10.08850038 -4.16015625 7.94140625 C-4.16539307 6.6479126 -4.17062988 5.35441895 -4.17602539 4.02172852 C-4.02489031 0.08214062 -4.02489031 0.08214062 0 0 Z " fill="#0D0D0D" transform="translate(511.0625,455.9375)"/>
<path d="M0 0 C0.33 0 0.66 0 1 0 C1.042721 1.66611905 1.04063832 3.33382885 1 5 C0.67 5.33 0.34 5.66 0 6 C-0.23427778 8.01594582 -0.41336124 10.038474 -0.5625 12.0625 C-0.64628906 13.16722656 -0.73007812 14.27195313 -0.81640625 15.41015625 C-0.87699219 16.26480469 -0.93757813 17.11945313 -1 18 C-1.33 18 -1.66 18 -2 18 C-2.05397335 15.5622037 -2.09365616 13.12560315 -2.125 10.6875 C-2.14175781 9.99720703 -2.15851563 9.30691406 -2.17578125 8.59570312 C-2.21217794 4.82864604 -2.14378864 3.21568296 0 0 Z " fill="#676666" transform="translate(352,215)"/>
<path d="M0 0 C2.38672669 2.96283313 4.7353371 5.94270509 7 9 C5.35 8.67 3.7 8.34 2 8 C1.87625 7.195625 1.7525 6.39125 1.625 5.5625 C1.315625 4.2940625 1.315625 4.2940625 1 3 C0.34 2.67 -0.32 2.34 -1 2 C-0.67 1.34 -0.34 0.68 0 0 Z " fill="#D7D6D7" transform="translate(294,518)"/>
</svg>
