<svg width="128" height="128" viewBox="0 0 128 128" fill="none" xmlns="http://www.w3.org/2000/svg">
<g clip-path="url(#clip0_476_14)">
<g clip-path="url(#clip1_476_14)">
<path d="M-69 -131C18.78 -131 106.56 -131 197 -131C197 0.669998 197 132.34 197 268C109.22 268 21.44 268 -69 268C-69 136.33 -69 4.66 -69 -131Z" fill="#FCFCFC"/>
<path d="M20.0905 29.4505C20.5645 29.4478 20.5645 29.4478 21.048 29.445C21.5725 29.4444 21.5725 29.4444 22.1077 29.4438C22.4772 29.4422 22.8467 29.4406 23.2274 29.4389C24.2563 29.4347 25.2851 29.432 26.314 29.43C27.1957 29.4279 28.0774 29.4247 28.9592 29.4215C31.8648 29.4108 34.7704 29.4039 37.676 29.3981C38.4325 29.3965 39.189 29.3949 39.9456 29.3933C44.6426 29.3834 49.3397 29.3749 54.0367 29.3695C55.1251 29.3683 56.2134 29.367 57.3018 29.3657C57.5723 29.3654 57.8428 29.3651 58.1215 29.3647C62.5027 29.3593 66.8839 29.3461 71.265 29.3299C75.7623 29.3133 80.2594 29.304 84.7567 29.3017C87.2821 29.3002 89.8074 29.2955 92.3327 29.2826C94.4837 29.2716 96.6346 29.2672 98.7856 29.2712C99.8829 29.2731 100.98 29.2719 102.077 29.2622C103.268 29.2534 104.458 29.2564 105.649 29.2624C105.994 29.257 106.34 29.2516 106.695 29.2461C108.993 29.2748 110.318 29.7908 111.957 31.4135C114.086 33.6785 113.781 36.4655 113.762 39.3863C113.764 39.9369 113.767 40.4875 113.771 41.0381C113.778 42.5283 113.775 44.0184 113.77 45.5087C113.766 47.0709 113.77 48.6331 113.772 50.1953C113.775 52.8184 113.771 55.4414 113.764 58.0644C113.755 61.0937 113.758 64.1228 113.767 67.1521C113.774 69.7566 113.775 72.361 113.771 74.9655C113.768 76.5195 113.768 78.0733 113.773 79.6273C113.778 81.0885 113.775 82.5496 113.765 84.0108C113.763 84.5459 113.764 85.081 113.767 85.6161C113.799 90.865 113.799 90.865 111.957 92.7981C110.58 94.0743 109.427 94.7961 107.535 94.7968C107.223 94.7985 106.911 94.8002 106.59 94.8019C106.248 94.8004 105.906 94.799 105.554 94.7976C105.19 94.7985 104.827 94.7995 104.452 94.8006C103.228 94.8031 102.005 94.8011 100.781 94.7991C99.906 94.7996 99.0307 94.8011 98.1553 94.8025C96.0215 94.8053 93.8878 94.8047 91.754 94.8029C90.0195 94.8014 88.2851 94.8012 86.5506 94.8019C86.1805 94.8021 86.1805 94.8021 85.8029 94.8022C85.3017 94.8024 84.8004 94.8026 84.2992 94.8028C79.5965 94.8047 74.8939 94.8026 70.1912 94.7991C66.157 94.7963 62.1227 94.7968 58.0885 94.7997C53.4043 94.8031 48.7201 94.8045 44.0359 94.8025C43.5362 94.8023 43.0365 94.8021 42.5368 94.8019C42.291 94.8018 42.0451 94.8017 41.7918 94.8016C40.0601 94.8011 38.3284 94.802 36.5967 94.8035C34.4853 94.8053 32.3739 94.8048 30.2624 94.8014C29.1853 94.7997 28.1083 94.7994 27.0312 94.8012C25.863 94.8029 24.6949 94.8007 23.5267 94.7976C23.0171 94.7997 23.0171 94.7997 22.4973 94.8019C20.2935 94.7902 18.1881 94.7344 16.4429 93.2177C16.1783 92.9982 16.1783 92.9982 15.9084 92.7744C14.5994 91.177 14.3245 89.5628 14.3186 87.5447C14.3166 87.3161 14.3147 87.0875 14.3127 86.852C14.3074 86.0917 14.3089 85.3316 14.3104 84.5712C14.3081 84.0238 14.3053 83.4764 14.3022 82.929C14.2951 81.446 14.2942 79.9631 14.2948 78.4802C14.2948 77.2407 14.2921 76.0013 14.2894 74.7619C14.2833 71.8373 14.2824 68.9127 14.2845 65.9881C14.2866 62.9739 14.2793 59.9599 14.2675 56.9457C14.2577 54.3548 14.254 51.764 14.2553 49.1731C14.2559 47.6269 14.2542 46.0809 14.2464 44.5348C14.2392 43.0807 14.2398 41.6268 14.2463 40.1726C14.2474 39.6401 14.2458 39.1076 14.2412 38.575C14.1993 33.3383 14.1993 33.3383 16.0432 31.4135C17.3358 30.1607 18.2743 29.4566 20.0905 29.4505Z" fill="#FBFCFB"/>
<path d="M20.0905 29.4505C20.5645 29.4478 20.5645 29.4478 21.048 29.445C21.5725 29.4444 21.5725 29.4444 22.1077 29.4438C22.4772 29.4422 22.8467 29.4406 23.2274 29.4389C24.2563 29.4347 25.2851 29.432 26.314 29.43C27.1957 29.4279 28.0774 29.4247 28.9592 29.4215C31.8648 29.4108 34.7704 29.4039 37.676 29.3981C38.4325 29.3965 39.189 29.3949 39.9456 29.3933C44.6426 29.3834 49.3397 29.3749 54.0367 29.3695C55.1251 29.3683 56.2134 29.367 57.3018 29.3657C57.5723 29.3654 57.8428 29.3651 58.1215 29.3647C62.5027 29.3593 66.8839 29.3461 71.265 29.3299C75.7623 29.3133 80.2594 29.304 84.7567 29.3017C87.2821 29.3002 89.8074 29.2955 92.3327 29.2826C94.4837 29.2716 96.6346 29.2672 98.7856 29.2712C99.8829 29.2731 100.98 29.2719 102.077 29.2622C103.268 29.2534 104.458 29.2564 105.649 29.2624C105.994 29.257 106.34 29.2516 106.695 29.2461C108.993 29.2748 110.318 29.7908 111.957 31.4135C114.086 33.6785 113.781 36.4655 113.762 39.3863C113.764 39.9369 113.767 40.4875 113.771 41.0381C113.778 42.5283 113.775 44.0184 113.77 45.5087C113.766 47.0709 113.77 48.6331 113.772 50.1953C113.775 52.8184 113.771 55.4414 113.764 58.0644C113.755 61.0937 113.758 64.1228 113.767 67.1521C113.774 69.7566 113.775 72.361 113.771 74.9655C113.768 76.5195 113.768 78.0733 113.773 79.6273C113.778 81.0885 113.775 82.5496 113.765 84.0108C113.763 84.5459 113.764 85.081 113.767 85.6161C113.799 90.865 113.799 90.865 111.957 92.7981C110.58 94.0743 109.427 94.7961 107.535 94.7968C107.223 94.7985 106.911 94.8002 106.59 94.8019C106.248 94.8004 105.906 94.799 105.554 94.7976C105.19 94.7985 104.827 94.7995 104.452 94.8006C103.228 94.8031 102.005 94.8011 100.781 94.7991C99.906 94.7996 99.0307 94.8011 98.1553 94.8025C96.0215 94.8053 93.8878 94.8047 91.754 94.8029C90.0195 94.8014 88.2851 94.8012 86.5506 94.8019C86.1805 94.8021 86.1805 94.8021 85.8029 94.8022C85.3017 94.8024 84.8004 94.8026 84.2992 94.8028C79.5965 94.8047 74.8939 94.8026 70.1912 94.7991C66.157 94.7963 62.1227 94.7968 58.0885 94.7997C53.4043 94.8031 48.7201 94.8045 44.0359 94.8025C43.5362 94.8023 43.0365 94.8021 42.5368 94.8019C42.291 94.8018 42.0451 94.8017 41.7918 94.8016C40.0601 94.8011 38.3284 94.802 36.5967 94.8035C34.4853 94.8053 32.3739 94.8048 30.2624 94.8014C29.1853 94.7997 28.1083 94.7994 27.0312 94.8012C25.863 94.8029 24.6949 94.8007 23.5267 94.7976C23.0171 94.7997 23.0171 94.7997 22.4973 94.8019C20.2935 94.7902 18.1881 94.7344 16.4429 93.2177C16.1783 92.9982 16.1783 92.9982 15.9084 92.7744C14.5994 91.177 14.3245 89.5628 14.3186 87.5447C14.3166 87.3161 14.3147 87.0875 14.3127 86.852C14.3074 86.0917 14.3089 85.3316 14.3104 84.5712C14.3081 84.0238 14.3053 83.4764 14.3022 82.929C14.2951 81.446 14.2942 79.9631 14.2948 78.4802C14.2948 77.2407 14.2921 76.0013 14.2894 74.7619C14.2833 71.8373 14.2824 68.9127 14.2845 65.9881C14.2866 62.9739 14.2793 59.9599 14.2675 56.9457C14.2577 54.3548 14.254 51.764 14.2553 49.1731C14.2559 47.6269 14.2542 46.0809 14.2464 44.5348C14.2392 43.0807 14.2398 41.6268 14.2463 40.1726C14.2474 39.6401 14.2458 39.1076 14.2412 38.575C14.1993 33.3383 14.1993 33.3383 16.0432 31.4135C17.3358 30.1607 18.2743 29.4566 20.0905 29.4505ZM16.8678 33.9325C16.6009 34.9099 16.5999 35.8138 16.5972 36.827C16.5957 37.05 16.5943 37.273 16.5928 37.5027C16.5887 38.2498 16.5893 38.9968 16.5898 39.7439C16.5879 40.2796 16.5857 40.8153 16.5833 41.351C16.5776 42.8062 16.5761 44.2614 16.5757 45.7167C16.5751 46.9315 16.5728 48.1463 16.5705 49.3611C16.5653 52.2272 16.5637 55.0934 16.5642 57.9595C16.5646 60.9161 16.5578 63.8726 16.5477 66.8292C16.5394 69.3677 16.5359 71.9061 16.5363 74.4446C16.5365 75.9607 16.5347 77.4767 16.5279 78.9927C16.5217 80.4188 16.5217 81.8446 16.5263 83.2706C16.527 83.7936 16.5255 84.3166 16.5216 84.8396C16.5167 85.5545 16.5196 86.2689 16.5246 86.9837C16.5242 87.3834 16.5239 87.7831 16.5235 88.195C16.7633 89.8315 17.5523 90.7334 18.6194 91.9488C20.0745 92.768 21.4587 92.6535 23.1015 92.6386C23.4631 92.6404 23.8248 92.6422 24.1974 92.644C25.4119 92.6483 26.6262 92.6435 27.8406 92.6388C28.7103 92.6393 29.5799 92.6417 30.4495 92.644C32.568 92.6485 34.6864 92.6461 36.8049 92.6412C39.2719 92.6359 41.739 92.6369 44.206 92.6381C48.6081 92.64 53.0102 92.6354 57.4122 92.6275C61.6836 92.6199 65.9549 92.6176 70.2263 92.621C74.8772 92.6246 79.5282 92.6252 84.1791 92.6206C84.6751 92.6201 85.1711 92.6197 85.6672 92.6192C85.9112 92.6189 86.1552 92.6187 86.4067 92.6184C88.1262 92.6169 89.8457 92.6175 91.5652 92.6189C93.6611 92.6204 95.7569 92.6185 97.8528 92.6122C98.9221 92.609 99.9913 92.6079 101.061 92.6099C102.22 92.6118 103.379 92.6078 104.538 92.6023C104.876 92.6042 105.214 92.6062 105.562 92.6081C107.267 92.5934 108.625 92.5802 110.038 91.5192C111.17 89.9581 111.477 88.904 111.48 86.9495C111.482 86.7257 111.484 86.5019 111.486 86.2713C111.491 85.5271 111.487 84.7832 111.483 84.039C111.484 83.5032 111.487 82.9674 111.49 82.4315C111.495 80.9803 111.493 79.5292 111.489 78.0779C111.486 76.5576 111.489 75.0374 111.491 73.5171C111.493 70.9647 111.49 68.4124 111.484 65.86C111.477 62.9104 111.479 59.961 111.486 57.0115C111.492 54.477 111.493 51.9427 111.49 49.4083C111.488 47.8954 111.487 46.3826 111.492 44.8698C111.495 43.4477 111.493 42.0257 111.485 40.6037C111.484 40.0822 111.484 39.5607 111.487 39.0393C111.49 38.3266 111.486 37.6144 111.48 36.9017C111.479 36.5032 111.479 36.1047 111.478 35.6942C111.281 34.3689 110.907 33.708 110.038 32.6923C108.34 31.4603 106.557 31.5969 104.542 31.6071C104.181 31.6051 103.819 31.6032 103.446 31.6012C102.234 31.5959 101.021 31.5974 99.8084 31.5989C98.9392 31.5971 98.0701 31.5939 97.2009 31.5907C95.0847 31.584 92.9686 31.5825 90.8524 31.5831C89.1323 31.5835 87.4122 31.5823 85.692 31.5799C85.1964 31.5793 84.7008 31.5786 84.2051 31.5779C83.9584 31.5776 83.7117 31.5773 83.4575 31.5769C78.793 31.5709 74.1285 31.5712 69.4639 31.5734C65.1973 31.5752 60.9308 31.5685 56.6642 31.5579C52.2822 31.5471 47.9002 31.5423 43.5182 31.5438C41.0585 31.5445 38.5988 31.5428 36.139 31.5348C34.0451 31.5281 31.9514 31.527 29.8575 31.533C28.7894 31.536 27.7215 31.5355 26.6534 31.5297C25.4949 31.5239 24.3369 31.528 23.1784 31.5345C22.8416 31.5305 22.5049 31.5265 22.1579 31.5224C19.8096 31.5508 18.3459 31.9775 16.8678 33.9325Z" fill="#070707"/>
<path d="M87.8385 65.8224C88.4055 66.1821 88.4055 66.1821 88.9375 66.5817C89.1329 66.7136 89.3282 66.8455 89.5295 66.9813C91.1758 68.2143 92.1772 69.7321 92.7741 71.6971C93.1295 74.416 92.9547 77.0021 91.4952 79.3702C90.0628 81.2327 88.372 82.6503 86.0601 83.2067C83.1855 83.5606 80.7514 83.366 78.3871 81.6081C76.1831 79.6604 75.0552 77.757 74.7716 74.838C74.6627 71.9764 75.2552 70.4058 76.8684 68.1203C79.589 65.3379 84.1577 64.0693 87.8385 65.8224Z" fill="#FBFBFB"/>
<path d="M32.7929 43.2015C33.042 43.2025 33.2911 43.2034 33.5478 43.2044C33.8105 43.2041 34.0732 43.2038 34.3438 43.2035C35.2309 43.203 36.118 43.2048 37.0051 43.2065C37.6382 43.2066 38.2714 43.2066 38.9046 43.2064C40.6292 43.2063 42.3539 43.2082 44.0785 43.2104C45.8787 43.2124 47.679 43.2126 49.4792 43.213C52.8908 43.214 56.3024 43.2166 59.7139 43.2198C63.5968 43.2233 67.4797 43.2251 71.3625 43.2267C79.3523 43.2301 87.342 43.2357 95.3317 43.2428C95.5316 44.162 95.5316 44.162 95.6515 45.1611C94.8473 45.9653 94.356 45.8778 93.2589 45.886C93.0124 45.8846 92.7659 45.8832 92.5119 45.8817C92.1201 45.8832 92.1201 45.8832 91.7204 45.8847C90.8402 45.8873 89.9601 45.8852 89.0799 45.8832C88.4509 45.8841 87.8218 45.8852 87.1928 45.8866C85.4807 45.8896 83.7686 45.8884 82.0564 45.8864C80.268 45.8848 78.4796 45.8863 76.6912 45.8873C73.6874 45.8884 70.6836 45.8869 67.6798 45.8839C64.2027 45.8804 60.7257 45.8815 57.2486 45.885C54.2679 45.8879 51.2872 45.8883 48.3065 45.8867C46.5242 45.8857 44.7419 45.8855 42.9596 45.8876C41.2844 45.8895 39.6092 45.8882 37.9339 45.8845C37.3176 45.8837 36.7012 45.8839 36.0849 45.8853C35.2465 45.8871 34.4082 45.8849 33.5698 45.8817C33.3233 45.8831 33.0768 45.8845 32.8228 45.886C31.1427 45.8735 31.1427 45.8735 30.4303 45.1611C30.6592 43.2839 30.9435 43.2068 32.7929 43.2015Z" fill="#191818"/>
<path d="M90.004 64.5173C92.33 66.2058 94.1432 68.2722 95.012 71.0577C95.1557 71.9875 95.1798 72.8953 95.1718 73.8352C95.17 74.0873 95.1682 74.3395 95.1663 74.5993C95.0714 77.7352 93.9993 80.3618 91.8249 82.646C88.5715 85.4551 85.475 85.7127 81.3435 85.5185C79.8099 85.3609 78.654 84.7403 77.4279 83.8461C77.085 83.6087 76.7421 83.3714 76.3888 83.1268C73.7344 80.4724 72.5542 77.6675 72.4923 73.9351C72.5075 71.8716 72.7844 70.246 73.911 68.5C74.12 68.1668 74.12 68.1668 74.3331 67.8268C75.907 65.5348 78.2814 63.563 81.0259 62.8875C84.4331 62.335 87.1392 62.625 90.004 64.5173ZM78.7067 66.5817C78.3704 66.8191 78.0341 67.0565 77.6876 67.3011C75.7989 69.1478 74.8279 71.0017 74.7902 73.6553C74.8314 76.7459 75.4865 78.7138 77.6564 80.9625C79.8852 82.9322 82.0133 83.4792 84.9723 83.3603C87.4056 83.0167 89.3804 81.8182 91.0243 80.0071C92.8583 77.5261 93.2119 74.7111 92.774 71.6971C91.8132 68.8254 89.9183 66.9255 87.2465 65.5714C84.5441 64.7342 81.0062 64.8669 78.7067 66.5817Z" fill="#0E0E0E"/>
<path d="M30.75 54.4327C39.1649 54.4252 47.5798 54.4196 55.9947 54.4161C59.9016 54.4145 63.8084 54.4122 67.7153 54.4086C71.1192 54.4054 74.5231 54.4033 77.927 54.4026C79.7306 54.4022 81.5341 54.4012 83.3377 54.3989C85.0331 54.3967 86.7285 54.396 88.424 54.3965C89.0482 54.3964 89.6724 54.3958 90.2966 54.3946C91.1449 54.393 91.9932 54.3934 92.8415 54.3942C93.0919 54.3933 93.3422 54.3924 93.6002 54.3914C95.2952 54.3962 95.2952 54.3962 95.6514 54.7524C95.6914 55.5517 95.6914 55.5517 95.6514 56.351C95.0916 56.9108 94.3577 56.7115 93.6115 56.7149C93.3628 56.7144 93.1142 56.7139 92.858 56.7134C92.5957 56.7141 92.3335 56.7149 92.0633 56.7156C91.1777 56.7176 90.2921 56.7174 89.4065 56.7171C88.7744 56.7181 88.1423 56.7192 87.5102 56.7204C85.7881 56.7232 84.0661 56.7239 82.344 56.7241C80.909 56.7244 79.474 56.7256 78.0391 56.7268C74.6551 56.7294 71.2711 56.7301 67.887 56.7299C64.3902 56.7297 60.8933 56.7331 57.3965 56.7381C54.3995 56.7423 51.4025 56.744 48.4055 56.7438C46.6132 56.7438 44.8209 56.7447 43.0286 56.748C41.3437 56.7511 39.6587 56.7512 37.9738 56.7488C37.3538 56.7485 36.7339 56.7493 36.1139 56.7512C35.2706 56.7536 34.4274 56.7522 33.5841 56.7497C33.2122 56.7522 33.2122 56.7522 32.8327 56.7547C31.1427 56.7436 31.1427 56.7436 30.4303 56.0312C30.5502 55.192 30.5502 55.192 30.75 54.4327Z" fill="#101010"/>
<path d="M32.9284 72.2896C33.1953 72.2898 33.4622 72.2899 33.7372 72.2901C34.1567 72.2885 34.1567 72.2885 34.5847 72.2868C35.5141 72.2838 36.4434 72.2832 37.3728 72.2828C38.0159 72.2818 38.659 72.2807 39.3022 72.2796C40.6522 72.2777 42.0023 72.2771 43.3523 72.2773C45.0858 72.2773 46.8193 72.273 48.5528 72.2674C49.8816 72.2639 51.2104 72.2632 52.5392 72.2634C53.1785 72.263 53.8178 72.2616 54.4571 72.2591C55.3497 72.256 56.2422 72.2569 57.1349 72.2589C57.4011 72.2571 57.6674 72.2553 57.9417 72.2534C59.7708 72.2635 59.7708 72.2635 60.4832 72.9759C60.5431 73.7952 60.5431 73.7952 60.4832 74.5745C59.8949 75.1628 59.0676 74.9367 58.2845 74.9411C58.0146 74.941 57.7447 74.9408 57.4666 74.9407C57.1838 74.9417 56.901 74.9428 56.6097 74.9439C55.6699 74.947 54.7302 74.9476 53.7905 74.9479C53.1402 74.9489 52.4899 74.95 51.8396 74.9511C50.4745 74.9531 49.1094 74.9537 47.7443 74.9535C45.9914 74.9534 44.2386 74.9578 42.4857 74.9633C41.1421 74.9668 39.7985 74.9675 38.4549 74.9673C37.8084 74.9677 37.162 74.9691 36.5156 74.9716C35.613 74.9747 34.7105 74.9738 33.808 74.9719C33.5387 74.9737 33.2695 74.9755 32.9921 74.9773C31.1427 74.9672 31.1427 74.9672 30.4303 74.2548C30.6682 72.304 31.0157 72.3004 32.9284 72.2896Z" fill="#191919"/>
<path d="M30.75 63.7043C40.984 63.7043 51.2179 63.7043 61.762 63.7043C61.9203 64.4956 61.9203 64.4956 62.0817 65.3029C61.2315 66.1531 60.5988 66.0208 59.4424 66.029C59.1617 66.0277 58.881 66.0264 58.5918 66.0251C58.2965 66.0262 58.0011 66.0273 57.6969 66.0285C56.7174 66.0313 55.7379 66.0294 54.7583 66.0272C54.0798 66.0277 53.4013 66.0283 52.7228 66.0291C51.2994 66.03 49.876 66.0287 48.4526 66.0257C46.6249 66.022 44.7972 66.0241 42.9694 66.028C41.5679 66.0303 40.1664 66.0296 38.7649 66.0279C38.0908 66.0275 37.4167 66.028 36.7427 66.0295C35.8018 66.0311 34.8611 66.0286 33.9203 66.0251C33.6396 66.0264 33.3589 66.0277 33.0697 66.029C31.1428 66.0154 31.1428 66.0154 30.4303 65.3029C30.5358 64.7754 30.6413 64.2479 30.75 63.7043Z" fill="#0A0A0A"/>
<path d="M30.75 81.2885C38.8739 81.2885 46.9977 81.2885 55.3678 81.2885C55.6875 82.887 55.6875 82.887 55.3678 83.5264C52.2108 83.5412 49.0538 83.5526 45.8967 83.5596C44.4309 83.5629 42.965 83.5674 41.4992 83.5747C40.0855 83.5816 38.6717 83.5854 37.2579 83.5871C36.7177 83.5883 36.1775 83.5906 35.6372 83.594C34.8824 83.5987 34.1276 83.5993 33.3728 83.599C33.1479 83.6013 32.923 83.6036 32.6913 83.606C31.1426 83.5994 31.1426 83.5994 30.4303 82.887C30.5358 82.3595 30.6413 81.832 30.75 81.2885Z" fill="#0C0C0C"/>
<path d="M57.3298 36.4875C57.6104 36.4865 57.8909 36.4855 58.18 36.4844C58.4851 36.4851 58.7901 36.4857 59.1044 36.4864C59.4155 36.4861 59.7265 36.4858 60.0469 36.4855C60.706 36.4853 61.365 36.4858 62.024 36.4872C63.0365 36.4889 64.049 36.4872 65.0616 36.4851C65.7001 36.4854 66.3387 36.4858 66.9773 36.4864C67.2824 36.4857 67.5874 36.4851 67.9017 36.4844C68.3226 36.4859 68.3226 36.4859 68.752 36.4875C69.0002 36.4877 69.2484 36.488 69.5042 36.4883C70.0745 36.5289 70.0745 36.5289 70.3942 36.8486C70.4342 37.8077 70.4342 37.8077 70.3942 38.7668C69.9014 39.2597 69.4433 39.1296 68.757 39.133C68.3377 39.1361 68.3377 39.1361 67.9099 39.1392C67.4539 39.1397 67.4539 39.1397 66.9886 39.1403C66.5232 39.1418 66.5232 39.1418 66.0484 39.1435C65.3907 39.1451 64.733 39.1458 64.0753 39.1458C63.0663 39.1465 62.0573 39.1523 61.0483 39.1584C60.4107 39.1593 59.7732 39.1599 59.1356 39.1602C58.6805 39.1637 58.6805 39.1637 58.2162 39.1672C57.9357 39.1662 57.6551 39.1652 57.3661 39.1642C57.1186 39.1647 56.871 39.1651 56.616 39.1656C56.0072 39.0866 56.0072 39.0866 55.3678 38.4471C55.5669 36.8141 55.71 36.4891 57.3298 36.4875Z" fill="#1F1F1F"/>
</g>
</g>
<defs>
<clipPath id="clip0_476_14">
<rect width="128" height="128" fill="white"/>
</clipPath>
<clipPath id="clip1_476_14">
<rect width="266" height="399" fill="white" transform="translate(-69 -131)"/>
</clipPath>
</defs>
</svg>
