<svg width="128" height="128" viewBox="0 0 128 128" fill="none" xmlns="http://www.w3.org/2000/svg">
<g clip-path="url(#clip0_476_27)">
<g clip-path="url(#clip1_476_27)">
<path d="M-148 -249C-8.08001 -249 131.84 -249 276 -249C276 -39.12 276 170.76 276 387C136.08 387 -3.84 387 -148 387C-148 177.12 -148 -32.76 -148 -249Z" fill="#FBFBFB"/>
<path d="M40.048 29.25C55.52 29.25 70.9919 29.25 86.9327 29.25C86.9327 37.6587 86.9327 46.0673 86.9327 54.7308C75.3795 54.7512 75.3795 54.7512 70.4727 54.7557C67.1183 54.7587 63.764 54.7623 60.4096 54.7692C57.7067 54.7747 55.0039 54.7778 52.301 54.7791C51.2673 54.7801 50.2337 54.7819 49.2 54.7847C47.7575 54.7883 46.3151 54.7889 44.8726 54.7886C44.2249 54.7914 44.2249 54.7914 43.5641 54.7942C40.6158 54.7889 40.6158 54.7889 40.048 54.2212C40.0006 53.439 39.9882 52.6546 39.9902 51.871C39.9903 51.1106 39.9903 51.1106 39.9904 50.3349C39.993 49.7983 39.9956 49.2618 39.9983 48.7089C39.9988 48.2186 39.9993 47.7282 39.9998 47.223C40.0025 45.3832 40.0096 43.5435 40.0162 41.7037C40.0267 37.594 40.0372 33.4843 40.048 29.25Z" fill="#FAFAF9"/>
<path d="M19.6635 13.9615C20.168 13.9615 20.6725 13.9615 21.1923 13.9615C21.1923 30.2743 21.1923 46.5871 21.1923 63.3942C21.865 63.5624 22.5377 63.7306 23.2308 63.9039C25.1883 65.4316 25.7232 66.9217 26.3522 69.2867C26.5111 69.8654 26.6701 70.4442 26.8339 71.0405C27.4562 73.5626 27.8837 76.1243 28.3269 78.6827C29.1405 78.6707 29.1405 78.6707 29.9706 78.6584C31.9888 78.6307 34.0069 78.6132 36.0253 78.5987C36.8977 78.591 37.7701 78.5806 38.6425 78.5674C39.8987 78.5488 41.1547 78.5401 42.411 78.5334C42.9932 78.5216 42.9932 78.5216 43.5872 78.5095C45.9123 78.5088 47.3722 78.7801 49.2211 80.2115C50.4408 81.5596 51.1954 82.5559 51.3611 84.398C51.2325 86.6074 50.9143 87.6493 49.5078 89.4165C48.2019 90.4039 48.2019 90.4039 47.1827 90.4039C47.4034 91.3528 47.4034 91.3528 47.6286 92.3209C47.8198 93.1576 48.0109 93.9944 48.2019 94.8311C48.2991 95.2473 48.3964 95.6635 48.4965 96.0922C48.9599 98.1359 49.3587 100.014 49.2211 102.125C48.7166 102.125 48.2121 102.125 47.6923 102.125C46.8514 98.4252 46.0106 94.7254 45.1442 90.9135C38.5855 90.7453 32.0267 90.5771 25.2692 90.4039C24.5965 93.431 23.9238 96.4581 23.2308 99.5769C22.8944 100.418 22.5581 101.259 22.2115 102.125C21.8752 102.125 21.5388 102.125 21.1923 102.125C21.1923 105.657 21.1923 109.188 21.1923 112.827C20.6878 112.827 20.1833 112.827 19.6635 112.827C19.6635 80.2014 19.6635 47.5758 19.6635 13.9615Z" fill="#3A3939"/>
<path d="M105.279 13.9615C105.783 13.9615 106.288 13.9615 106.808 13.9615C106.808 46.5871 106.808 79.2127 106.808 112.827C106.303 112.827 105.799 112.827 105.279 112.827C105.111 101.391 104.943 89.9554 104.769 78.1731C103.76 80.9479 103.76 80.9479 102.731 83.7789C101.343 85.2004 100.521 85.7047 98.6539 86.3269C99.065 89.7905 99.9441 93.0904 100.831 96.4585C101 97.1143 101 97.1143 101.172 97.7833C101.276 98.1769 101.379 98.5706 101.486 98.9761C101.712 100.087 101.712 100.087 101.712 102.125C101.207 102.125 100.703 102.125 100.183 102.125C98.8373 97.0798 97.4919 92.0346 96.1058 86.8365C92.406 86.6684 88.7062 86.5002 84.8942 86.3269C84.7786 87.0417 84.663 87.7564 84.5439 88.4928C83.7163 93.0901 82.4897 97.6035 81.3269 102.125C80.8224 102.125 80.3179 102.125 79.7981 102.125C80.362 98.2073 81.1706 94.4025 82.1824 90.58C82.5658 89.1147 82.8558 87.8494 82.8558 86.3269C82.2987 86.2849 81.7416 86.2428 81.1677 86.1995C79.2885 85.8173 79.2885 85.8173 78.2692 84.9892C77.5202 83.2102 77.7677 82.0505 78.2692 80.2115C80.0166 78.4039 82.016 78.127 84.4444 78.0656C84.8379 78.0511 85.2314 78.0367 85.6368 78.0218C86.4542 77.9954 87.2717 77.9728 88.0893 77.9541C91.0153 77.8373 93.2503 77.3981 95.4548 75.2985C96.6141 73.1572 97.0617 70.7935 97.6436 68.4426C98.4496 65.3334 99.4018 62.1784 101.68 59.8269C102.731 59.3173 102.731 59.3173 105.279 59.3173C105.279 44.3499 105.279 29.3825 105.279 13.9615Z" fill="#3D3D3C"/>
<path d="M40.048 29.25C55.52 29.25 70.9919 29.25 86.9327 29.25C86.9327 37.6587 86.9327 46.0673 86.9327 54.7308C75.3795 54.7512 75.3795 54.7512 70.4727 54.7557C67.1183 54.7587 63.764 54.7623 60.4096 54.7692C57.7067 54.7747 55.0039 54.7778 52.301 54.7791C51.2673 54.7801 50.2337 54.7819 49.2 54.7847C47.7575 54.7883 46.3151 54.7889 44.8726 54.7886C44.2249 54.7914 44.2249 54.7914 43.5641 54.7942C40.6158 54.7889 40.6158 54.7889 40.048 54.2212C40.0006 53.439 39.9882 52.6546 39.9902 51.871C39.9903 51.1106 39.9903 51.1106 39.9904 50.3349C39.993 49.7983 39.9956 49.2618 39.9983 48.7089C39.9988 48.2186 39.9993 47.7282 39.9998 47.223C40.0025 45.3832 40.0096 43.5435 40.0162 41.7037C40.0267 37.594 40.0372 33.4843 40.048 29.25ZM42.0865 31.2885C42.0865 38.5199 42.0865 45.7513 42.0865 53.2019C43.4319 53.2019 44.7773 53.2019 46.1634 53.2019C46.1634 51.5202 46.1634 49.8385 46.1634 48.1058C48.1815 48.1058 50.1996 48.1058 52.2788 48.1058C52.2788 46.5922 52.2788 45.0787 52.2788 43.5192C52.7833 43.5192 53.2879 43.5192 53.8077 43.5192C53.7911 44.5643 53.7745 45.6095 53.7579 46.6546C53.7029 47.605 53.7029 47.605 54.3173 48.1058C55.4315 48.1428 56.5468 48.1484 57.6616 48.1376C58.2719 48.133 58.8822 48.1284 59.511 48.1237C60.2195 48.1148 60.2195 48.1148 60.9423 48.1058C60.9423 49.6193 60.9423 51.1329 60.9423 52.6923C68.8464 52.6923 76.7505 52.6923 84.8942 52.6923C84.8942 45.629 84.8942 38.5658 84.8942 31.2885C70.7677 31.2885 56.6411 31.2885 42.0865 31.2885Z" fill="#777676"/>
<path d="M21.1924 64.9231C23.5768 66.1153 23.7946 66.5928 24.7597 69C25.1898 70.5479 25.5235 72.1081 25.8426 73.6821C26.0132 74.4964 26.1843 75.3106 26.3562 76.1247C26.4292 76.4815 26.5022 76.8383 26.5774 77.206C26.8056 78.2781 26.8056 78.2781 27.3078 79.7019C27.8811 79.704 28.4543 79.7061 29.045 79.7083C31.1774 79.7194 33.3094 79.7471 35.4416 79.7797C36.3634 79.7915 37.2853 79.7989 38.2071 79.8016C39.5346 79.8063 40.8609 79.8272 42.1881 79.8512C42.5986 79.8492 43.009 79.8472 43.4319 79.8452C45.613 79.9015 46.4406 80.0265 48.2086 81.4332C49.2769 82.8325 49.5473 83.3896 49.476 85.1166C49.4708 85.5016 49.4655 85.8865 49.4601 86.2831C49.1579 87.6278 48.7766 88.0327 47.6924 88.875C46.5025 89.0589 46.5025 89.0589 45.0862 89.0486C44.5558 89.0485 44.0253 89.0484 43.4788 89.0482C42.6212 89.0364 42.6212 89.0364 41.7462 89.0243C41.1602 89.0222 40.5741 89.02 39.9704 89.0178C38.0957 89.0092 36.2214 88.99 34.3468 88.9706C33.0771 88.9629 31.8074 88.9559 30.5377 88.9497C27.4224 88.9341 24.3077 88.9042 21.1924 88.875C21.1924 80.9709 21.1924 73.0667 21.1924 64.9231Z" fill="#F7F7F7"/>
<path d="M105.279 60.8462C105.657 66.0601 105.186 70.6867 103.846 75.7524C103.646 76.5073 103.646 76.5073 103.443 77.2774C101.846 82.9912 101.846 82.9912 99.8685 84.3411C98.1696 84.9803 96.5269 84.9537 94.7362 84.9514C94.1709 84.9547 94.1709 84.9547 93.5941 84.958C92.7992 84.9609 92.0042 84.9612 91.2092 84.959C89.9945 84.9574 88.7804 84.9693 87.5657 84.9823C86.792 84.9834 86.0183 84.9838 85.2446 84.9832C84.8825 84.9879 84.5204 84.9926 84.1473 84.9975C82.0423 84.9778 80.8182 84.7565 79.2885 83.2693C79.4594 82.0296 79.6905 81.3512 80.5306 80.4106C82.8669 79.1428 85.5386 79.4799 88.147 79.478C91.148 79.4127 93.6544 78.9981 96.1058 77.1539C97.0295 75.8596 97.6036 74.5691 98.1442 73.077C98.3452 72.5301 98.3452 72.5301 98.5503 71.9721C99.1024 70.3807 99.5938 68.7823 100.035 67.1567C101.777 60.8462 101.777 60.8462 105.279 60.8462Z" fill="#F5F5F4"/>
<path d="M105.279 13.9615C105.783 13.9615 106.288 13.9615 106.808 13.9615C106.808 46.5871 106.808 79.2127 106.808 112.827C106.303 112.827 105.799 112.827 105.279 112.827C105.279 100.887 105.279 88.9464 105.279 76.6442C104.774 76.4761 104.27 76.3079 103.75 76.1346C103.823 75.4125 103.897 74.6906 103.973 73.9688C104.014 73.5667 104.056 73.1647 104.098 72.7505C104.26 71.5481 104.26 71.5481 104.514 70.5766C107.012 60.1156 105.338 47.3686 105.314 36.6671C105.309 34.1009 105.306 31.5346 105.304 28.9683C105.298 23.9661 105.29 18.9638 105.279 13.9615Z" fill="#303030"/>
<path d="M42.0865 66.4519C56.3813 66.4519 70.676 66.4519 85.4039 66.4519C85.4039 66.9564 85.4039 67.4609 85.4039 67.9808C78.5088 67.9808 71.6137 67.9808 64.5096 67.9808C64.5096 78.7438 64.5096 89.5069 64.5096 100.596C66.864 100.596 69.2185 100.596 71.6442 100.596C71.6442 101.101 71.6442 101.605 71.6442 102.125C66.4309 102.125 61.2175 102.125 55.8462 102.125C55.8462 101.62 55.8462 101.116 55.8462 100.596C58.2006 100.596 60.555 100.596 62.9808 100.596C62.9808 89.8331 62.9808 79.07 62.9808 67.9808C56.0857 67.9808 49.1906 67.9808 42.0865 67.9808C42.0865 67.4762 42.0865 66.9717 42.0865 66.4519Z" fill="#2C2C2B"/>
<path d="M40.5576 29.7596C55.6932 29.7596 70.8288 29.7596 86.423 29.7596C86.423 37.832 86.423 45.9043 86.423 54.2212C80.0324 54.2212 73.6419 54.2212 67.0576 54.2212C67.3099 53.7167 67.3099 53.7167 67.5672 53.202C73.4533 53.202 79.3394 53.202 85.4038 53.202C85.4038 45.8023 85.4038 38.4027 85.4038 30.7789C71.1091 30.947 56.8143 31.1152 42.0865 31.2885C42.0865 38.8563 42.0865 46.4241 42.0865 54.2212C41.5819 54.2212 41.0774 54.2212 40.5576 54.2212C40.5576 46.1489 40.5576 38.0766 40.5576 29.7596Z" fill="#232322"/>
<path d="M76.7403 37.4038C78.301 38.646 78.301 38.646 79.2884 39.9519C79.4566 40.1201 79.6248 40.2883 79.798 40.4615C79.9932 42.1207 80.1428 43.4487 79.2645 44.9266C77.6553 46.8814 76.8343 47.5358 74.3197 47.7872C72.6122 47.7748 71.7212 47.4718 70.402 46.3858C69.0091 44.9589 68.647 44.5612 68.4272 42.6274C68.6261 40.5589 69.3488 39.5274 70.625 37.9134C72.5166 36.9676 74.6809 37.1027 76.7403 37.4038Z" fill="#353333"/>
<path d="M40.048 29.25C55.52 29.25 70.9919 29.25 86.9327 29.25C86.9327 37.6587 86.9327 46.0673 86.9327 54.7308C75.3795 54.7512 75.3795 54.7512 70.4727 54.7557C67.1183 54.7587 63.764 54.7623 60.4096 54.7692C57.7067 54.7747 55.0039 54.7778 52.301 54.7791C51.2673 54.7801 50.2337 54.7819 49.2 54.7847C47.7575 54.7883 46.3151 54.7889 44.8726 54.7886C44.2249 54.7914 44.2249 54.7914 43.5641 54.7942C40.6158 54.7889 40.6158 54.7889 40.048 54.2212C40.0006 53.439 39.9882 52.6546 39.9902 51.871C39.9903 51.1106 39.9903 51.1106 39.9904 50.3349C39.993 49.7983 39.9956 49.2618 39.9983 48.7089C39.9988 48.2186 39.9993 47.7282 39.9998 47.223C40.0025 45.3832 40.0096 43.5435 40.0162 41.7037C40.0267 37.594 40.0372 33.4843 40.048 29.25ZM40.5577 29.7596C40.5577 37.8319 40.5577 45.9042 40.5577 54.2212C41.3144 53.9689 41.3144 53.9689 42.0865 53.7115C42.0865 53.5434 42.0865 53.3752 42.0865 53.2019C43.4319 53.2019 44.7773 53.2019 46.1634 53.2019C46.3316 53.5383 46.4998 53.8746 46.673 54.2212C59.7905 54.2212 72.908 54.2212 86.423 54.2212C86.423 46.1488 86.423 38.0765 86.423 29.7596C71.2875 29.7596 56.1519 29.7596 40.5577 29.7596Z" fill="#6A6969"/>
<path d="M20.1731 13.9615C20.5094 13.9615 20.8458 13.9615 21.1923 13.9615C21.1976 14.585 21.2028 15.2084 21.2082 15.8507C21.258 21.7151 21.3103 27.5794 21.3653 33.4437C21.3934 36.4589 21.4206 39.4741 21.4458 42.4893C21.47 45.3971 21.4967 48.3049 21.5251 51.2126C21.5355 52.3241 21.545 53.4355 21.5537 54.547C21.5659 56.0992 21.5812 57.6514 21.5973 59.2036C21.6002 59.6669 21.6032 60.1303 21.6062 60.6076C21.564 62.8355 21.564 62.8355 22.2116 64.9231C21.8752 64.9231 21.5389 64.9231 21.1923 64.9231C21.195 65.3174 21.1977 65.7117 21.2004 66.118C21.2469 74.0618 21.1996 81.9657 20.6827 89.8942C20.5145 89.8942 20.3464 89.8942 20.1731 89.8942C20.1731 64.8365 20.1731 39.7787 20.1731 13.9615Z" fill="#212121"/>
<path d="M19.6635 13.9615C19.8316 13.9615 19.9998 13.9615 20.1731 13.9615C20.1752 14.3494 20.1774 14.7373 20.1796 15.1369C20.2324 24.5975 20.2878 34.0582 20.346 43.5188C20.3741 48.094 20.4013 52.6692 20.4265 57.2444C20.4485 61.2346 20.4721 65.2248 20.4976 69.215C20.5111 71.3255 20.5238 73.4361 20.5344 75.5466C20.5445 77.5381 20.5568 79.5295 20.5708 81.5209C20.5755 82.2471 20.5795 82.9732 20.5825 83.6994C20.5225 92.0191 20.5225 92.0191 22.2115 100.087C22.2115 100.759 22.2115 101.432 22.2115 102.125C21.8752 102.125 21.5388 102.125 21.1923 102.125C21.1923 105.657 21.1923 109.188 21.1923 112.827C20.6878 112.827 20.1833 112.827 19.6635 112.827C19.6635 80.2014 19.6635 47.5758 19.6635 13.9615Z" fill="#373738"/>
<path d="M20.6828 79.7019C20.8509 79.7019 21.0191 79.7019 21.1924 79.7019C21.1924 82.729 21.1924 85.7561 21.1924 88.875C33.5531 89.1272 33.5531 89.1272 46.1635 89.3846C45.9954 89.7209 45.8272 90.0573 45.6539 90.4038C38.927 90.4038 32.2001 90.4038 25.2693 90.4038C24.5966 93.4309 23.9239 96.4581 23.2308 99.5769C22.8945 100.25 22.5581 100.922 22.2116 101.615C19.4074 94.5438 20.1968 87.1327 20.6828 79.7019Z" fill="#303030"/>
<path d="M64 67.9807C64.1682 67.9807 64.3364 67.9807 64.5097 67.9807C64.5097 78.7438 64.5097 89.5069 64.5097 100.596C66.8641 100.596 69.2185 100.596 71.6443 100.596C71.6443 101.101 71.6443 101.605 71.6443 102.125C66.4309 102.125 61.2175 102.125 55.8462 102.125C55.8462 101.62 55.8462 101.116 55.8462 100.596C58.2006 100.596 60.555 100.596 62.9808 100.596C63.3172 89.833 63.6535 79.0699 64 67.9807Z" fill="#393939"/>
<path d="M74.479 38.455C76.2308 38.9327 76.2308 38.9327 77.2182 39.506C78.1017 41.0652 77.9744 42.28 77.7597 44.0289C76.9634 45.2711 76.9634 45.2711 75.7212 46.0673C73.9057 46.3221 73.9057 46.3221 72.1539 46.0673C70.6986 44.8937 70.6343 44.103 70.4021 42.2452C70.6251 40.4616 70.6251 40.4616 71.4213 39.1875C72.6635 38.4231 72.6635 38.4231 74.479 38.455Z" fill="#F6F5F2"/>
<path d="M47.6924 49.6346C51.3922 49.6346 55.092 49.6346 58.9039 49.6346C58.9039 50.8119 58.9039 51.9891 58.9039 53.202C55.2041 53.202 51.5043 53.202 47.6924 53.202C47.6924 52.0247 47.6924 50.8475 47.6924 49.6346Z" fill="#F2F1F0"/>
<path d="M21.1924 63.3942C23.154 63.6745 24.0057 64.4433 25.2693 65.9423C25.8785 67.505 25.8785 67.505 26.3522 69.2867C26.5112 69.8654 26.6702 70.4442 26.834 71.0404C27.4221 73.5685 27.8627 76.129 28.327 78.6827C34.3812 78.6827 40.4355 78.6827 46.6732 78.6827C46.6732 78.8509 46.6732 79.019 46.6732 79.1923C40.1144 79.3605 33.5557 79.5286 26.7982 79.7019C24.7597 72.0577 24.7597 72.0577 24.2501 69.4778C23.8173 67.4115 22.9703 66.0908 21.702 64.4135C21.5338 64.0771 21.3657 63.7408 21.1924 63.3942Z" fill="#424241"/>
<path d="M85.4038 85.3077C89.2718 85.3077 93.1398 85.3077 97.125 85.3077C99.4204 90.4725 99.4204 90.4725 99.9199 92.5001C100.082 93.1539 100.082 93.1539 100.248 93.8209C100.353 94.2594 100.457 94.6979 100.565 95.1497C100.677 95.598 100.79 96.0464 100.905 96.5083C101.386 98.4735 101.712 100.083 101.712 102.125C101.207 102.125 100.702 102.125 100.183 102.125C98.8373 97.0799 97.4919 92.0347 96.1057 86.8366C92.5741 86.5002 89.0425 86.1639 85.4038 85.8174C85.4038 85.6492 85.4038 85.481 85.4038 85.3077Z" fill="#484747"/>
<path d="M95.0866 76.6442C95.0866 77.1487 95.0866 77.6533 95.0866 78.1731C91.9625 80.1115 89.0413 79.9348 85.4895 79.9707C82.9086 80.0244 82.9086 80.0244 80.5028 80.8645C79.5851 81.8177 79.5851 81.8177 79.7981 83.7788C79.2936 83.6107 78.7891 83.4425 78.2693 83.2692C78.1419 81.8359 78.1419 81.8359 78.2693 80.2115C80.1569 78.2565 82.3418 78.1183 84.944 78.0477C85.4364 78.0309 85.9288 78.0142 86.436 77.9969C87.4698 77.9657 88.5036 77.9365 89.5375 77.9093C90.2751 77.8832 90.2751 77.8832 91.0276 77.8566C91.7006 77.8374 91.7006 77.8374 92.3873 77.8179C93.6976 77.7325 93.6976 77.7325 95.0866 76.6442Z" fill="#313130"/>
<path d="M21.1923 90.4039C21.865 90.4039 22.5377 90.4039 23.2307 90.4039C23.2307 91.5811 23.2307 92.7583 23.2307 93.9712C23.5671 93.9712 23.9034 93.9712 24.25 93.9712C23.7454 96.4938 23.2409 99.0164 22.7211 101.615C21.1136 99.2041 21.1305 97.5078 21.1604 94.6719C21.1627 94.2633 21.165 93.8547 21.1674 93.4337C21.1734 92.4237 21.1825 91.4138 21.1923 90.4039Z" fill="#4C4D4E"/>
<path d="M104.769 76.6442C104.937 76.6442 105.106 76.6442 105.279 76.6442C105.279 88.5845 105.279 100.525 105.279 112.827C105.111 112.827 104.943 112.827 104.769 112.827C104.764 112.442 104.759 112.057 104.753 111.66C104.703 108.031 104.651 104.402 104.596 100.773C104.568 98.9073 104.541 97.0415 104.516 95.1758C104.491 93.3749 104.465 91.5741 104.437 89.7732C104.421 88.7525 104.408 87.7317 104.395 86.711C104.385 86.0887 104.375 85.4665 104.364 84.8254C104.356 84.2777 104.348 83.73 104.34 83.1657C104.309 81.7798 104.309 81.7798 103.968 80.6318C103.622 79.1551 104.237 78.0217 104.769 76.6442Z" fill="#D3D3D5"/>
<path d="M103.24 76.1346C103.745 76.3028 104.249 76.471 104.769 76.6443C104.289 79.8393 103.791 82.2778 101.712 84.7981C100.183 85.8173 100.183 85.8173 98.1443 85.8173C98.3965 85.0606 98.3965 85.0606 98.6539 84.2885C98.9778 84.1459 99.3016 84.0034 99.6353 83.8565C101.136 83.0229 101.285 82.1036 101.807 80.4982C101.972 80.0049 102.137 79.5115 102.307 79.0032C102.447 78.5611 102.587 78.119 102.731 77.6635C102.899 77.159 103.067 76.6545 103.24 76.1346Z" fill="#40403F"/>
<path d="M71.6443 37.4038C71.9806 37.572 72.317 37.7402 72.6635 37.9134C72.4113 38.2603 72.159 38.6071 71.8991 38.9645C70.9608 40.8021 70.9491 41.9877 71.1347 44.0288C71.5835 45.2283 71.5835 45.2283 72.1539 46.0673C71.6494 46.2354 71.1449 46.4036 70.6251 46.5769C69.3616 45.2344 68.6448 44.3706 68.3318 42.5318C68.6515 40.5736 69.403 39.4589 70.6251 37.9134C70.9614 37.7453 71.2977 37.5771 71.6443 37.4038Z" fill="#3D3B3A"/>
<path d="M52.2788 43.5192C52.7833 43.6874 53.2878 43.8556 53.8076 44.0288C53.4713 44.0288 53.1349 44.0288 52.7884 44.0288C52.7884 45.5424 52.7884 47.056 52.7884 48.6154C54.9746 48.7836 57.1609 48.9517 59.4134 49.125C59.4134 50.4704 59.4134 51.8158 59.4134 53.2019C59.2452 53.2019 59.077 53.2019 58.9038 53.2019C58.9038 52.0247 58.9038 50.8475 58.9038 49.6346C55.0358 49.6346 51.1678 49.6346 47.1826 49.6346C47.1826 49.1301 47.1826 48.6256 47.1826 48.1058C48.8643 48.1058 50.5461 48.1058 52.2788 48.1058C52.2788 46.5922 52.2788 45.0786 52.2788 43.5192Z" fill="#5C5A5B"/>
<path d="M105.279 57.7885C105.852 59.6995 105.852 59.6995 105.279 60.8461C104.711 60.988 104.711 60.988 104.132 61.1328C101.95 62.2735 101.227 64.2916 100.183 66.4519C99.8463 66.4519 99.51 66.4519 99.1635 66.4519C99.3515 62.7528 99.3515 62.7528 100.947 60.878C101.368 60.5311 101.788 60.1843 102.221 59.8269C102.389 59.6587 102.557 59.4906 102.731 59.3173C103.58 59.2966 104.43 59.2955 105.279 59.3173C105.279 58.8128 105.279 58.3083 105.279 57.7885Z" fill="#393838"/>
<path d="M52.7884 44.0288C53.1248 44.0288 53.4611 44.0288 53.8077 44.0288C53.9758 45.206 54.144 46.3832 54.3173 47.5961C56.5035 47.7643 58.6898 47.9325 60.9423 48.1057C60.9423 49.7875 60.9423 51.4692 60.9423 53.2019C60.7741 53.2019 60.6059 53.2019 60.4327 53.2019C60.4327 52.1928 60.4327 51.1838 60.4327 50.1442C60.0963 50.1442 59.76 50.1442 59.4134 50.1442C59.4134 49.8078 59.4134 49.4715 59.4134 49.125C57.059 49.125 54.7046 49.125 52.2788 49.125C52.447 47.4432 52.6152 45.7615 52.7884 44.0288Z" fill="#2E2E2E"/>
<path d="M85.4038 85.3077C89.2718 85.3077 93.1398 85.3077 97.125 85.3077C98.1442 87.3462 98.1442 87.3462 98.1442 88.875C97.6397 88.875 97.1352 88.875 96.6153 88.875C96.4472 88.2024 96.279 87.5297 96.1057 86.8366C92.5741 86.5002 89.0425 86.1639 85.4038 85.8174C85.4038 85.6492 85.4038 85.481 85.4038 85.3077Z" fill="#2F2E2D"/>
<path d="M79.2885 44.0288C78.5752 45.7525 77.8969 46.7192 76.2308 47.5961C74.463 47.7925 72.759 47.8987 71.1346 47.0865C71.1346 46.7502 71.1346 46.4138 71.1346 46.0673C71.4362 46.0482 71.7377 46.0292 72.0484 46.0095C74.6284 45.7949 77.0182 44.0288 79.2885 44.0288Z" fill="#383636"/>
<path d="M98.6538 64.9231C98.822 65.4276 98.9902 65.9321 99.1635 66.4519C99.4998 66.4519 99.8362 66.4519 100.183 66.4519C99.8005 70.4015 99.8005 70.4015 98.6538 71.5481C98.3175 71.3799 97.9812 71.2118 97.6346 71.0385C97.4664 71.543 97.2983 72.0475 97.125 72.5673C97.406 69.8976 97.8534 67.4847 98.6538 64.9231Z" fill="#4F4E4D"/>
<path d="M20.1731 90.4039C20.3413 90.4039 20.5094 90.4039 20.6827 90.4039C20.7077 90.8289 20.7326 91.2539 20.7584 91.6918C20.985 95.1032 21.3691 98.3016 22.2116 101.615C21.5389 101.615 20.8662 101.615 20.1731 101.615C20.1731 97.9156 20.1731 94.2158 20.1731 90.4039Z" fill="#272727"/>
<path d="M21.1924 90.4039C21.8651 90.4039 22.5378 90.4039 23.2308 90.4039C22.9498 93.0736 22.5025 95.4865 21.702 98.0481C21.5338 98.0481 21.3657 98.0481 21.1924 98.0481C21.1924 95.5255 21.1924 93.0029 21.1924 90.4039Z" fill="#D9DBDE"/>
<path d="M99.1634 96.0096C99.4998 96.0096 99.8361 96.0096 100.183 96.0096C100.442 96.6449 100.696 97.2824 100.947 97.9207C101.089 98.2754 101.231 98.6302 101.377 98.9957C101.712 100.087 101.712 100.087 101.712 102.125C101.207 102.125 100.702 102.125 100.183 102.125C99.524 100.026 99.0297 98.2171 99.1634 96.0096Z" fill="#323334"/>
<path d="M85.4038 84.7981C89.6081 84.7981 93.8125 84.7981 98.1442 84.7981C98.3124 85.3026 98.4805 85.8071 98.6538 86.3269C98.3175 86.6633 97.9811 86.9996 97.6346 87.3462C97.4664 86.6735 97.2982 86.0008 97.125 85.3077C93.257 85.3077 89.389 85.3077 85.4038 85.3077C85.4038 85.1395 85.4038 84.9714 85.4038 84.7981Z" fill="#595857"/>
<path d="M77.7596 39.9519C78.7687 40.2042 78.7687 40.2042 79.7981 40.4615C79.7981 41.6387 79.7981 42.8159 79.7981 44.0288C78.9572 44.3652 78.1163 44.7015 77.25 45.0481C77.4182 43.3663 77.5863 41.6846 77.7596 39.9519Z" fill="#41403F"/>
<path d="M82.3462 78.1731C83.6916 78.1731 85.037 78.1731 86.4231 78.1731C86.4231 78.3413 86.4231 78.5094 86.4231 78.6827C88.273 78.8509 90.1229 79.0191 92.0289 79.1923C92.0289 79.3605 92.0289 79.5287 92.0289 79.7019C89.0018 79.7019 85.9747 79.7019 82.8558 79.7019C82.6876 79.1974 82.5195 78.6929 82.3462 78.1731Z" fill="#4D4D4E"/>
<path d="M47.1827 79.1923C48.8931 79.9001 49.768 80.6788 50.75 82.25C50.75 82.5864 50.75 82.9227 50.75 83.2692C50.2455 83.4374 49.741 83.6056 49.2212 83.7789C48.9899 83.3794 48.7587 82.98 48.5205 82.5685C47.7513 81.2119 47.7513 81.2119 46.6731 80.2116C46.8413 79.8752 47.0094 79.5389 47.1827 79.1923Z" fill="#3B3A3A"/>
<path d="M102.221 82.25C102.389 82.7545 102.558 83.259 102.731 83.7788C100.438 85.8173 100.438 85.8173 98.1443 85.8173C98.3125 85.3128 98.4806 84.8083 98.6539 84.2885C99.6629 84.1203 100.672 83.9521 101.712 83.7788C101.88 83.2743 102.048 82.7698 102.221 82.25Z" fill="#363737"/>
<path d="M104.769 76.6442C104.937 76.6442 105.106 76.6442 105.279 76.6442C105.279 78.9986 105.279 81.3531 105.279 83.7788C103.75 81.7404 103.75 81.7404 103.877 79.9249C104.26 78.1731 104.26 78.1731 104.769 76.6442Z" fill="#CCCDD0"/>
<path d="M46.6731 48.1057C47.9112 49.9628 47.7748 51.0168 47.6923 53.2019C48.0287 53.37 48.365 53.5382 48.7116 53.7115C48.0389 53.8797 47.3662 54.0478 46.6731 54.2211C46.6731 52.203 46.6731 50.1849 46.6731 48.1057Z" fill="#292A29"/>
<path d="M71.6442 37.4038C71.9805 37.572 72.3169 37.7402 72.6634 37.9134C72.3008 38.4495 72.3008 38.4495 71.9309 38.9964C71.09 40.5435 70.8269 41.7823 70.625 43.5192C70.4568 43.5192 70.2886 43.5192 70.1154 43.5192C70.1154 41.8205 70.1154 40.1218 70.1154 38.423C70.6199 38.0867 71.1244 37.7503 71.6442 37.4038Z" fill="#555351"/>
<path d="M80.8173 96.0096C81.3646 98.1989 81.3643 99.8838 81.3269 102.125C80.8224 102.125 80.3179 102.125 79.7981 102.125C80.1344 100.107 80.4708 98.0889 80.8173 96.0096Z" fill="#4B4B4A"/>
<path d="M22.7212 96.0096C23.3635 97.2941 23.1894 97.9738 23.0079 99.3858C22.93 100.011 22.93 100.011 22.8506 100.648C22.8079 100.967 22.7652 101.286 22.7212 101.615C21.824 100.27 21.4333 99.5901 21.1924 98.0481C21.3606 97.5436 21.5287 97.0391 21.702 96.5193C22.0383 96.3511 22.3747 96.1829 22.7212 96.0096Z" fill="#3D3D3E"/>
<path d="M77.7596 81.2308C77.8753 81.5461 77.9909 81.8614 78.11 82.1863C78.9722 83.5822 79.7943 83.8045 81.327 84.2885C80.8224 84.5407 80.8224 84.5407 80.3077 84.7981C80.3077 85.1344 80.3077 85.4708 80.3077 85.8173C79.3203 85.5307 79.3203 85.5307 78.2693 84.7981C77.887 82.9507 77.887 82.9507 77.7596 81.2308Z" fill="#494748"/>
<path d="M21.7019 90.9135C22.2064 90.9135 22.7109 90.9135 23.2308 90.9135C22.8944 92.427 22.5581 93.9406 22.2115 95.5C22.0433 95.5 21.8752 95.5 21.7019 95.5C21.7019 93.9864 21.7019 92.4729 21.7019 90.9135Z" fill="#F9F9FA"/>
<path d="M27.3077 75.625C28.052 76.9742 28.3269 77.6097 28.3269 79.1923C27.8224 79.3605 27.3179 79.5287 26.7981 79.7019C26.4796 78.5234 26.4796 78.5234 26.2885 77.1538C26.6248 76.6493 26.9611 76.1448 27.3077 75.625Z" fill="#444544"/>
<path d="M79.2885 44.0288C78.7016 45.2865 78.2449 46.0916 77.25 47.0865C76.7455 46.9183 76.241 46.7502 75.7212 46.5769C78.1419 44.0288 78.1419 44.0288 79.2885 44.0288Z" fill="#272728"/>
</g>
</g>
<defs>
<clipPath id="clip0_476_27">
<rect width="128" height="128" fill="white"/>
</clipPath>
<clipPath id="clip1_476_27">
<rect width="424" height="636" fill="white" transform="translate(-148 -249)"/>
</clipPath>
</defs>
</svg>
