<svg width="128" height="128" viewBox="0 0 128 128" fill="none" xmlns="http://www.w3.org/2000/svg">
<g clip-path="url(#clip0_476_2)">
<g clip-path="url(#clip1_476_2)">
<path d="M-73 -140C17.09 -140 107.18 -140 200 -140C200 -5.03 200 129.94 200 269C109.91 269 19.82 269 -73 269C-73 134.03 -73 -0.939994 -73 -140Z" fill="#FDFDFD"/>
<path d="M38.3669 30.3332C38.7002 30.3258 38.7001 30.3258 39.0401 30.3183C39.7901 30.3023 40.5402 30.2888 41.2903 30.2754C41.826 30.2648 42.3617 30.2541 42.8974 30.2434C47.8034 30.1486 52.7101 30.0939 57.6168 30.0501C60.9152 30.02 64.2124 29.9776 67.5102 29.9042C70.3872 29.8402 73.2635 29.7995 76.1413 29.7866C77.6638 29.7791 79.1842 29.7603 80.706 29.7136C89.923 29.4426 89.923 29.4426 92.3293 31.0396C93.8253 32.5216 94.7378 34.1878 95.5697 36.1037C96.2824 37.5945 97.2783 38.8849 98.2607 40.2074C100.129 42.8671 101.967 45.5473 103.788 48.2396C105.047 50.0967 106.342 51.9011 107.756 53.6454C108.125 54.3405 108.125 54.3405 108.117 55.1522C107.701 56.2265 107.12 56.771 106.279 57.5563C105.256 58.5367 104.265 59.5084 103.347 60.5878C102.518 61.5553 101.65 62.4588 100.742 63.353C99.8415 64.2405 98.9793 65.1363 98.1582 66.0977C97.0659 67.3713 95.883 68.5436 94.6889 69.7202C93.6154 70.7836 92.6147 71.8856 91.6342 73.0336C90.7433 74.0352 89.7791 74.9607 88.8246 75.9012C88.1874 76.5468 87.5907 77.2064 87.002 77.8957C86.0546 79.0004 85.0439 80.0292 84.0078 81.0501C82.9991 82.044 82.0128 83.0424 81.0957 84.1225C80.0502 85.3483 78.919 86.4733 77.7734 87.6046C76.1014 89.2558 76.1014 89.2558 74.5332 91.0047C73.1935 92.5849 71.6955 94.0107 70.2237 95.4664C68.4776 97.1999 66.8635 99.0127 65.2842 100.898C64.4844 101.533 64.4844 101.533 63.5308 101.493C62.3336 101.153 61.9971 100.811 61.2236 99.8533C59.9058 98.2979 58.5141 96.8585 57.0605 95.429C55.6272 94.0122 54.2353 92.5928 52.9346 91.0521C51.9559 89.9558 50.8972 88.9391 49.8513 87.9072C48.7504 86.816 47.718 85.6908 46.7131 84.5104C45.9437 83.6506 45.1262 82.8428 44.3047 82.0333C43.3029 81.046 42.3226 80.0553 41.4131 78.9813C40.1256 77.4712 38.7014 76.1008 37.291 74.7068C36.0894 73.5144 34.9444 72.299 33.8496 71.0071C32.9736 70.0153 32.0182 69.1038 31.0759 68.1754C30.4316 67.5227 29.8276 66.8553 29.2314 66.1591C28.3394 65.1193 27.3972 64.1515 26.4219 63.1891C25.2533 62.0343 24.1394 60.8605 23.0765 59.6085C22.6268 59.0921 22.1605 58.5901 21.6871 58.0953C21.4156 57.8093 21.144 57.5233 20.8643 57.2286C20.4842 56.8364 20.4842 56.8364 20.0965 56.4362C19.423 55.5012 19.4175 55.1398 19.5313 54.0128C19.8655 53.3685 19.8655 53.3685 20.3375 52.7467C20.5112 52.513 20.685 52.2793 20.864 52.0386C21.0536 51.7911 21.2432 51.5436 21.4385 51.2886C21.8355 50.7556 22.2319 50.2222 22.6279 49.6884C22.8267 49.4221 23.0255 49.1559 23.2303 48.8816C24.0262 47.8031 24.786 46.7023 25.54 45.5944C25.8322 45.1672 26.1244 44.74 26.4168 44.3129C26.5718 44.0865 26.7268 43.86 26.8865 43.6266C29.4289 39.9265 31.9949 36.241 34.6045 32.5878C34.738 32.4009 34.8714 32.2139 35.009 32.0212C36.1505 30.4308 36.3669 30.3742 38.3669 30.3332Z" fill="#101011"/>
<path d="M45.4531 56.3069C57.4723 56.3069 69.4916 56.3069 81.875 56.3069C80.7679 59.6242 80.7679 59.6242 80.2549 60.7542C80.0887 61.1236 80.0887 61.1236 79.9191 61.5005C79.8066 61.7468 79.694 61.9931 79.5781 62.2469C79.3524 62.7461 79.1268 63.2454 78.9014 63.7447C78.8028 63.961 78.7043 64.1774 78.6027 64.4003C78.3347 65.0008 78.0738 65.6046 77.8156 66.2093C77.221 67.5989 76.5967 68.9745 75.9713 70.3504C75.7123 70.9213 75.4533 71.4922 75.1943 72.0632C75.0596 72.36 74.9249 72.6567 74.7861 72.9625C74.0811 74.5157 73.3773 76.0694 72.6734 77.6231C72.5335 77.9318 72.3936 78.2406 72.2495 78.5588C71.0602 81.1839 69.8715 83.8091 68.6885 86.437C68.5188 86.8138 68.3491 87.1906 68.1743 87.5788C67.0461 90.0958 65.9562 92.6268 64.9295 95.187C64.2259 96.9099 64.2259 96.9099 63.5 97.2724C62.8591 95.8322 62.2183 94.392 61.5774 92.9518C61.4615 92.6917 61.3456 92.4315 61.2262 92.1635C60.9912 91.6348 60.7571 91.1057 60.5238 90.5762C59.9609 89.3011 59.3864 88.0425 58.7422 86.8057C58.0519 85.4458 57.4777 84.0659 56.926 82.6452C56.6331 81.9275 56.3088 81.2468 55.9531 80.5585C55.4682 79.6199 55.0619 78.6765 54.6816 77.6909C54.0635 76.1061 53.3168 74.6093 52.5283 73.1028C51.9956 71.9962 51.5457 70.8758 51.0955 69.734C50.376 67.9487 49.6031 66.1858 48.8357 64.4206C48.5485 63.7595 48.2623 63.098 47.9762 62.4364C47.7911 62.0096 47.6059 61.5829 47.4206 61.1562C47.1728 60.5851 47.1728 60.5851 46.92 60.0024C46.5933 59.2754 46.2471 58.5568 45.8839 57.8473C45.4531 56.9623 45.4531 56.9623 45.4531 56.3069Z" fill="#FDFDFD"/>
<path d="M84.5 56.3069C90.8886 56.3069 97.2772 56.3069 103.859 56.3069C102.586 58.003 101.444 59.4574 99.9424 60.895C98.8554 61.9568 97.7889 63.0129 96.8047 64.1723C95.6645 65.512 94.4161 66.7307 93.1647 67.9653C92.0565 69.0638 91.0157 70.1965 90.0038 71.3848C89.0295 72.4779 87.9722 73.4879 86.9302 74.5161C86.254 75.2002 85.6172 75.8955 84.9922 76.6258C84.1075 77.6594 83.1717 78.6196 82.2031 79.5753C81.2481 80.5177 80.3249 81.4626 79.4551 82.4839C78.2991 83.8354 77.0394 85.0696 75.7742 86.3177C74.667 87.4152 73.6275 88.5471 72.6157 89.7335C71.393 91.1073 70.0603 92.3777 68.75 93.6675C68.2027 94.2133 67.6558 94.7594 67.1094 95.3061C67.5251 94.0136 67.9903 92.7702 68.5385 91.5283C68.6874 91.1902 68.8363 90.8522 68.9898 90.5039C69.2264 89.9711 69.2264 89.9711 69.4678 89.4275C69.6308 89.059 69.7938 88.6905 69.9618 88.3108C70.9749 86.0278 72.0096 83.7576 73.0771 81.4994C73.8458 79.8689 74.5878 78.2262 75.333 76.5848C78.685 69.2074 78.685 69.2074 79.6191 67.3881C80.2211 66.203 80.7113 64.9863 81.197 63.7498C81.5786 62.7809 81.9702 61.8168 82.3672 60.8541C82.4924 60.549 82.6176 60.244 82.7466 59.9298C83.2873 58.702 83.8994 57.5066 84.5 56.3069Z" fill="#FAFAFA"/>
<path d="M23.4688 56.3069C29.8573 56.3069 36.2459 56.3069 42.8281 56.3069C44.3583 59.3635 45.8285 62.3189 47.1143 65.4627C48.5087 68.8107 49.9728 72.12 51.4824 75.4173C51.5861 75.6439 51.6898 75.8704 51.7967 76.1038C52.2156 77.0186 52.6345 77.9334 53.0536 78.848C54.3226 81.62 55.5668 84.403 56.8104 87.1863C57.0516 87.7254 57.0516 87.7254 57.2977 88.2754C57.4521 88.6216 57.6065 88.9678 57.7657 89.3245C58.11 90.0821 58.4601 90.834 58.8202 91.584C59.0038 91.969 59.1875 92.3541 59.3766 92.7509C59.5456 93.0995 59.7146 93.4481 59.8886 93.8073C60.052 94.2248 60.052 94.2248 60.2188 94.6506C60.1105 94.8669 60.0022 95.0832 59.8906 95.3061C59.2818 94.651 58.6735 93.9955 58.0654 93.3397C57.8969 93.1585 57.7283 92.9773 57.5547 92.7905C56.6307 91.7932 55.7246 90.7849 54.8367 89.7552C53.6308 88.372 52.3417 87.0859 51.0312 85.8021C49.4996 84.3016 48.0242 82.7831 46.6317 81.1518C46.0976 80.5451 45.5385 79.9768 44.9609 79.4115C44.1758 78.6412 43.4411 77.8501 42.7256 77.015C41.8188 75.9627 40.8639 74.9797 39.875 74.004C38.6985 72.8431 37.5949 71.6524 36.5207 70.3978C35.6259 69.394 34.6598 68.4647 33.7021 67.5212C32.8525 66.6604 32.0694 65.7553 31.2822 64.838C30.6183 64.0948 29.9208 63.3969 29.2109 62.6975C27.8826 61.3865 26.6469 60.0211 25.4375 58.601C24.7878 57.8439 24.1381 57.0869 23.4688 56.3069Z" fill="#FAFAFA"/>
<path d="M63.1719 33.3662C64.4241 33.8728 65.1309 34.6403 66.0225 35.6398C66.1661 35.8004 66.3098 35.9611 66.4578 36.1266C67.6469 37.4665 68.779 38.8501 69.9048 40.2433C70.8663 41.4108 71.8566 42.5505 72.8516 43.6895C74.8493 45.9795 76.7951 48.3054 78.6783 50.6908C79.0324 51.1388 79.0324 51.1388 79.3936 51.5959C79.6029 51.8637 79.8123 52.1316 80.028 52.4075C80.5198 53.0613 80.5198 53.0613 81.2187 53.3574C81.2187 53.5737 81.2187 53.79 81.2187 54.0128C69.7409 54.0128 58.2631 54.0128 46.4375 54.0128C47.1101 52.6693 47.9364 51.6662 48.9189 50.5513C49.2786 50.138 49.6379 49.7245 49.9969 49.3108C50.2622 49.0053 50.2622 49.0053 50.5328 48.6936C51.2056 47.911 51.8579 47.1129 52.5078 46.3113C53.634 44.9257 54.7869 43.5666 55.9531 42.2148C58.4408 39.3288 60.8495 36.3869 63.1719 33.3662Z" fill="#F8F8F8"/>
<path d="M38.8906 32.7107C46.0372 32.7107 53.1837 32.7107 60.5469 32.7107C59.9553 34.1879 59.604 34.7628 58.5576 35.865C57.2339 37.2926 55.9917 38.7634 54.7662 40.2752C53.7659 41.4988 52.742 42.7014 51.7173 43.9047C50.7493 45.0436 49.7987 46.1947 48.8574 47.3559C47.4521 49.0819 45.9744 50.7352 44.4687 52.3742C43.7531 51.1108 43.3796 49.7435 42.9717 48.3595C42.8898 48.0837 42.8079 47.8078 42.7235 47.5236C42.4274 46.5194 42.1351 45.5143 41.8437 44.5088C41.7827 44.2982 41.7217 44.0876 41.6588 43.8707C41.2518 42.4644 40.848 41.0573 40.4471 39.6493C40.3121 39.1758 40.1766 38.7024 40.0405 38.2292C39.8477 37.5577 39.6573 36.8856 39.4674 36.2132C39.3562 35.8225 39.245 35.4317 39.1305 35.0291C38.8906 34.0216 38.8906 34.0216 38.8906 32.7107Z" fill="#F9F9F9"/>
<path d="M66.7812 32.7107C74.0361 32.7107 81.2909 32.7107 88.7656 32.7107C88.2955 34.8235 87.7987 36.895 87.2275 38.9784C87.1437 39.2858 87.0599 39.5931 86.9735 39.9097C86.2326 42.5966 85.4261 45.262 84.5895 47.9206C84.128 49.4011 83.714 50.8302 83.5156 52.3742C82.0778 51.8544 81.2618 50.7268 80.3164 49.5885C80.1413 49.3811 79.9662 49.1736 79.7858 48.9599C78.6115 47.5633 77.4684 46.1435 76.3366 44.7123C75.3119 43.4476 74.2454 42.22 73.1814 40.9882C71.8949 39.4961 70.6406 37.9818 69.3998 36.4514C68.8075 35.7302 68.199 35.0281 67.5811 34.3288C66.7812 33.3661 66.7812 33.3661 66.7812 32.7107Z" fill="#F9F9F9"/>
<path d="M36.2656 34.3494C37.379 35.2195 37.543 36.1841 37.8652 37.5242C38.3106 39.3161 38.8108 41.0736 39.3828 42.8292C40.0616 44.9314 40.602 47.0474 41.0747 49.205C41.2864 50.1585 41.5121 51.0546 41.8809 51.9607C42.1719 52.7019 42.1719 52.7019 42.1719 54.0128C35.7833 54.0128 29.3947 54.0128 22.8125 54.0128C23.3582 52.6502 23.8064 51.8338 24.6659 50.6933C26.0129 48.8814 27.3098 47.0403 28.5957 45.1848C29.0515 44.5288 29.5074 43.873 29.9633 43.2171C30.1915 42.8888 30.4196 42.5605 30.6547 42.2223C31.7499 40.6476 32.8484 39.0752 33.9482 37.5037C34.1441 37.2232 34.34 36.9427 34.5418 36.6538C34.7211 36.3977 34.9004 36.1417 35.0851 35.8779C35.2425 35.653 35.3998 35.4281 35.5619 35.1964C35.9375 34.6771 35.9375 34.6771 36.2656 34.3494Z" fill="#F6F6F5"/>
<path d="M90.7344 34.3494C90.9509 34.3494 91.1675 34.3494 91.3906 34.3494C91.9111 35.0631 92.3926 35.777 92.8672 36.5205C93.1652 36.9776 93.4639 37.4341 93.7631 37.8903C93.9911 38.2381 93.9911 38.2381 94.2237 38.5928C94.876 39.5716 95.5605 40.5253 96.251 41.4774C97.7702 43.579 99.238 45.7138 100.698 47.8567C101.831 49.5194 102.98 51.1675 104.163 52.7954C104.516 53.3574 104.516 53.3574 104.516 54.0128C98.127 54.0128 91.7384 54.0128 85.1562 54.0128C85.8909 50.3441 85.8909 50.3441 86.3918 48.7961C86.9597 47.0044 87.5078 45.2083 88.0427 43.4066C88.1217 43.141 88.2007 42.8754 88.2821 42.6017C88.5255 41.7832 88.7686 40.9646 89.0117 40.146C89.1796 39.5812 89.3475 39.0164 89.5154 38.4517C89.922 37.0843 90.3282 35.7169 90.7344 34.3494Z" fill="#F6F6F5"/>
</g>
</g>
<defs>
<clipPath id="clip0_476_2">
<rect width="128" height="128" fill="white"/>
</clipPath>
<clipPath id="clip1_476_2">
<rect width="273" height="409" fill="white" transform="translate(-73 -140)"/>
</clipPath>
</defs>
</svg>
