<?xml version="1.0" encoding="UTF-8"?>
<svg version="1.1" xmlns="http://www.w3.org/2000/svg" width="1024" height="1024">
<path d="M0 0 C337.92 0 675.84 0 1024 0 C1024 337.92 1024 675.84 1024 1024 C686.08 1024 348.16 1024 0 1024 C0 686.08 0 348.16 0 0 Z " fill="#FEFEFE" transform="translate(0,0)"/>
<path d="M0 0 C0.72304321 0.00126892 1.44608643 0.00253784 2.19104004 0.00384521 C30.05772166 0.09654518 57.72613128 3.64533742 84.0625 13.1875 C84.81772949 13.45224121 85.57295898 13.71698242 86.35107422 13.98974609 C115.09590897 24.11583233 141.23651173 38.2011656 165.0625 57.1875 C165.63742187 57.64527832 166.21234375 58.10305664 166.8046875 58.57470703 C181.5303693 70.44601561 195.71390023 84.02944056 207.0625 99.1875 C208.14712264 100.59375986 209.23175935 102.00000885 210.31640625 103.40625 C224.27869869 121.72067348 235.21563781 141.5992907 244.25 162.75 C244.55897217 163.46865234 244.86794434 164.18730469 245.1862793 164.92773438 C250.20913205 176.95589916 253.8478481 189.29310964 256.6875 202 C256.83591339 202.66391754 256.98432678 203.32783508 257.13723755 204.01187134 C271.81323579 270.28577629 260.21001921 341.38389589 224.125 399.0625 C218.53881381 407.76485759 212.50339961 416.09987706 206.0625 424.1875 C205.61003906 424.75710449 205.15757812 425.32670898 204.69140625 425.91357422 C191.74271408 442.01968299 176.86451337 457.12193206 160.0625 469.1875 C159.40185547 469.6712207 158.74121094 470.15494141 158.06054688 470.65332031 C125.79196094 494.26411605 89.44463248 510.70658384 50.0625 518.1875 C49.07830078 518.38069824 48.09410156 518.57389648 47.08007812 518.77294922 C32.00619378 521.62785156 17.2377333 522.55864918 1.9375 522.5625 C1.12927795 522.56440338 0.32105591 522.56630676 -0.51165771 522.56826782 C-40.4965491 522.55758185 -80.68169357 512.96144805 -116.04785156 494.1875 C-117.96900455 493.17082782 -119.90101738 492.17768401 -121.8359375 491.1875 C-148.25213575 477.55462281 -174.88218703 457.17951499 -193.9375 434.1875 C-195.11119141 432.86298828 -195.11119141 432.86298828 -196.30859375 431.51171875 C-209.27109817 416.80597268 -219.90636701 400.55197862 -228.9375 383.1875 C-229.46633789 382.19121582 -229.46633789 382.19121582 -230.00585938 381.17480469 C-243.77495628 355.19951962 -252.51790253 327.18379772 -256.52734375 298.06884766 C-256.81417222 296.05387763 -257.13185732 294.04316809 -257.47265625 292.03662109 C-259.08000731 282.17164647 -259.25296295 272.5264046 -259.1875 262.5625 C-259.18439819 261.72334045 -259.18129639 260.88418091 -259.17810059 260.01959229 C-259.09375192 240.56517548 -257.27845996 222.16897847 -252.9375 203.1875 C-252.7420459 202.30787598 -252.5465918 201.42825195 -252.34521484 200.52197266 C-241.06588693 150.59370065 -212.58422774 100.30660359 -172.9375 67.1875 C-171.95652344 66.31867188 -170.97554688 65.44984375 -169.96484375 64.5546875 C-133.06842656 31.94564486 -86.74986999 10.40358276 -38.1875 2.5 C-37.45571533 2.38043945 -36.72393066 2.26087891 -35.9699707 2.13769531 C-24.0359382 0.31368769 -12.05278411 -0.02192934 0 0 Z " fill="#FDFDFD" transform="translate(509.9375,250.8125)"/>
<path d="M0 0 C0.72304321 0.00126892 1.44608643 0.00253784 2.19104004 0.00384521 C30.05772166 0.09654518 57.72613128 3.64533742 84.0625 13.1875 C84.81772949 13.45224121 85.57295898 13.71698242 86.35107422 13.98974609 C115.09590897 24.11583233 141.23651173 38.2011656 165.0625 57.1875 C165.63742187 57.64527832 166.21234375 58.10305664 166.8046875 58.57470703 C181.5303693 70.44601561 195.71390023 84.02944056 207.0625 99.1875 C208.14712264 100.59375986 209.23175935 102.00000885 210.31640625 103.40625 C224.27869869 121.72067348 235.21563781 141.5992907 244.25 162.75 C244.55897217 163.46865234 244.86794434 164.18730469 245.1862793 164.92773438 C250.20913205 176.95589916 253.8478481 189.29310964 256.6875 202 C256.83591339 202.66391754 256.98432678 203.32783508 257.13723755 204.01187134 C271.81323579 270.28577629 260.21001921 341.38389589 224.125 399.0625 C218.53881381 407.76485759 212.50339961 416.09987706 206.0625 424.1875 C205.61003906 424.75710449 205.15757812 425.32670898 204.69140625 425.91357422 C191.74271408 442.01968299 176.86451337 457.12193206 160.0625 469.1875 C159.40185547 469.6712207 158.74121094 470.15494141 158.06054688 470.65332031 C125.79196094 494.26411605 89.44463248 510.70658384 50.0625 518.1875 C49.07830078 518.38069824 48.09410156 518.57389648 47.08007812 518.77294922 C32.00619378 521.62785156 17.2377333 522.55864918 1.9375 522.5625 C1.12927795 522.56440338 0.32105591 522.56630676 -0.51165771 522.56826782 C-40.4965491 522.55758185 -80.68169357 512.96144805 -116.04785156 494.1875 C-117.96900455 493.17082782 -119.90101738 492.17768401 -121.8359375 491.1875 C-148.25213575 477.55462281 -174.88218703 457.17951499 -193.9375 434.1875 C-195.11119141 432.86298828 -195.11119141 432.86298828 -196.30859375 431.51171875 C-209.27109817 416.80597268 -219.90636701 400.55197862 -228.9375 383.1875 C-229.46633789 382.19121582 -229.46633789 382.19121582 -230.00585938 381.17480469 C-243.77495628 355.19951962 -252.51790253 327.18379772 -256.52734375 298.06884766 C-256.81417222 296.05387763 -257.13185732 294.04316809 -257.47265625 292.03662109 C-259.08000731 282.17164647 -259.25296295 272.5264046 -259.1875 262.5625 C-259.18439819 261.72334045 -259.18129639 260.88418091 -259.17810059 260.01959229 C-259.09375192 240.56517548 -257.27845996 222.16897847 -252.9375 203.1875 C-252.7420459 202.30787598 -252.5465918 201.42825195 -252.34521484 200.52197266 C-241.06588693 150.59370065 -212.58422774 100.30660359 -172.9375 67.1875 C-171.95652344 66.31867188 -170.97554688 65.44984375 -169.96484375 64.5546875 C-133.06842656 31.94564486 -86.74986999 10.40358276 -38.1875 2.5 C-37.45571533 2.38043945 -36.72393066 2.26087891 -35.9699707 2.13769531 C-24.0359382 0.31368769 -12.05278411 -0.02192934 0 0 Z M-46.125 19.375 C-47.1754248 19.59003174 -48.22584961 19.80506348 -49.30810547 20.02661133 C-94.68369427 29.66543901 -135.5267555 52.17903127 -168.9375 84.1875 C-169.81341797 85.01459473 -169.81341797 85.01459473 -170.70703125 85.85839844 C-180.57556232 95.2127271 -188.9771637 105.17609225 -196.9375 116.1875 C-197.61296875 117.10144531 -198.2884375 118.01539063 -198.984375 118.95703125 C-204.12008369 126.05985772 -208.57459162 133.59445023 -212.9375 141.1875 C-213.30633301 141.82510254 -213.67516602 142.46270508 -214.05517578 143.11962891 C-229.78921735 170.61769979 -238.68373215 200.92577818 -242.9375 232.1875 C-243.0413501 232.88963623 -243.1452002 233.59177246 -243.25219727 234.31518555 C-244.25144754 241.83837857 -244.13648289 249.42490663 -244.125 257 C-244.12439575 257.73426208 -244.1237915 258.46852417 -244.12316895 259.22503662 C-244.09693887 270.98154762 -243.67196056 282.54682513 -241.9375 294.1875 C-241.73616455 295.55841797 -241.73616455 295.55841797 -241.53076172 296.95703125 C-232.29233346 358.09639698 -200.34909753 416.21377227 -150.9375 454.1875 C-150.39287109 454.60854004 -149.84824219 455.02958008 -149.28710938 455.46337891 C-113.57982281 482.90508988 -72.51736093 499.9049058 -27.9375 506.1875 C-26.05877197 506.45228149 -26.05877197 506.45228149 -24.14208984 506.72241211 C-19.99549117 507.23226886 -15.90481128 507.34831124 -11.73046875 507.35546875 C-10.97180511 507.35970352 -10.21314148 507.36393829 -9.43148804 507.36830139 C-6.99593461 507.37812029 -4.56056958 507.37823397 -2.125 507.375 C-1.29225555 507.37439575 -0.45951111 507.3737915 0.39846802 507.37316895 C12.40018696 507.34945899 24.19262217 507.11050904 36.0625 505.1875 C36.9066748 505.05859375 37.75084961 504.9296875 38.62060547 504.796875 C65.0483245 500.69675842 90.55884477 492.72589766 114.20800781 480.16113281 C116.01858042 479.21055836 117.84458253 478.30057311 119.6796875 477.3984375 C135.90378338 469.2885761 150.59996768 458.28065981 164.0625 446.1875 C164.58279785 445.72214844 165.1030957 445.25679687 165.63916016 444.77734375 C175.60783881 435.84053748 184.71397184 426.67737143 193.0625 416.1875 C193.92602114 415.13714668 194.79063435 414.08769037 195.65625 413.0390625 C210.99690037 394.25663519 221.61988407 373.28902915 231.20507812 351.15820312 C231.99285037 349.34758309 232.80205262 347.54632655 233.61328125 345.74609375 C256.48248573 289.59017655 252.20211724 222.27570416 229.73974609 166.92822266 C219.13871381 141.93488311 205.04621924 119.51100722 187.0625 99.1875 C186.30324219 98.31738281 185.54398438 97.44726562 184.76171875 96.55078125 C175.92700631 86.5548455 166.60168801 77.37563838 156.0625 69.1875 C155.49466797 68.73793945 154.92683594 68.28837891 154.34179688 67.82519531 C133.65771354 51.48808778 110.88711644 39.44387354 86.33837891 30.05859375 C84.36013472 29.30141983 82.38843032 28.52720242 80.41796875 27.75 C70.20986528 23.87503783 59.72457435 21.43561595 49.0625 19.1875 C48.15757812 18.98705078 47.25265625 18.78660156 46.3203125 18.58007812 C32.10016027 15.50844468 18.11891993 14.81602818 3.625 14.8125 C2.78754242 14.81059662 1.95008484 14.80869324 1.08724976 14.80673218 C-14.85272062 14.81083664 -30.49305017 16.1737692 -46.125 19.375 Z " fill="#050505" transform="translate(509.9375,250.8125)"/>
<path d="M0 0 C1.16088135 0.37463379 1.16088135 0.37463379 2.34521484 0.75683594 C28.87452392 9.40413118 53.76853501 20.98585383 76 38 C76.57266602 38.43135254 77.14533203 38.86270508 77.73535156 39.30712891 C86.64829254 46.03234801 94.94994947 53.26771462 103 61 C103.8971875 61.8559375 104.794375 62.711875 105.71875 63.59375 C111.63837324 69.3672097 116.89263396 75.5037117 122 82 C122.77988281 82.96292969 123.55976562 83.92585938 124.36328125 84.91796875 C164.00530412 134.80242816 181.44965663 199.75084157 175.12744141 262.91064453 C172.44361374 285.37959788 167.31675822 308.31679675 158 329 C157.27032995 330.67686438 156.54121501 332.35397037 155.8125 334.03125 C145.46554038 357.59576287 132.16928276 378.78995552 115 398 C114.53174805 398.52464844 114.06349609 399.04929687 113.58105469 399.58984375 C104.6445153 409.55588222 95.47075957 418.63227842 85 427 C84.24332031 427.63550781 83.48664063 428.27101563 82.70703125 428.92578125 C63.37491331 444.99706002 41.23039806 456.69354903 18 466 C16.99283936 466.41088867 15.98567871 466.82177734 14.94799805 467.24511719 C7.23097642 470.32051822 -0.49568388 472.65811909 -8.5625 474.625 C-9.77615234 474.92422363 -10.98980469 475.22344727 -12.24023438 475.53173828 C-22.41232386 477.97813922 -32.59523165 479.89181905 -43 481 C-44.28934448 481.1381311 -44.28934448 481.1381311 -45.60473633 481.27905273 C-54.62348461 482.13823846 -63.63448704 482.28437825 -72.6875 482.3125 C-73.4992569 482.31511841 -74.31101379 482.31773682 -75.14736938 482.32043457 C-89.43417683 482.32534395 -103.00021099 480.93958824 -117 478 C-118.55941016 477.70574774 -120.11928409 477.41393882 -121.6796875 477.125 C-167.20784809 468.300313 -208.85561142 443.91454113 -242 412 C-242.52368164 411.49823242 -243.04736328 410.99646484 -243.58691406 410.47949219 C-250.60242763 403.72461689 -257.05559464 396.7348889 -263 389 C-263.42104004 388.45537109 -263.84208008 387.91074219 -264.27587891 387.34960938 C-275.60986588 372.60177091 -285.14789387 356.85659625 -293 340 C-293.34160156 339.26749023 -293.68320312 338.53498047 -294.03515625 337.78027344 C-309.33150329 304.71815064 -316.18246173 269.76066802 -316.3125 233.375 C-316.31511841 232.66366913 -316.31773682 231.95233826 -316.32043457 231.2194519 C-316.32602057 216.88757641 -314.6880282 203.08334774 -312 189 C-311.85046875 188.17048828 -311.7009375 187.34097656 -311.546875 186.48632812 C-304.94399928 150.26221825 -288.00479404 116.26004882 -266 87 C-265.51370117 86.34999023 -265.02740234 85.69998047 -264.52636719 85.03027344 C-251.63189089 67.99450548 -236.32192872 52.52349593 -219 40 C-217.88730645 39.17022794 -216.77533486 38.33948692 -215.6640625 37.5078125 C-154.91551879 -7.4609799 -72.45828021 -23.79424685 0 0 Z M-223 63 C-223.8971875 63.78503906 -224.794375 64.57007813 -225.71875 65.37890625 C-256.4802678 92.67500615 -277.97310548 128.17240235 -291 167 C-291.38792725 168.13187744 -291.38792725 168.13187744 -291.78369141 169.28662109 C-303.04091393 202.8398533 -304.64646594 242.27750543 -297.75 276.8125 C-297.41512573 278.50669067 -297.41512573 278.50669067 -297.07348633 280.23510742 C-289.54331375 317.32484671 -273.43785392 352.98702274 -249 382 C-248.5167627 382.58330078 -248.03352539 383.16660156 -247.53564453 383.76757812 C-237.67470278 395.66616974 -227.24654085 406.49918041 -215 416 C-214.40558105 416.4655127 -213.81116211 416.93102539 -213.19873047 417.41064453 C-203.86276903 424.69672778 -194.35299381 431.24913285 -184 437 C-183.22027832 437.43699219 -182.44055664 437.87398437 -181.63720703 438.32421875 C-160.60710438 450.01625168 -138.51131662 458.35904606 -114.9375 463.1875 C-114.18331787 463.34250977 -113.42913574 463.49751953 -112.65209961 463.65722656 C-98.78165214 466.34608112 -85.21586584 467.35225457 -71.125 467.25 C-70.33263947 467.24623352 -69.54027893 467.24246704 -68.72390747 467.23858643 C-57.38592297 467.17546513 -46.17448299 467.10473533 -35 465 C-34.01870117 464.81695313 -33.03740234 464.63390625 -32.02636719 464.4453125 C3.57683729 457.58510539 38.06747635 444.17274836 67 422 C68.14709968 421.1405773 69.29423564 420.28120302 70.44140625 419.421875 C82.27271891 410.44542682 93.55193373 400.48798967 103 389 C103.8146875 388.07316406 104.629375 387.14632813 105.46875 386.19140625 C127.35381663 361.22404605 142.3738807 331.6493978 152 300 C152.36738281 298.83210938 152.73476563 297.66421875 153.11328125 296.4609375 C162.49326998 264.37340849 163.20051239 229.81637198 158 197 C157.80664062 195.70707031 157.61328125 194.41414062 157.4140625 193.08203125 C151.09305477 156.75675953 134.26028264 122.71034284 111.9375 93.6875 C111.35959717 92.93388184 110.78169434 92.18026367 110.1862793 91.40380859 C106.86533722 87.15077966 103.38847879 83.25594251 99.52026367 79.49438477 C97.79032409 77.79389333 96.23006551 75.99603634 94.6875 74.125 C82.0540184 59.56721325 65.44592119 47.8593366 49 38 C48.19240234 37.5153125 47.38480469 37.030625 46.55273438 36.53125 C17.58617493 19.40552432 -13.63990729 9.66413582 -47 6 C-47.86020752 5.90501221 -48.72041504 5.81002441 -49.60668945 5.7121582 C-112.96186543 -0.69109155 -175.51356907 21.24630596 -223 63 Z " fill="#F9F9F7" transform="translate(582,276)"/>
<path d="M0 0 C29.61375942 -0.77081528 60.56361011 2.19860624 88.35693359 13.078125 C89.66283447 13.58255127 89.66283447 13.58255127 90.99511719 14.09716797 C126.53874234 27.96449928 160.89903172 49.24174933 185.35693359 79.078125 C186.09943359 79.93277344 186.84193359 80.78742188 187.60693359 81.66796875 C226.02939506 126.39411531 246.40149123 186.53449118 242.11376953 245.41748047 C241.44220697 253.00746718 240.46995368 260.54138901 239.35693359 268.078125 C239.22834961 268.98336914 239.09976562 269.88861328 238.96728516 270.82128906 C232.65008134 313.755771 211.58158185 354.94045492 181.90771484 386.375 C179.47299612 388.95513071 177.13140302 391.59714152 174.79443359 394.265625 C160.8996295 409.61792603 143.42385868 422.08278699 125.35693359 432.078125 C124.66374023 432.47306152 123.97054688 432.86799805 123.25634766 433.27490234 C106.08741463 443.03084236 87.54757442 450.37253077 68.35693359 455.078125 C67.55610352 455.27889648 66.75527344 455.47966797 65.93017578 455.68652344 C7.03773706 470.32900273 -54.40865299 460.65235452 -106.79418945 430.04614258 C-130.06091074 415.99517828 -151.97221246 397.56682836 -168.64306641 376.078125 C-169.1085791 375.48370605 -169.5740918 374.88928711 -170.05371094 374.27685547 C-177.34203398 364.93802409 -183.84646384 355.40685583 -189.64306641 345.078125 C-190.19341553 344.1188208 -190.19341553 344.1188208 -190.75488281 343.14013672 C-197.71129807 330.96113316 -202.78773042 318.2150152 -207.64306641 305.078125 C-208.06458984 303.98113281 -208.48611328 302.88414062 -208.92041016 301.75390625 C-212.62806095 291.55414402 -214.51105481 280.69583731 -216.64306641 270.078125 C-216.82708008 269.19656738 -217.01109375 268.31500977 -217.20068359 267.40673828 C-228.10223251 212.34484845 -213.22266417 150.75513252 -182.44140625 104.49023438 C-180.24328766 101.30071461 -177.96734789 98.17660839 -175.64306641 95.078125 C-174.97259277 94.17658691 -174.97259277 94.17658691 -174.28857422 93.25683594 C-167.61833321 84.34877469 -160.33666792 76.11040303 -152.64306641 68.078125 C-151.93408203 67.32789063 -151.22509766 66.57765625 -150.49462891 65.8046875 C-145.26920653 60.40863909 -139.52908957 55.73273016 -133.64306641 51.078125 C-132.64275391 50.27246094 -131.64244141 49.46679688 -130.61181641 48.63671875 C-93.95601181 19.43604022 -46.92143887 1.38692596 0 0 Z M-31.64306641 19.078125 C-32.53026367 19.26536133 -33.41746094 19.45259766 -34.33154297 19.64550781 C-73.73133563 28.21196668 -109.1612081 47.07826144 -137.91845703 75.38867188 C-139.59422607 77.03028028 -141.2943998 78.64207807 -143.00244141 80.25 C-171.06994243 107.01688312 -189.40637127 142.71322247 -198.64306641 180.078125 C-198.92537109 181.06683594 -199.20767578 182.05554688 -199.49853516 183.07421875 C-207.62384424 212.15210152 -206.40405819 243.72278564 -200.64306641 273.078125 C-200.41876953 274.22740479 -200.41876953 274.22740479 -200.18994141 275.39990234 C-199.24348131 280.0325178 -198.01151741 284.55610928 -196.64306641 289.078125 C-196.39105469 289.93341797 -196.13904297 290.78871094 -195.87939453 291.66992188 C-189.49048322 313.04990453 -180.68410919 333.86357895 -167.64306641 352.078125 C-166.92763672 353.08359375 -166.21220703 354.0890625 -165.47509766 355.125 C-151.65408864 374.00963533 -135.63308294 391.31740679 -116.64306641 405.078125 C-115.58861328 405.85414063 -114.53416016 406.63015625 -113.44775391 407.4296875 C-105.20754841 413.3213332 -96.60423827 418.37182457 -87.64306641 423.078125 C-86.94004395 423.449375 -86.23702148 423.820625 -85.51269531 424.203125 C-35.4353955 450.25372305 22.73869187 453.75328791 76.2487793 437.12255859 C103.5071267 428.30167878 128.82843571 415.14622313 150.35693359 396.078125 C151.15486328 395.38847656 151.95279297 394.69882812 152.77490234 393.98828125 C185.87736277 364.88548218 210.63248524 326.70090056 221.10693359 283.640625 C221.38670044 282.50028809 221.38670044 282.50028809 221.67211914 281.33691406 C222.29948853 278.59326364 222.84007796 275.84495842 223.35693359 273.078125 C223.48328186 272.40304901 223.60963013 271.72797302 223.73980713 271.03244019 C226.05434095 258.30766519 226.83184364 245.88268176 226.74804688 232.9597168 C226.73192301 230.01369097 226.7480283 227.06903244 226.76708984 224.12304688 C226.78568576 208.12614124 225.08266037 192.68105699 220.66943359 177.265625 C220.41452148 176.36021973 220.15960937 175.45481445 219.89697266 174.52197266 C213.64005426 152.85449599 205.30422952 131.68119902 192.35693359 113.078125 C191.62087891 111.99660156 190.88482422 110.91507812 190.12646484 109.80078125 C156.6989556 61.32852307 106.08971274 29.10294296 48.35693359 18.078125 C21.77915607 13.25563926 -5.23201336 13.45855696 -31.64306641 19.078125 Z " fill="#060606" transform="translate(500.64306640625,280.921875)"/>
<path d="M0 0 C4.25195219 1.36628108 7.67407821 4.21324975 11.22827148 6.84326172 C13.00925787 8.12617984 14.7905156 9.40872134 16.57202148 10.69091797 C17.47823242 11.34979004 18.38444336 12.00866211 19.31811523 12.6875 C23.58448835 15.77174498 27.9077301 18.77313621 32.22827148 21.78076172 C40.49044504 27.55930793 48.73132043 33.367687 56.96411133 39.18798828 C60.48844666 41.67897159 64.01472946 44.16719519 67.54077148 46.65576172 C68.9444218 47.64664078 70.34806763 48.63752621 71.75170898 49.62841797 C74.71487121 51.72010204 77.67847746 53.81115533 80.64233398 55.90185547 C81.3996582 56.43617188 82.15698242 56.97048828 82.93725586 57.52099609 C84.37333714 58.53418227 85.80952673 59.54721495 87.24584961 60.56005859 C87.90262695 61.02347656 88.5594043 61.48689453 89.23608398 61.96435547 C90.18596191 62.62927002 90.18596191 62.62927002 91.1550293 63.30761719 C92.44725651 64.23144923 93.7221336 65.17989961 94.98120117 66.1484375 C96.61474525 67.39049577 98.32336175 68.53251696 100.04077148 69.65576172 C101.03077148 69.32576172 102.02077148 68.99576172 103.04077148 68.65576172 C104.78829289 68.82741175 106.53573888 68.99993645 108.2824707 69.17944336 C114.94445315 69.70646414 119.40295133 69.14450731 124.65942383 64.82226562 C127.00368979 62.68133883 129.27869743 60.48921691 131.49926758 58.22021484 C133.65303303 56.0343851 135.93452765 54.00553971 138.22827148 51.96826172 C139.02104492 51.24767578 139.81381836 50.52708984 140.63061523 49.78466797 C143.12717752 47.57943872 145.69239023 45.48976182 148.29077148 43.40576172 C153.40955452 39.2685635 158.22394506 34.8640301 163.0065918 30.34814453 C164.67587189 28.77425187 166.35536274 27.21236332 168.04077148 25.65576172 C168.644375 25.09171631 169.24797852 24.5276709 169.86987305 23.9465332 C170.47283203 23.40198486 171.07579102 22.85743652 171.69702148 22.29638672 C172.23649414 21.80299805 172.7759668 21.30960937 173.33178711 20.80126953 C176.59299283 18.61532993 179.2416462 19.08589293 183.04077148 19.65576172 C185.04077148 20.65576172 185.04077148 20.65576172 186.04077148 22.65576172 C186.65742771 25.96328149 186.89834038 27.51886497 186.04077148 30.65576172 C181.92409449 36.46485037 175.60080666 40.69002714 170.09545898 45.10498047 C166.62333831 48.00433443 163.33156345 51.05435819 160.04077148 54.15576172 C155.07172055 58.83406314 149.98169161 63.25222948 144.65014648 67.51904297 C141.02579235 70.48688984 137.58043348 73.63630011 134.13452148 76.80810547 C132.04077148 78.65576172 132.04077148 78.65576172 129.04077148 80.65576172 C128.86672557 83.74587582 128.86672557 83.74587582 129.16577148 87.28076172 C129.275359 92.91009927 129.01421541 96.56423083 125.61108398 101.10498047 C123.01024768 103.67346807 120.3460836 105.09665223 117.04077148 106.65576172 C116.05077148 107.15076172 116.05077148 107.15076172 115.04077148 107.65576172 C109.05311768 108.28989206 104.37614975 107.63126114 99.04077148 104.65576172 C95.19707024 101.4235584 92.6849665 98.41527362 91.04077148 93.65576172 C90.80437047 89.64208361 90.86535076 85.67094723 91.04077148 81.65576172 C90.46149902 81.37901611 89.88222656 81.10227051 89.28540039 80.81713867 C87.11052616 79.69185297 85.14720293 78.45465601 83.12670898 77.07373047 C82.37526611 76.56076416 81.62382324 76.04779785 80.84960938 75.51928711 C80.04644287 74.96619873 79.24327637 74.41311035 78.41577148 73.84326172 C77.57328857 73.26503662 76.73080566 72.68681152 75.86279297 72.09106445 C69.4712009 67.68539512 63.16420272 63.17150364 56.88623047 58.60595703 C51.2912577 54.54197724 45.64844111 50.55156927 39.97827148 46.59326172 C39.1393335 46.00754395 38.30039551 45.42182617 37.43603516 44.81835938 C35.77066566 43.65597768 34.10522082 42.49370392 32.43969727 41.33154297 C25.95371226 36.80072666 19.48955485 32.23934963 13.04077148 27.65576172 C12.2423584 27.08873535 11.44394531 26.52170898 10.62133789 25.9375 C8.15360979 24.18158872 5.69030452 22.41964708 3.22827148 20.65576172 C2.46885254 20.11556396 1.70943359 19.57536621 0.92700195 19.01879883 C-6.42471631 13.73105673 -6.42471631 13.73105673 -8.95922852 10.65576172 C-9.52568734 6.69054995 -9.53513165 4.57720674 -7.39672852 1.15576172 C-4.62716605 -0.54858441 -3.15840864 -0.54518929 0 0 Z " fill="#040405" transform="translate(401.959228515625,424.34423828125)"/>
<path d="M0 0 C3.99004425 4.19122295 6.81136961 9.35693562 9.75 14.3125 C10.25660156 15.12912109 10.76320313 15.94574219 11.28515625 16.78710938 C14.45536613 22.14912203 15.81728643 25.75703054 15 32 C12.59586685 34.74758074 11.14615809 35.85816322 7.51025391 36.30810547 C5 36 5 36 3.38818359 34.57080078 C2.93781738 33.91063965 2.48745117 33.25047852 2.0234375 32.5703125 C1.52038086 31.83844727 1.01732422 31.10658203 0.49902344 30.35253906 C-1.90334381 26.5823093 -4.19600234 22.77876318 -6.375 18.875 C-6.82488281 18.10285156 -7.27476562 17.33070313 -7.73828125 16.53515625 C-10.14720875 12.23716098 -11.75580467 9.06923534 -11 4 C-8.07075041 -0.45245938 -5.11843736 -0.822606 0 0 Z " fill="#070707" transform="translate(600,653)"/>
<path d="M0 0 C3.00801515 2.28870718 4.67660588 3.82402137 5.6875 7.5 C3.85600047 14.15999828 -5.92743743 18.14959768 -11.5 21.375 C-12.42425781 21.93316406 -13.34851563 22.49132812 -14.30078125 23.06640625 C-21.10855291 27.01082331 -21.10855291 27.01082331 -25.5390625 26.95703125 C-28.57589469 25.77604095 -29.57366122 24.9319186 -31 22 C-31.4375 19 -31.4375 19 -31 16 C-27.00125789 11.37677204 -21.86579703 8.75089474 -16.625 5.75 C-15.69171875 5.19570313 -14.7584375 4.64140625 -13.796875 4.0703125 C-12.88679687 3.54695313 -11.97671875 3.02359375 -11.0390625 2.484375 C-10.21615723 2.00709961 -9.39325195 1.52982422 -8.54541016 1.03808594 C-5.47859015 -0.2126448 -3.28460827 -0.33478707 0 0 Z " fill="#080808" transform="translate(684,409)"/>
<path d="M0 0 C3.34999505 0.09152992 3.97084041 0.30966034 6.6875 2.5625 C8.48765539 6.16281077 8.06435668 7.57603251 7.125 11.4375 C5.86572266 14.10644531 5.86572266 14.10644531 4.2890625 16.765625 C3.71929688 17.72984375 3.14953125 18.6940625 2.5625 19.6875 C1.964375 20.6775 1.36625 21.6675 0.75 22.6875 C0.15960937 23.69296875 -0.43078125 24.6984375 -1.0390625 25.734375 C-5.47823661 33.17299107 -5.47823661 33.17299107 -8.875 35.4375 C-12.49050392 35.89905369 -14.21136094 35.89156883 -17.25 33.8125 C-19.35629094 30.73407479 -19.19196668 29.12512304 -18.875 25.4375 C-17.71337891 22.67675781 -17.71337891 22.67675781 -16.1015625 19.890625 C-15.5240625 18.88128906 -14.9465625 17.87195313 -14.3515625 16.83203125 C-13.74054687 15.79433594 -13.12953125 14.75664062 -12.5 13.6875 C-11.89671875 12.63433594 -11.2934375 11.58117187 -10.671875 10.49609375 C-4.93021182 0.55663682 -4.93021182 0.55663682 0 0 Z " fill="#060607" transform="translate(607.875,335.5625)"/>
<path d="M0 0 C3.5625 0.4375 3.5625 0.4375 6 2.0625 C8.02938832 5.14717025 7.88629208 6.78164866 7.5625 10.4375 C6.30908203 13.3059082 6.30908203 13.3059082 4.5703125 16.23828125 C3.94769531 17.29724609 3.32507813 18.35621094 2.68359375 19.44726562 C2.02488281 20.53716797 1.36617188 21.62707031 0.6875 22.75 C0.03652344 23.85923828 -0.61445313 24.96847656 -1.28515625 26.11132812 C-6.14360573 34.29055286 -6.14360573 34.29055286 -8.4375 35.4375 C-11.8125 35.8125 -11.8125 35.8125 -15.4375 35.4375 C-17.9375 33.3125 -17.9375 33.3125 -19.4375 30.4375 C-19.07477661 26.15889664 -17.95325472 23.06054872 -15.8203125 19.36328125 C-15.29566406 18.44869141 -14.77101563 17.53410156 -14.23046875 16.59179688 C-13.40482422 15.18510742 -13.40482422 15.18510742 -12.5625 13.75 C-12.01980469 12.80060547 -11.47710937 11.85121094 -10.91796875 10.87304688 C-4.99120091 0.63524375 -4.99120091 0.63524375 0 0 Z " fill="#060607" transform="translate(427.4375,652.5625)"/>
<path d="M0 0 C3.10639164 2.07092776 3.84874457 3.28909949 4.625 6.9375 C3.63601042 11.78354897 -0.22052453 13.82098694 -4.16113281 16.43188477 C-6.56266516 17.93623235 -8.99220502 19.38050161 -11.4375 20.8125 C-12.66823242 21.56563477 -12.66823242 21.56563477 -13.92382812 22.33398438 C-18.74760336 25.1635732 -22.23955567 26.86922306 -28 26 C-30.62274673 23.64625293 -31.73459776 21.94097156 -32.6875 18.5625 C-31.24344363 13.18010806 -25.18101102 9.99215866 -20.625 7.2265625 C-19.0881031 6.35094947 -17.54635569 5.48379821 -16 4.625 C-14.84757812 3.95017578 -14.84757812 3.95017578 -13.671875 3.26171875 C-8.95574524 0.62293186 -5.54781614 -0.7013674 0 0 Z " fill="#060707" transform="translate(367,589)"/>
<path d="M0 0 C4.36182285 1.47094611 5.9229005 5.85733202 8.00390625 9.67578125 C8.80111737 10.98345153 9.60358205 12.28792778 10.41015625 13.58984375 C11.25575361 14.99237746 12.09949771 16.39603013 12.94140625 17.80078125 C13.35575928 18.46916016 13.7701123 19.13753906 14.19702148 19.82617188 C16.88183508 24.46757839 17.42334272 27.2873044 16.00390625 32.67578125 C14.87890625 34.61328125 14.87890625 34.61328125 13.00390625 35.67578125 C9.56640625 36.17578125 9.56640625 36.17578125 6.00390625 35.67578125 C1.68068778 31.25116533 -1.18118296 25.50637968 -4.24609375 20.17578125 C-4.80039062 19.23863281 -5.3546875 18.30148437 -5.92578125 17.3359375 C-6.44914062 16.42714844 -6.9725 15.51835937 -7.51171875 14.58203125 C-7.98899414 13.76025391 -8.46626953 12.93847656 -8.95800781 12.09179688 C-10.12300832 9.38040341 -10.30726819 7.59716012 -9.99609375 4.67578125 C-7.49637386 0.82204643 -4.62486845 -0.29810386 0 0 Z " fill="#070707" transform="translate(417.99609375,335.32421875)"/>
<path d="M0 0 C3.94378129 1.79232305 7.57315935 4.03023941 11.25 6.3125 C12.24257813 6.90740234 13.23515625 7.50230469 14.2578125 8.11523438 C22.96839428 13.39705734 22.96839428 13.39705734 25 16 C24.87844565 19.40352169 24.59933376 21.96781407 22.875 24.9375 C19.91456465 26.61508003 17.26151607 26.59551394 14 26 C10.25333879 24.38800419 6.80731401 22.344453 3.3125 20.25 C2.37599609 19.71117187 1.43949219 19.17234375 0.47460938 18.6171875 C-7.89007503 13.72136936 -7.89007503 13.72136936 -11 10 C-10.93913078 6.53045455 -10.6274029 4.08052722 -8.875 1.0625 C-5.88928417 -0.62940564 -3.28316905 -0.64299345 0 0 Z " fill="#080808" transform="translate(346,409)"/>
<path d="M0 0 C4.97584791 1.03647263 9.23402157 4.17739864 13.49487305 6.82958984 C14.99630859 7.73451172 14.99630859 7.73451172 16.52807617 8.65771484 C23.81179699 13.08401379 23.81179699 13.08401379 26.18237305 15.45458984 C26.73476947 22.41478481 26.73476947 22.41478481 25.11987305 25.45458984 C22.10242229 27.01198378 19.45178198 27.04882626 16.18237305 26.45458984 C12.43564464 24.84277575 8.9896738 22.79903489 5.49487305 20.70458984 C4.55836914 20.16576172 3.62186523 19.62693359 2.65698242 19.07177734 C-1.65403569 16.54855475 -5.51078489 14.26441435 -8.81762695 10.45458984 C-9.42368124 6.8182641 -9.28924031 5.17144215 -7.25512695 2.07958984 C-4.69026598 0.36968253 -3.06590532 -0.0743589 0 0 Z " fill="#060707" transform="translate(661.817626953125,588.54541015625)"/>
<path d="M0 0 C1.0209375 -0.01160156 1.0209375 -0.01160156 2.0625 -0.0234375 C4.68727892 0.51633558 5.40531191 1.21044421 7 3.375 C7.40405273 6.49780273 7.40405273 6.49780273 7.43359375 10.30859375 C7.4388356 10.98293961 7.44407745 11.65728546 7.44947815 12.35206604 C7.45589439 13.77677027 7.45456639 15.20152751 7.44604492 16.6262207 C7.4375414 18.80190822 7.46628342 20.97496303 7.49804688 23.15039062 C7.49965927 24.53645755 7.49908062 25.92252911 7.49609375 27.30859375 C7.49794678 28.56728271 7.4997998 29.82597168 7.50170898 31.12280273 C6.91471046 34.92786717 6.06820306 36.11891725 3 38.375 C-0.27149606 38.85209317 -2.19244757 38.7787305 -5.15649414 37.296875 C-7.92061127 34.41525269 -7.5016715 32.11811657 -7.49609375 28.1875 C-7.49754898 27.48858643 -7.49900421 26.78967285 -7.50050354 26.06958008 C-7.49884533 24.59354479 -7.48729237 23.11749207 -7.46655273 21.64160156 C-7.43759891 19.38271627 -7.44594227 17.12617845 -7.45898438 14.8671875 C-7.45274661 13.43228026 -7.44435535 11.99738044 -7.43359375 10.5625 C-7.42384521 9.25667969 -7.41409668 7.95085938 -7.40405273 6.60546875 C-7 3.375 -7 3.375 -5.59399414 1.45068359 C-3.60513952 0.10853419 -2.38753116 -0.02713104 0 0 Z " fill="#040304" transform="translate(512,675.625)"/>
<path d="M0 0 C0.67293091 -0.00619858 1.34586182 -0.01239716 2.03918457 -0.01878357 C3.45791176 -0.02586816 4.87672232 -0.02273126 6.29541016 -0.01000977 C8.46282166 0.00386829 10.62592117 -0.03023311 12.79296875 -0.06835938 C14.17448022 -0.06931058 15.55599708 -0.06745166 16.9375 -0.0625 C18.81598633 -0.06358765 18.81598633 -0.06358765 20.73242188 -0.06469727 C23.96875 0.56640625 23.96875 0.56640625 26.41210938 2.91040039 C27.96875 5.56640625 27.96875 5.56640625 27.90625 8.69140625 C26.91495722 11.73137077 26.52349203 12.73541918 23.96875 14.56640625 C20.83007812 14.95458984 20.83007812 14.95458984 17 14.96484375 C16.32328247 14.96771393 15.64656494 14.97058411 14.94934082 14.97354126 C13.52041791 14.97558022 12.09146698 14.97006194 10.66259766 14.95751953 C8.47625275 14.94146136 6.29175621 14.95737159 4.10546875 14.9765625 C2.71614176 14.97458004 1.32681591 14.97073629 -0.0625 14.96484375 C-1.32642578 14.96145996 -2.59035156 14.95807617 -3.89257812 14.95458984 C-7.03125 14.56640625 -7.03125 14.56640625 -8.90820312 13.25634766 C-10.80337218 10.40453023 -10.97205767 7.94036933 -11.03125 4.56640625 C-7.92332943 0.19942689 -5.17516596 0.04494644 0 0 Z " fill="#040405" transform="translate(320.03125,504.43359375)"/>
<path d="M0 0 C0.65073486 -0.0038269 1.30146973 -0.00765381 1.97192383 -0.01159668 C3.34360304 -0.01431076 4.71533444 -0.00698453 6.08691406 0.00976562 C8.18151685 0.03118881 10.27269084 0.00995363 12.3671875 -0.015625 C13.70313254 -0.01298163 15.03907545 -0.00785643 16.375 0 C17.58542969 0.00451172 18.79585937 0.00902344 20.04296875 0.01367188 C23.76611062 0.62648715 24.95992464 1.53488949 27.1875 4.53125 C27.66447207 7.80191563 27.59212443 9.72273415 26.109375 12.68554688 C23.23076261 15.45006792 20.92993731 15.04892174 17 15.0625 C16.30108643 15.0663269 15.60217285 15.07015381 14.88208008 15.07409668 C13.40607257 15.07681568 11.93001687 15.06945498 10.45410156 15.05273438 C8.19487079 15.03131987 5.93881939 15.05253135 3.6796875 15.078125 C2.24478465 15.07548172 0.80988378 15.07035671 -0.625 15.0625 C-1.93082031 15.05798828 -3.23664062 15.05347656 -4.58203125 15.04882812 C-7.8125 14.53125 -7.8125 14.53125 -9.734375 12.68554688 C-11.21712443 9.72273415 -11.28947207 7.80191563 -10.8125 4.53125 C-7.65380053 0.282414 -5.153727 0.01920985 0 0 Z " fill="#040405" transform="translate(686.8125,504.46875)"/>
<path d="M0 0 C2.99636051 2.22757536 3.90476285 3.42138938 4.51757812 7.14453125 C4.52208984 8.35496094 4.52660156 9.56539063 4.53125 10.8125 C4.5350769 11.46323486 4.53890381 12.11396973 4.54284668 12.78442383 C4.54556076 14.15610304 4.53823453 15.52783444 4.52148438 16.89941406 C4.50006119 18.99401685 4.52129637 21.08519084 4.546875 23.1796875 C4.54423163 24.51563254 4.53910643 25.85157545 4.53125 27.1875 C4.52673828 28.39792969 4.52222656 29.60835938 4.51757812 30.85546875 C3.90309308 34.58875526 3.02535042 35.7869872 0 38 C-5.8712642 38.72103245 -5.8712642 38.72103245 -8.68774414 36.921875 C-10.70912416 33.96144645 -10.40710627 31.36050862 -10.43359375 27.8125 C-10.4388356 27.11358643 -10.44407745 26.41467285 -10.44947815 25.69458008 C-10.45589447 24.21860074 -10.45456631 22.74257025 -10.44604492 21.26660156 C-10.43752842 19.007539 -10.46630538 16.75100055 -10.49804688 14.4921875 C-10.49965887 13.05729242 -10.49908139 11.62239287 -10.49609375 10.1875 C-10.49794678 8.88167969 -10.4997998 7.57585937 -10.50170898 6.23046875 C-10 3 -10 3 -8.15649414 1.078125 C-5.19244757 -0.4037305 -3.27149606 -0.47709317 0 0 Z " fill="#050404" transform="translate(515,310)"/>
</svg>
