<svg width="128" height="128" viewBox="0 0 128 128" fill="none" xmlns="http://www.w3.org/2000/svg">
<g clip-path="url(#clip0_476_77)">
<g clip-path="url(#clip1_476_77)">
<path d="M-17 -17C36.46 -17 89.92 -17 145 -17C145 36.46 145 89.92 145 145C91.54 145 38.08 145 -17 145C-17 91.54 -17 38.08 -17 -17Z" fill="#FEFEFE"/>
<path d="M63.6737 22.6794C63.7881 22.6796 63.9024 22.6798 64.0203 22.68C68.4289 22.6946 72.8061 23.2561 76.9726 24.7657C77.0921 24.8075 77.2116 24.8494 77.3347 24.8926C81.8822 26.4946 86.0177 28.7229 89.7871 31.7266C89.878 31.799 89.969 31.8714 90.0627 31.9461C92.3923 33.8241 94.6362 35.9731 96.4316 38.3711C96.6032 38.5936 96.7748 38.8161 96.9464 39.0385C99.1553 41.9359 100.886 45.0808 102.315 48.4269C102.364 48.5406 102.413 48.6543 102.463 48.7714C103.258 50.6743 103.833 52.6261 104.282 54.6364C104.306 54.7414 104.329 54.8465 104.354 54.9547C106.675 65.4394 104.84 76.6874 99.1309 85.8123C98.2472 87.189 97.2924 88.5077 96.2734 89.7871C96.2018 89.8773 96.1302 89.9674 96.0565 90.0602C94.008 92.6082 91.6542 94.9975 88.9961 96.9063C88.8915 96.9828 88.787 97.0593 88.6793 97.1382C83.5744 100.873 77.8241 103.475 71.5937 104.658C71.438 104.689 71.2823 104.719 71.1219 104.751C68.7372 105.203 66.4007 105.35 63.9802 105.35C63.8523 105.351 63.7245 105.351 63.5927 105.351C57.267 105.35 50.9096 103.831 45.3145 100.861C45.0106 100.701 44.705 100.543 44.3988 100.387C40.2197 98.23 36.0068 95.0066 32.9922 91.3692C32.8065 91.1596 32.8065 91.1596 32.617 90.9459C30.5663 88.6194 28.8838 86.0479 27.455 83.3008C27.3714 83.1432 27.3714 83.1432 27.286 82.9824C25.1077 78.873 23.7246 74.4409 23.0902 69.8348C23.0449 69.516 22.9946 69.1979 22.9407 68.8805C22.6864 67.3198 22.659 65.7939 22.6694 64.2176C22.6699 64.0848 22.6704 63.952 22.6709 63.8153C22.6842 60.7375 22.9714 57.8272 23.6582 54.8243C23.6891 54.6851 23.72 54.5459 23.7519 54.4026C25.5363 46.5037 30.0422 38.5482 36.3144 33.3086C36.4696 33.1712 36.6248 33.0337 36.7847 32.8921C42.6218 27.7333 49.9496 24.3252 57.6323 23.0749C57.7481 23.0559 57.8638 23.037 57.9831 23.0175C59.8711 22.729 61.7669 22.6759 63.6737 22.6794Z" fill="#FDFDFD"/>
<path d="M63.6737 22.6794C63.7881 22.6796 63.9024 22.6798 64.0203 22.68C68.4289 22.6946 72.8061 23.2561 76.9726 24.7657C77.0921 24.8075 77.2116 24.8494 77.3347 24.8926C81.8822 26.4946 86.0177 28.7229 89.7871 31.7266C89.878 31.799 89.969 31.8714 90.0627 31.9461C92.3923 33.8241 94.6362 35.9731 96.4316 38.3711C96.6032 38.5936 96.7748 38.8161 96.9464 39.0385C99.1553 41.9359 100.886 45.0808 102.315 48.4269C102.364 48.5406 102.413 48.6543 102.463 48.7714C103.258 50.6743 103.833 52.6261 104.282 54.6364C104.306 54.7414 104.329 54.8465 104.354 54.9547C106.675 65.4394 104.84 76.6874 99.1309 85.8123C98.2472 87.189 97.2924 88.5077 96.2734 89.7871C96.2018 89.8773 96.1302 89.9674 96.0565 90.0602C94.008 92.6082 91.6542 94.9975 88.9961 96.9063C88.8915 96.9828 88.787 97.0593 88.6793 97.1382C83.5744 100.873 77.8241 103.475 71.5937 104.658C71.438 104.689 71.2823 104.719 71.1219 104.751C68.7372 105.203 66.4007 105.35 63.9802 105.35C63.8523 105.351 63.7245 105.351 63.5927 105.351C57.267 105.35 50.9096 103.831 45.3145 100.861C45.0106 100.701 44.705 100.543 44.3988 100.387C40.2197 98.23 36.0068 95.0066 32.9922 91.3692C32.8065 91.1596 32.8065 91.1596 32.617 90.9459C30.5663 88.6194 28.8838 86.0479 27.455 83.3008C27.3714 83.1432 27.3714 83.1432 27.286 82.9824C25.1077 78.873 23.7246 74.4409 23.0902 69.8348C23.0449 69.516 22.9946 69.1979 22.9407 68.8805C22.6864 67.3198 22.659 65.7939 22.6694 64.2176C22.6699 64.0848 22.6704 63.952 22.6709 63.8153C22.6842 60.7375 22.9714 57.8272 23.6582 54.8243C23.6891 54.6851 23.72 54.5459 23.7519 54.4026C25.5363 46.5037 30.0422 38.5482 36.3144 33.3086C36.4696 33.1712 36.6248 33.0337 36.7847 32.8921C42.6218 27.7333 49.9496 24.3252 57.6323 23.0749C57.7481 23.0559 57.8638 23.037 57.9831 23.0175C59.8711 22.729 61.7669 22.6759 63.6737 22.6794ZM56.3766 25.7445C56.2104 25.7786 56.0442 25.8126 55.873 25.8476C48.6944 27.3725 42.2329 30.9342 36.9472 35.9981C36.8087 36.1289 36.8087 36.1289 36.6673 36.2624C35.1061 37.7423 33.7769 39.3185 32.5175 41.0606C32.4107 41.2052 32.3038 41.3498 32.1937 41.4987C31.3812 42.6224 30.6765 43.8144 29.9863 45.0157C29.9279 45.1165 29.8696 45.2174 29.8095 45.3213C27.3203 49.6716 25.9132 54.4664 25.2402 59.4121C25.2238 59.5232 25.2073 59.6343 25.1904 59.7487C25.0323 60.9389 25.0505 62.1392 25.0523 63.3376C25.0524 63.4537 25.0525 63.5699 25.0526 63.6896C25.0568 65.5495 25.124 67.3791 25.3984 69.2207C25.4303 69.4376 25.4303 69.4376 25.4628 69.6589C26.9243 79.3313 31.9778 88.5257 39.7949 94.5332C39.8811 94.5998 39.9672 94.6665 40.056 94.7351C45.705 99.0764 52.2012 101.766 59.2539 102.76C59.5511 102.802 59.5511 102.802 59.8543 102.844C60.5103 102.925 61.1575 102.943 61.8179 102.945C61.9379 102.945 62.0579 102.946 62.1816 102.947C62.5669 102.948 62.9522 102.948 63.3375 102.948C63.4692 102.948 63.601 102.947 63.7367 102.947C65.6354 102.944 67.501 102.906 69.3789 102.602C69.5124 102.581 69.646 102.561 69.7836 102.54C73.9645 101.891 78.0004 100.63 81.7417 98.6423C82.0282 98.492 82.3171 98.348 82.6074 98.2053C85.1741 96.9223 87.4991 95.1808 89.6289 93.2676C89.7112 93.194 89.7935 93.1204 89.8783 93.0445C91.4554 91.6307 92.896 90.181 94.2168 88.5215C94.3534 88.3553 94.4902 88.1893 94.6271 88.0234C97.054 85.052 98.7346 81.7348 100.251 78.2337C100.376 77.9472 100.504 77.6623 100.632 77.3775C104.25 68.4934 103.573 57.8441 100.019 49.0879C98.3421 45.1339 96.1126 41.5864 93.2675 38.3711C93.1474 38.2335 93.0273 38.0958 92.9036 37.954C91.5059 36.3726 90.0306 34.9204 88.3632 33.625C88.2734 33.5539 88.1836 33.4828 88.091 33.4095C84.8187 30.8249 81.2164 28.9195 77.3327 27.4347C77.0197 27.3149 76.7078 27.1924 76.396 27.0695C74.7811 26.4565 73.1223 26.0705 71.4355 25.7149C71.2924 25.6832 71.1492 25.6515 71.0017 25.6188C68.752 25.1328 66.5401 25.0233 64.2472 25.0227C64.1147 25.0224 63.9822 25.0221 63.8457 25.0218C61.3239 25.0225 58.8496 25.2381 56.3766 25.7445Z" fill="#050505"/>
<path d="M75.0743 26.664C75.2579 26.7233 75.2579 26.7233 75.4453 26.7838C79.6423 28.1518 83.5806 29.9841 87.0977 32.6758C87.1883 32.744 87.2789 32.8122 87.3722 32.8826C88.7823 33.9465 90.0956 35.0912 91.3692 36.3144C91.5111 36.4498 91.6531 36.5853 91.7993 36.7248C92.7358 37.6381 93.567 38.609 94.375 39.6367C94.4984 39.789 94.6218 39.9414 94.7489 40.0983C101.02 47.9902 103.78 58.2652 102.78 68.2573C102.355 71.812 101.544 75.4407 100.07 78.7129C99.9549 78.9782 99.8396 79.2435 99.7243 79.5088C98.0874 83.2368 95.9838 86.5898 93.2676 89.6289C93.1935 89.7119 93.1195 89.7949 93.0431 89.8804C91.6293 91.4571 90.178 92.893 88.5215 94.2168C88.4018 94.3173 88.2821 94.4179 88.1588 94.5214C85.1004 97.064 81.597 98.9144 77.9219 100.387C77.7626 100.452 77.6032 100.517 77.4391 100.584C76.2182 101.07 74.9958 101.44 73.7196 101.751C73.5276 101.799 73.3356 101.846 73.1378 101.895C71.5286 102.282 69.9176 102.584 68.2715 102.76C68.0675 102.782 68.0675 102.782 67.8594 102.804C66.4326 102.94 65.0071 102.963 63.5749 102.967C63.4464 102.968 63.318 102.968 63.1857 102.969C60.9255 102.969 58.7793 102.75 56.5645 102.285C56.3178 102.239 56.071 102.192 55.8241 102.147C48.6215 100.751 42.0326 96.8927 36.7891 91.8437C36.7063 91.7643 36.6234 91.685 36.538 91.6032C35.4282 90.5345 34.4073 89.4287 33.4668 88.2051C33.4002 88.1189 33.3336 88.0327 33.265 87.944C31.4719 85.6108 29.963 83.1199 28.7207 80.4531C28.6667 80.3372 28.6127 80.2213 28.557 80.1019C26.137 74.8714 25.0532 69.341 25.0326 63.5847C25.0322 63.4722 25.0318 63.3596 25.0314 63.2437C25.0305 60.9763 25.2896 58.7925 25.7149 56.5644C25.7385 56.4332 25.7622 56.302 25.7866 56.1668C26.8312 50.436 29.511 45.0567 32.9922 40.4277C33.0692 40.3249 33.1461 40.222 33.2254 40.1161C35.2653 37.421 37.6874 34.9734 40.4278 32.9922C40.6038 32.8609 40.7797 32.7295 40.9555 32.5979C50.5661 25.4837 63.6111 22.8997 75.0743 26.664ZM39.795 36.6308C39.653 36.755 39.5111 36.8792 39.3648 37.0072C34.4983 41.3255 31.098 46.9413 29.0371 53.084C28.9758 53.263 28.9758 53.263 28.9132 53.4457C27.1322 58.7539 26.8782 64.9931 27.9693 70.4566C28.0223 70.7247 28.0223 70.7247 28.0763 70.9981C29.2676 76.8658 31.8155 82.5077 35.6817 87.0976C35.7581 87.1899 35.8346 87.2822 35.9133 87.3773C37.4734 89.2597 39.1231 90.9735 41.0606 92.4765C41.1546 92.5502 41.2487 92.6238 41.3456 92.6997C42.8225 93.8524 44.327 94.889 45.9649 95.7988C46.0882 95.8679 46.2116 95.9371 46.3387 96.0083C49.6657 97.858 53.1613 99.1779 56.8908 99.9418C57.0101 99.9663 57.1294 99.9908 57.2523 100.016C59.4467 100.441 61.5928 100.601 63.8221 100.584C63.9474 100.584 64.0728 100.583 64.2019 100.583C65.9956 100.573 67.7693 100.561 69.5371 100.228C69.6924 100.2 69.8476 100.171 70.0076 100.141C75.6401 99.0554 81.0966 96.9336 85.6739 93.4258C85.8553 93.2898 86.0368 93.1538 86.2183 93.0179C88.0901 91.5978 89.8745 90.0225 91.3692 88.2051C91.4981 88.0584 91.6269 87.9118 91.7597 87.7607C95.222 83.8108 97.5982 79.132 99.1211 74.125C99.1792 73.9402 99.2374 73.7554 99.2973 73.5651C100.781 68.4887 100.893 63.0217 100.07 57.8301C100.04 57.6255 100.009 57.421 99.9776 57.2102C98.9776 51.4634 96.3146 46.0772 92.7831 41.4857C92.6917 41.3665 92.6003 41.2472 92.5061 41.1244C91.9807 40.4516 91.4306 39.8354 90.8187 39.2403C90.545 38.9713 90.2982 38.6869 90.0541 38.3908C88.0555 36.0878 85.428 34.2355 82.8262 32.6758C82.6984 32.5991 82.5707 32.5224 82.439 32.4434C77.8564 29.7341 72.9164 28.1929 67.6387 27.6133C67.5026 27.5982 67.3665 27.5832 67.2263 27.5677C57.2033 26.5547 47.3075 30.0253 39.795 36.6308Z" fill="#F9F9F7"/>
<path d="M62.2033 27.4427C66.8883 27.3208 71.7847 27.7906 76.1817 29.5117C76.3883 29.5915 76.3883 29.5915 76.5991 29.673C82.2222 31.8668 87.6581 35.2329 91.5274 39.9531C91.6449 40.0884 91.7623 40.2236 91.8833 40.3629C97.9619 47.4387 101.185 56.9531 100.506 66.2686C100.4 67.4693 100.246 68.6612 100.07 69.8535C100.05 69.9968 100.03 70.14 100.009 70.2875C99.0093 77.0799 95.6762 83.5954 90.9817 88.5685C90.5965 88.9767 90.2261 89.3946 89.8564 89.8168C87.6582 92.2456 84.8934 94.2176 82.0352 95.7989C81.9255 95.8613 81.8159 95.9238 81.7029 95.9882C78.9867 97.5316 76.0536 98.6931 73.0176 99.4375C72.8909 99.4693 72.7642 99.501 72.6337 99.5338C63.3167 101.85 53.5957 100.319 45.3082 95.4774C41.6273 93.2545 38.1609 90.3391 35.5235 86.9395C35.4498 86.8454 35.3762 86.7514 35.3003 86.6545C34.1473 85.1771 33.1183 83.6692 32.2012 82.0352C32.1141 81.8834 32.1141 81.8834 32.0253 81.7286C30.9248 79.8018 30.1217 77.7854 29.3536 75.7071C29.2869 75.5335 29.2202 75.36 29.1515 75.1812C28.5649 73.5675 28.267 71.8497 27.9297 70.1699C27.9006 70.0305 27.8715 69.891 27.8415 69.7473C26.1169 61.0364 28.4708 51.2927 33.3405 43.9734C33.6883 43.4688 34.0483 42.9746 34.4161 42.4844C34.5221 42.3418 34.5221 42.3418 34.6303 42.1963C35.6856 40.787 36.8376 39.4836 38.0547 38.2129C38.1669 38.0942 38.2791 37.9755 38.3946 37.8532C39.2213 36.9996 40.1294 36.2598 41.0606 35.5235C41.2188 35.396 41.3771 35.2685 41.5401 35.1372C47.3392 30.5176 54.7802 27.6622 62.2033 27.4427ZM57.1973 30.461C57.0569 30.4906 56.9166 30.5202 56.772 30.5507C50.5388 31.906 44.9337 34.8907 40.3842 39.3695C40.1191 39.6292 39.8501 39.8842 39.5799 40.1385C35.1395 44.3731 32.2387 50.0204 30.7774 55.9317C30.7327 56.0881 30.6881 56.2445 30.642 56.4057C29.3566 61.0059 29.5496 66.0004 30.461 70.6446C30.4965 70.8264 30.4965 70.8264 30.5327 71.0119C30.6824 71.7448 30.8773 72.4604 31.0938 73.1758C31.1337 73.3111 31.1735 73.4464 31.2146 73.5858C32.2254 76.9682 33.6185 80.261 35.6817 83.1426C35.7949 83.3017 35.908 83.4607 36.0247 83.6246C38.2112 86.6122 40.7458 89.3504 43.75 91.5274C43.9169 91.6501 44.0837 91.7729 44.2555 91.8994C45.5592 92.8315 46.9202 93.6305 48.3379 94.375C48.4492 94.4338 48.5604 94.4925 48.675 94.553C56.5973 98.6743 65.8007 99.2279 74.2661 96.5969C78.5785 95.2014 82.5844 93.1202 85.9903 90.1035C86.1165 89.9944 86.2427 89.8853 86.3728 89.7729C91.6097 85.1688 95.5261 79.1278 97.1831 72.3156C97.2274 72.1352 97.2274 72.1352 97.2726 71.9511C97.3718 71.5171 97.4573 71.0823 97.5391 70.6446C97.5591 70.5378 97.5791 70.431 97.5997 70.3209C97.9658 68.3078 98.0888 66.3422 98.0756 64.2977C98.073 63.8316 98.0756 63.3658 98.0786 62.8997C98.0815 60.3689 97.8121 57.9255 97.1139 55.4867C97.0736 55.3435 97.0333 55.2002 96.9917 55.0527C96.0019 51.6248 94.6831 48.2751 92.6348 45.3321C92.5184 45.161 92.4019 44.9899 92.2819 44.8136C86.9936 37.1451 78.9871 32.0469 69.8536 30.3028C65.6489 29.5398 61.3756 29.5719 57.1973 30.461Z" fill="#060606"/>
<path d="M46.5913 50.1326C47.2639 50.3487 47.8053 50.7991 48.3676 51.2152C48.6494 51.4182 48.9312 51.6211 49.213 51.8239C49.3564 51.9282 49.4997 52.0324 49.6474 52.1398C50.3224 52.6277 51.0063 53.1025 51.6899 53.5784C52.997 54.4925 54.3007 55.4115 55.6032 56.3322C56.1607 56.7263 56.7186 57.12 57.2764 57.5137C57.4985 57.6704 57.7205 57.8272 57.9426 57.984C58.4114 58.3149 58.8802 58.6457 59.3491 58.9764C59.4689 59.061 59.5888 59.1455 59.7122 59.2326C59.9394 59.3929 60.1666 59.5531 60.3938 59.7134C60.4977 59.7867 60.6016 59.86 60.7087 59.9355C60.859 60.0407 60.859 60.0407 61.0123 60.148C61.2167 60.2942 61.4184 60.4442 61.6176 60.5975C61.876 60.794 62.1463 60.9746 62.418 61.1523C62.5746 61.1001 62.7313 61.0479 62.8926 60.9941C63.1691 61.0213 63.4455 61.0486 63.7219 61.077C64.7758 61.1604 65.4812 61.0715 66.3128 60.3877C66.6836 60.049 67.0436 59.7022 67.3949 59.3432C67.7356 58.9974 68.0965 58.6764 68.4594 58.3541C68.5848 58.2401 68.7102 58.1261 68.8395 58.0087C69.2344 57.6598 69.6403 57.3292 70.0513 56.9995C70.8611 56.345 71.6228 55.6482 72.3794 54.9338C72.6435 54.6848 72.9092 54.4377 73.1758 54.1914C73.2713 54.1022 73.3668 54.0129 73.4652 53.921C73.5606 53.8348 73.656 53.7487 73.7543 53.6599C73.8396 53.5819 73.925 53.5038 74.0129 53.4234C74.5288 53.0776 74.9478 53.152 75.5489 53.2422C75.8653 53.4004 75.8653 53.4004 76.0235 53.7168C76.121 54.2401 76.1592 54.4862 76.0235 54.9824C75.3722 55.9014 74.3719 56.5699 73.5009 57.2683C72.9516 57.727 72.4308 58.2095 71.9102 58.7002C71.1241 59.4403 70.3188 60.1393 69.4754 60.8143C68.902 61.2838 68.3569 61.7821 67.8118 62.2839C67.4805 62.5762 67.4805 62.5762 67.0059 62.8926C66.9784 63.3814 66.9784 63.3814 67.0257 63.9407C67.043 64.8312 67.0017 65.4093 66.4633 66.1277C66.0519 66.534 65.6304 66.7592 65.1075 67.0059C64.9509 67.0842 64.9509 67.0842 64.7911 67.1641C63.8438 67.2644 63.1039 67.1602 62.2598 66.6894C61.6517 66.1781 61.2543 65.7022 60.9942 64.9492C60.9568 64.3142 60.9664 63.686 60.9942 63.0508C60.9026 63.007 60.8109 62.9632 60.7165 62.9181C60.3724 62.7401 60.0618 62.5444 59.7422 62.3259C59.6233 62.2447 59.5044 62.1636 59.3819 62.08C59.2549 61.9925 59.1278 61.905 58.9969 61.8148C58.8636 61.7233 58.7303 61.6319 58.593 61.5376C57.5818 60.8406 56.584 60.1265 55.5908 59.4042C54.7057 58.7613 53.813 58.13 52.9159 57.5038C52.7832 57.4111 52.6505 57.3185 52.5138 57.223C52.2503 57.0391 51.9868 56.8552 51.7233 56.6714C50.6972 55.9546 49.6746 55.2329 48.6544 54.5078C48.528 54.4181 48.4017 54.3284 48.2716 54.236C47.8812 53.9582 47.4915 53.6794 47.102 53.4004C46.9818 53.3149 46.8617 53.2295 46.7379 53.1414C45.5748 52.3049 45.5748 52.3049 45.1739 51.8184C45.0843 51.191 45.0828 50.8567 45.4211 50.3154C45.8592 50.0458 46.0916 50.0463 46.5913 50.1326Z" fill="#040405"/>
<path d="M77.9219 86.3066C78.5531 86.9697 78.9994 87.7869 79.4643 88.5709C79.5445 88.7001 79.6246 88.8293 79.7072 88.9624C80.2087 89.8107 80.4242 90.3815 80.2949 91.3691C79.9146 91.8038 79.6852 91.9795 79.11 92.0507C78.7129 92.0019 78.7129 92.0019 78.4579 91.7758C78.3866 91.6714 78.3154 91.5669 78.242 91.4593C78.1624 91.3436 78.0828 91.2278 78.0008 91.1085C77.6207 90.512 77.258 89.9103 76.9133 89.2927C76.8421 89.1705 76.771 89.0484 76.6976 88.9225C76.3165 88.2426 76.0621 87.7414 76.1816 86.9394C76.645 86.235 77.1121 86.1765 77.9219 86.3066Z" fill="#070707"/>
<path d="M91.211 47.7051C91.6868 48.0672 91.9508 48.3101 92.1107 48.8916C91.821 49.9452 90.2732 50.5764 89.3916 51.0867C89.2454 51.175 89.0992 51.2633 88.9485 51.3543C87.8715 51.9783 87.8715 51.9783 87.1706 51.9698C86.6902 51.7829 86.5323 51.6494 86.3067 51.1856C86.2375 50.711 86.2375 50.711 86.3067 50.2363C86.9393 49.5049 87.7517 49.0895 88.5808 48.6148C88.7285 48.5271 88.8761 48.4394 89.0283 48.349C89.1722 48.2662 89.3162 48.1834 89.4646 48.0981C89.5947 48.0226 89.7249 47.9471 89.8591 47.8693C90.3442 47.6714 90.6913 47.6521 91.211 47.7051Z" fill="#080808"/>
<path d="M79.1677 36.087C79.6977 36.1015 79.7959 36.136 80.2257 36.4924C80.5105 37.062 80.4435 37.2856 80.2949 37.8965C80.0957 38.3187 80.0957 38.3187 79.8462 38.7394C79.7561 38.892 79.6659 39.0445 79.5731 39.2017C79.4785 39.3583 79.3838 39.5149 79.2863 39.6763C79.1929 39.8353 79.0995 39.9944 79.0033 40.1583C78.301 41.3351 78.301 41.3351 77.7636 41.6934C77.1916 41.7664 76.9194 41.7652 76.4387 41.4363C76.1055 40.9493 76.1315 40.6947 76.1816 40.1113C76.3654 39.6746 76.3654 39.6746 76.6204 39.2338C76.7117 39.0741 76.8031 38.9144 76.8972 38.7499C76.9939 38.5857 77.0905 38.4216 77.1901 38.2524C77.2856 38.0858 77.381 37.9192 77.4794 37.7476C78.3877 36.1751 78.3877 36.1751 79.1677 36.087Z" fill="#060607"/>
<path d="M50.6219 86.2374C51.1855 86.3066 51.1855 86.3066 51.5712 86.5637C51.8922 87.0517 51.8696 87.3103 51.8184 87.8887C51.6201 88.3425 51.6201 88.3425 51.345 88.8064C51.2465 88.9739 51.148 89.1414 51.0465 89.314C50.9423 89.4865 50.8381 89.6589 50.7307 89.8365C50.6277 90.012 50.5247 90.1875 50.4186 90.3683C49.65 91.6623 49.65 91.6623 49.2871 91.8438C48.7532 91.9031 48.7532 91.9031 48.1797 91.8438C47.7842 91.5076 47.7842 91.5076 47.5469 91.0527C47.6043 90.3758 47.7817 89.8857 48.1191 89.3008C48.2021 89.1561 48.2851 89.0114 48.3706 88.8623C48.5013 88.6398 48.5013 88.6398 48.6345 88.4127C48.7204 88.2625 48.8062 88.1123 48.8947 87.9576C49.8323 86.3379 49.8323 86.3379 50.6219 86.2374Z" fill="#060607"/>
<path d="M41.0605 76.1816C41.552 76.5093 41.6694 76.702 41.7922 77.2792C41.6358 78.0458 41.0257 78.3682 40.4022 78.7812C40.0223 79.0192 39.638 79.2477 39.2511 79.4742C39.0564 79.5934 39.0564 79.5934 38.8578 79.715C38.0946 80.1626 37.5422 80.4324 36.6309 80.2949C36.2159 79.9226 36.04 79.6528 35.8893 79.1183C36.1177 78.2668 37.0768 77.7624 37.7976 77.3249C38.0407 77.1864 38.2847 77.0492 38.5293 76.9133C38.7116 76.8066 38.7116 76.8066 38.8976 76.6977C39.6437 76.2802 40.1829 76.0707 41.0605 76.1816Z" fill="#060707"/>
<path d="M49.1283 36.0493C49.8183 36.282 50.0653 36.976 50.3945 37.5801C50.5206 37.7869 50.6476 37.9933 50.7752 38.1993C50.909 38.4212 51.0425 38.6432 51.1757 38.8655C51.2412 38.9712 51.3068 39.0769 51.3743 39.1859C51.799 39.9202 51.8847 40.3663 51.6602 41.2187C51.4822 41.5253 51.4822 41.5253 51.1855 41.6933C50.6417 41.7724 50.6417 41.7724 50.0781 41.6933C49.3942 40.9934 48.9414 40.0845 48.4565 39.2412C48.3688 39.0929 48.2812 38.9447 48.1908 38.7919C48.108 38.6481 48.0252 38.5044 47.9399 38.3562C47.8644 38.2262 47.7889 38.0962 47.7111 37.9623C47.5268 37.5333 47.4976 37.2512 47.5469 36.789C47.9423 36.1794 48.3966 36.0022 49.1283 36.0493Z" fill="#070707"/>
<path d="M37.7383 47.7051C38.3622 47.9887 38.9364 48.3427 39.5181 48.7038C39.6751 48.7979 39.8321 48.892 39.9939 48.989C41.372 49.8246 41.372 49.8246 41.6934 50.2364C41.6741 50.7748 41.63 51.1805 41.3572 51.6503C40.8888 51.9157 40.4691 51.9126 39.9531 51.8184C39.3604 51.5634 38.8152 51.2401 38.2623 50.9087C38.1142 50.8235 37.966 50.7382 37.8134 50.6504C36.49 49.8759 36.49 49.8759 35.998 49.2871C36.0077 48.7382 36.057 48.3507 36.3342 47.8732C36.8066 47.6055 37.2189 47.6034 37.7383 47.7051Z" fill="#080808"/>
<path d="M87.7016 76.1097C88.4888 76.2737 89.1625 76.7706 89.8366 77.1902C90.0741 77.3334 90.0741 77.3334 90.3164 77.4794C91.4687 78.1797 91.4687 78.1797 91.8438 78.5547C91.9312 79.6558 91.9312 79.6558 91.6757 80.1367C91.1983 80.3831 90.779 80.389 90.2617 80.2949C89.669 80.04 89.1238 79.7166 88.5709 79.3853C88.4228 79.3 88.2746 79.2148 88.122 79.127C87.44 78.7278 86.8298 78.3664 86.3067 77.7637C86.2108 77.1884 86.232 76.9279 86.5539 76.4387C86.9596 76.1682 87.2166 76.098 87.7016 76.1097Z" fill="#060707"/>
<path d="M64 89.886C64.1616 89.8841 64.1616 89.8841 64.3263 89.8823C64.7416 89.9677 64.8552 90.0775 65.1075 90.4199C65.1714 90.9139 65.1714 90.9139 65.1761 91.5168C65.1769 91.6235 65.1777 91.7302 65.1786 91.8401C65.1796 92.0655 65.1794 92.2909 65.178 92.5163C65.1767 92.8605 65.1812 93.2043 65.1863 93.5484C65.1865 93.7677 65.1864 93.987 65.1859 94.2063C65.1862 94.4054 65.1865 94.6045 65.1868 94.8097C65.094 95.4117 64.96 95.6001 64.4746 95.957C63.9571 96.0325 63.6532 96.0209 63.1843 95.7865C62.747 95.3306 62.8132 94.9672 62.8141 94.3453C62.8139 94.2348 62.8137 94.1242 62.8134 94.0103C62.8137 93.7767 62.8155 93.5432 62.8188 93.3097C62.8234 92.9524 62.8221 92.5954 62.82 92.238C62.821 92.011 62.8223 91.784 62.824 91.557C62.8256 91.3504 62.8271 91.1438 62.8287 90.931C62.8926 90.4199 62.8926 90.4199 63.115 90.1155C63.4297 89.9031 63.6223 89.8817 64 89.886Z" fill="#040304"/>
<path d="M33.6299 62.803C33.7364 62.802 33.8429 62.801 33.9525 62.8C34.177 62.7989 34.4015 62.7994 34.6259 62.8014C34.9688 62.8036 35.311 62.7982 35.6538 62.7922C35.8724 62.792 36.091 62.7923 36.3095 62.7931C36.6067 62.7929 36.6067 62.7929 36.9099 62.7927C37.4219 62.8926 37.4219 62.8926 37.8084 63.2634C38.0547 63.6836 38.0547 63.6836 38.0448 64.178C37.888 64.6589 37.826 64.8178 37.4219 65.1074C36.9253 65.1688 36.9253 65.1688 36.3194 65.1705C36.2123 65.1709 36.1053 65.1714 35.995 65.1718C35.7689 65.1722 35.5429 65.1713 35.3168 65.1693C34.9709 65.1668 34.6253 65.1693 34.2794 65.1723C34.0596 65.172 33.8399 65.1714 33.6201 65.1705C33.4201 65.1699 33.2201 65.1694 33.0141 65.1688C32.5176 65.1074 32.5176 65.1074 32.2206 64.9002C31.9208 64.449 31.8941 64.0592 31.8848 63.5254C32.3764 62.8345 32.8112 62.8101 33.6299 62.803Z" fill="#040405"/>
<path d="M91.6559 62.8085C91.7588 62.8079 91.8618 62.8073 91.9678 62.8067C92.1848 62.8062 92.4018 62.8074 92.6188 62.81C92.9502 62.8134 93.281 62.8101 93.6124 62.806C93.8237 62.8064 94.0351 62.8073 94.2464 62.8085C94.4379 62.8092 94.6294 62.8099 94.8267 62.8107C95.4157 62.9076 95.6046 63.0513 95.957 63.5254C96.0325 64.0428 96.021 64.3467 95.7864 64.8154C95.331 65.2528 94.967 65.1893 94.3453 65.1914C94.2347 65.192 94.1242 65.1926 94.0102 65.1933C93.7767 65.1937 93.5432 65.1925 93.3097 65.1899C92.9523 65.1865 92.5954 65.1899 92.238 65.1939C92.011 65.1935 91.784 65.1927 91.557 65.1914C91.3504 65.1907 91.1438 65.19 90.931 65.1893C90.4199 65.1074 90.4199 65.1074 90.1158 64.8154C89.8813 64.3467 89.8698 64.0428 89.9453 63.5254C90.445 62.8532 90.8405 62.8115 91.6559 62.8085Z" fill="#040405"/>
<path d="M64.4746 32.043C64.9487 32.3954 65.0924 32.5843 65.1893 33.1733C65.19 33.3648 65.1908 33.5563 65.1915 33.7536C65.1921 33.8565 65.1927 33.9594 65.1933 34.0655C65.1938 34.2825 65.1926 34.4995 65.1899 34.7165C65.1866 35.0479 65.1899 35.3787 65.194 35.7101C65.1935 35.9214 65.1927 36.1328 65.1915 36.3441C65.1908 36.5356 65.1901 36.7271 65.1893 36.9244C65.0921 37.515 64.9533 37.7046 64.4746 38.0547C63.5458 38.1688 63.5458 38.1688 63.1002 37.8841C62.7804 37.4158 62.8282 37.0043 62.824 36.443C62.8232 36.3324 62.8223 36.2219 62.8215 36.1079C62.8205 35.8744 62.8207 35.6409 62.822 35.4074C62.8234 35.05 62.8188 34.693 62.8138 34.3357C62.8136 34.1087 62.8136 33.8817 62.8141 33.6547C62.8138 33.4481 62.8135 33.2415 62.8132 33.0287C62.8926 32.5176 62.8926 32.5176 63.1843 32.2135C63.6532 31.9791 63.9571 31.9675 64.4746 32.043Z" fill="#050404"/>
</g>
</g>
<defs>
<clipPath id="clip0_476_77">
<rect width="128" height="128" fill="white"/>
</clipPath>
<clipPath id="clip1_476_77">
<rect width="162" height="162" fill="white" transform="translate(-17 -17)"/>
</clipPath>
</defs>
</svg>
