<?xml version="1.0" encoding="UTF-8"?>
<svg version="1.1" xmlns="http://www.w3.org/2000/svg" width="832" height="1248">
<path d="M0 0 C274.56 0 549.12 0 832 0 C832 411.84 832 823.68 832 1248 C557.44 1248 282.88 1248 0 1248 C0 836.16 0 424.32 0 0 Z " fill="#FDFDFD" transform="translate(0,0)"/>
<path d="M0 0 C1.01551995 -0.02244861 1.01551995 -0.02244861 2.05155545 -0.04535073 C4.33738119 -0.09411832 6.62327499 -0.1352717 8.90925598 -0.17607117 C10.54184279 -0.2085089 12.17442635 -0.24111059 13.80700684 -0.27386475 C28.75875142 -0.56303056 43.71236773 -0.72988763 58.66622448 -0.86353779 C68.71842456 -0.95548668 78.7672564 -1.08491435 88.81745911 -1.30888367 C97.58568623 -1.50425321 106.3515512 -1.62830894 115.1219185 -1.66760319 C119.76189771 -1.69072444 124.39547311 -1.7479613 129.03345299 -1.89032936 C157.12330558 -2.71738591 157.12330558 -2.71738591 164.45659256 2.15575027 C169.01585114 6.67761558 171.79680103 11.7620084 174.33227062 17.60782528 C176.50413926 22.15694374 179.5393568 26.09426025 182.53352356 30.12983704 C188.22806749 38.24540178 193.82740452 46.42354874 199.37702942 54.63887024 C203.21675384 60.30528446 207.16269127 65.81115777 211.47102356 71.13374329 C212.59602356 73.25483704 212.59602356 73.25483704 212.57258606 75.73139954 C211.30394379 79.00957116 209.5337525 80.67106935 206.97102356 83.06733704 C203.85132806 86.05870463 200.8330796 89.02374169 198.03352356 92.31733704 C195.50889387 95.2696687 192.86162763 98.02654297 190.09602356 100.75483704 C187.35101814 103.46287269 184.72331446 106.19652953 182.22102356 109.12983704 C178.89220613 113.01603784 175.28716957 116.59324121 171.64778137 120.18354797 C168.37614597 123.42816368 165.32653913 126.79083553 162.33821106 130.29389954 C159.62314357 133.34987236 156.68475313 136.17403649 153.77571106 139.04389954 C151.83368808 141.01376514 150.01540685 143.02637337 148.22102356 145.12983704 C145.33387518 148.50041491 142.25354599 151.63986882 139.09602356 154.75483704 C136.02197489 157.78767862 133.01603116 160.83423105 130.22102356 164.12983704 C127.03472902 167.87026975 123.58721818 171.30286932 120.09602356 174.75483704 C115.00020066 179.79333474 115.00020066 179.79333474 110.22102356 185.12983704 C106.13806282 189.95142384 101.57263981 194.30230067 97.0872345 198.74409485 C91.76578424 204.03360043 86.84670414 209.56499926 82.03352356 215.31733704 C79.59602356 217.25483704 79.59602356 217.25483704 76.68977356 217.13374329 C73.04118357 216.09721204 72.01564492 215.05093221 69.65852356 212.12983704 C65.64230281 207.38401422 61.40081746 202.99187221 56.97102356 198.62983704 C52.60260211 194.30676437 48.36060565 189.97562044 44.39680481 185.27436829 C41.41392379 181.92914164 38.18750427 178.82684414 34.99983215 175.67817688 C31.64492452 172.34853369 28.49854174 168.91525573 25.43586731 165.31343079 C23.09107241 162.68984923 20.59971241 160.22494186 18.09602356 157.75483704 C15.04286101 154.74251947 12.05529986 151.71934851 9.28352356 148.44233704 C5.35961276 143.83435462 1.01943667 139.65300626 -3.27897644 135.39936829 C-6.94111157 131.76075865 -10.43055951 128.05214822 -13.76725769 124.11030579 C-16.43691779 121.08384147 -19.34858322 118.3027376 -22.22038269 115.46968079 C-24.18372315 113.47824243 -26.02477313 111.44181126 -27.84147644 109.31733704 C-30.56016892 106.14447783 -33.43149319 103.19145322 -36.40397644 100.25483704 C-39.96525372 96.73115997 -43.3600135 93.14954094 -46.59928894 89.32905579 C-47.9700168 87.75360883 -49.39103788 86.22175505 -50.83366394 84.71186829 C-51.66124207 83.83917297 -52.48882019 82.96647766 -53.34147644 82.06733704 C-54.4996991 80.8704425 -54.4996991 80.8704425 -55.68132019 79.64936829 C-57.73380117 76.79637319 -57.75056744 75.69353799 -57.40397644 72.25483704 C-56.38517761 70.28877258 -56.38517761 70.28877258 -54.94694519 68.39155579 C-54.4173822 67.67846252 -53.88781921 66.96536926 -53.34220886 66.23066711 C-52.76446716 65.47551819 -52.18672546 64.72036926 -51.59147644 63.94233704 C-50.38160311 62.31587729 -49.17329439 60.68825263 -47.96647644 59.05952454 C-47.36061707 58.2470929 -46.75475769 57.43466125 -46.13053894 56.59761047 C-43.70523491 53.30671434 -41.38941148 49.94786848 -39.09147644 46.56733704 C-38.20122004 45.26369982 -37.31057996 43.96032457 -36.41960144 42.65718079 C-35.94716003 41.96608215 -35.47471863 41.27498352 -34.98796082 40.5629425 C-27.23968538 29.27253006 -19.41963496 18.02701725 -11.46647644 6.87983704 C-11.05969666 6.30926575 -10.65291687 5.73869446 -10.23381042 5.15083313 C-6.75480763 0.29787355 -6.0953693 0.12519991 0 0 Z " fill="#101011" transform="translate(339.4039764404297,519.7451629638672)"/>
<path d="M0 0 C36.63 0 73.26 0 111 0 C107.62592843 10.12221472 107.62592843 10.12221472 106.0625 13.5703125 C105.55589844 14.69759766 105.55589844 14.69759766 105.0390625 15.84765625 C104.69617188 16.59917969 104.35328125 17.35070312 104 18.125 C103.31208133 19.64824849 102.6245754 21.17168346 101.9375 22.6953125 C101.63714844 23.35547363 101.33679688 24.01563477 101.02734375 24.69580078 C100.21036614 26.52817595 99.41550589 28.37040877 98.62841797 30.21582031 C96.81653181 34.45582612 94.91368852 38.65314781 93.0078125 42.8515625 C92.21850321 44.59366742 91.42919668 46.33577359 90.63989258 48.07788086 C90.22929596 48.98343719 89.81869934 49.88899353 89.3956604 50.82199097 C87.24723077 55.56131207 85.10220433 60.30217295 82.95703125 65.04296875 C82.53066879 65.98517776 82.10430634 66.92738678 81.6650238 67.89814758 C78.04074037 75.90822261 74.41778001 83.91885056 70.8125 91.9375 C70.29534424 93.08718262 69.77818848 94.23686523 69.24536133 95.42138672 C65.80720011 103.10153722 62.48542909 110.8246151 59.35668945 118.63647461 C57.21240604 123.89379698 57.21240604 123.89379698 55 125 C53.046875 120.60546875 51.09375 116.2109375 49.140625 111.81640625 C48.78742188 111.02258545 48.43421875 110.22876465 48.0703125 109.41088867 C47.35411399 107.79764499 46.64059005 106.18321138 45.9296875 104.56762695 C44.21422628 100.67680291 42.46322133 96.83639506 40.5 93.0625 C38.39619608 88.91279501 36.64618047 84.70220024 34.96484375 80.3671875 C34.07224796 78.17725613 33.08392103 76.1003606 32 74 C30.52212306 71.13589741 29.28390769 68.25741333 28.125 65.25 C26.24111 60.41418788 23.96552438 55.84709012 21.5625 51.25 C19.93911569 47.87336064 18.56791597 44.45481872 17.19580078 40.97070312 C15.00296295 35.52308149 12.64749025 30.14403979 10.30883789 24.7578125 C9.43340829 22.74057152 8.56131271 20.72191111 7.68945312 18.703125 C7.12519898 17.40095542 6.56075264 16.09886912 5.99609375 14.796875 C5.24090454 13.05422363 5.24090454 13.05422363 4.47045898 11.27636719 C3.4747873 9.05788571 2.41978277 6.86525597 1.31274414 4.70019531 C0 2 0 2 0 0 Z " fill="#FDFDFD" transform="translate(361,599)"/>
<path d="M0 0 C19.47 0 38.94 0 59 0 C55.11846147 5.1753847 51.6398041 9.61341691 47.0625 14 C43.74975813 17.23984535 40.49955614 20.46243994 37.5 24 C34.02523478 28.08795909 30.22049188 31.80672837 26.40673828 35.57373047 C23.02919139 38.92582646 19.85751104 42.38214556 16.7734375 46.0078125 C13.80428153 49.34320797 10.58181657 52.42519327 7.40625 55.5625 C5.34550655 57.65000635 3.40484374 59.77169223 1.5 62 C-1.19611141 65.15394165 -4.04816975 68.08373397 -7 71 C-9.91053801 73.87557659 -12.72424022 76.75874094 -15.375 79.875 C-18.89798557 83.99906368 -22.73715773 87.76490564 -26.59277344 91.57324219 C-29.96710704 94.92215708 -33.13524288 98.37599593 -36.21875 101.99609375 C-39.94502272 106.18815056 -44.00683734 110.06461622 -48 114 C-49.6678277 115.66550482 -51.33481547 117.33185251 -53 119 C-51.73305961 115.05627172 -50.31527758 111.26226849 -48.64453125 107.47265625 C-48.19070068 106.44116455 -47.73687012 105.40967285 -47.26928711 104.34692383 C-46.54817749 102.72113403 -46.54817749 102.72113403 -45.8125 101.0625 C-45.31564697 99.93803467 -44.81879395 98.81356934 -44.30688477 97.6550293 C-41.21936445 90.68866419 -38.06606403 83.76145411 -34.8125 76.87109375 C-32.46989755 71.89573775 -30.20851443 66.88331919 -27.9375 61.875 C-17.72194782 39.36404825 -17.72194782 39.36404825 -14.875 33.8125 C-13.04055885 30.19646169 -11.54654634 26.48384362 -10.06640625 22.7109375 C-8.90342965 19.75450613 -7.70980998 16.81258142 -6.5 13.875 C-6.1184375 12.94429687 -5.736875 12.01359375 -5.34375 11.0546875 C-3.69572789 7.30831165 -1.83037203 3.66074406 0 0 Z " fill="#FAFAFA" transform="translate(480,599)"/>
<path d="M0 0 C19.47 0 38.94 0 59 0 C63.6633762 9.3267524 68.14389281 18.34473065 72.0625 27.9375 C76.31211473 38.15341603 80.77413977 48.25112199 85.375 58.3125 C85.69106201 59.00378998 86.00712402 59.69507996 86.33276367 60.40731812 C87.60929559 63.19865436 88.88596936 65.98992541 90.1633606 68.78086853 C94.03068488 77.23905261 97.82262194 85.73090946 101.61279297 94.22387695 C102.34780029 95.86876099 102.34780029 95.86876099 103.09765625 97.546875 C103.5683252 98.60326172 104.03899414 99.65964844 104.52392578 100.74804688 C105.57323831 103.05979727 106.64035311 105.35405061 107.73779297 107.64257812 C108.29740723 108.81755859 108.85702148 109.99253906 109.43359375 111.203125 C109.94849365 112.26692383 110.46339355 113.33072266 110.99389648 114.42675781 C111.49191772 115.7005127 111.49191772 115.7005127 112 117 C111.67 117.66 111.34 118.32 111 119 C109.1444613 117.00125881 107.29055876 115.00103842 105.4375 113 C104.92380859 112.44699219 104.41011719 111.89398437 103.88085938 111.32421875 C101.0649208 108.28090625 98.30359832 105.20419019 95.59765625 102.0625 C91.92231198 97.84177551 87.99385845 93.91734775 84 90 C79.33214984 85.42157225 74.83561209 80.78798681 70.59179688 75.81054688 C68.96412501 73.95919495 67.26026075 72.22502963 65.5 70.5 C63.10722509 68.14966899 60.86808888 65.735776 58.6875 63.1875 C55.92381971 59.97666245 53.01380404 56.97732835 50 54 C46.41441301 50.45767801 43.05108338 46.82444339 39.77734375 42.99609375 C37.05022777 39.93333273 34.10595363 37.09776507 31.1875 34.21875 C28.59803119 31.59228878 26.21163036 28.83023542 23.8125 26.03125 C21.7890712 23.76361428 19.66346653 21.6342305 17.5 19.5 C13.45160615 15.49971949 9.68564898 11.3332359 6 7 C4.02 4.69 2.04 2.38 0 0 Z " fill="#FAFAFA" transform="translate(294,599)"/>
<path d="M0 0 C3.81628832 1.54572776 5.97025743 3.88771245 8.6875 6.9375 C9.12537842 7.42766602 9.56325684 7.91783203 10.0144043 8.42285156 C13.63808983 12.51151461 17.08834492 16.73334769 20.51953125 20.984375 C23.44968914 24.54670869 26.46778332 28.02456616 29.5 31.5 C35.58846645 38.48749953 41.51840574 45.58476022 47.2578125 52.86328125 C48.33675781 54.23033203 48.33675781 54.23033203 49.4375 55.625 C50.07558594 56.44226563 50.71367187 57.25953125 51.37109375 58.1015625 C52.8697808 60.09638567 52.8697808 60.09638567 55 61 C55 61.66 55 62.32 55 63 C20.02 63 -14.96 63 -51 63 C-48.95015509 58.90031018 -46.43184374 55.83948955 -43.4375 52.4375 C-42.34144897 51.17664893 -41.24640511 49.91492167 -40.15234375 48.65234375 C-39.34385986 47.72010986 -39.34385986 47.72010986 -38.51904297 46.76904297 C-36.46864567 44.38119681 -34.48066779 41.94585215 -32.5 39.5 C-29.06791365 35.27206753 -25.55431486 31.12487739 -22 27 C-14.41855197 18.19384732 -7.07777554 9.21703889 0 0 Z " fill="#F8F8F8" transform="translate(415,529)"/>
<path d="M0 0 C21.78 0 43.56 0 66 0 C64.19704336 4.50739159 63.12652184 6.26162246 59.9375 9.625 C55.90335746 13.98084449 52.1176233 18.46882419 48.3828125 23.08203125 C45.33402445 26.8155471 42.2137098 30.48523307 39.09082031 34.15673828 C36.14087591 37.63205767 33.24353907 41.14430453 30.375 44.6875 C26.09201573 49.95409911 21.58871254 54.99906269 17 60 C14.81893449 56.14509351 13.68058585 51.97289866 12.4375 47.75 C12.18790527 46.90824219 11.93831055 46.06648437 11.68115234 45.19921875 C10.77887443 42.13524457 9.8878999 39.06817274 9 36 C8.81403259 35.35748291 8.62806519 34.71496582 8.4364624 34.05297852 C7.19605102 29.76197689 5.96520299 25.46834536 4.74343872 21.17199707 C4.33203415 19.72711741 3.91901573 18.28269626 3.50436401 16.83874512 C2.9168888 14.78979007 2.33644717 12.73896668 1.7578125 10.6875 C1.4189502 9.49511719 1.08008789 8.30273438 0.73095703 7.07421875 C0 4 0 4 0 0 Z " fill="#F9F9F9" transform="translate(341,527)"/>
<path d="M0 0 C22.11 0 44.22 0 67 0 C65.56738111 6.446785 64.05312951 12.76761588 62.3125 19.125 C62.05702393 20.06279297 61.80154785 21.00058594 61.53833008 21.96679688 C59.28017627 30.16542327 56.82237702 38.29823758 54.27270508 46.41064453 C52.86629956 50.92833561 51.6045884 55.28892154 51 60 C46.61792765 58.41410715 44.13114414 54.97346057 41.25 51.5 C40.71632813 50.86707031 40.18265625 50.23414063 39.6328125 49.58203125 C36.05407674 45.32039664 32.57026117 40.98812693 29.12109375 36.62109375 C25.99825003 32.76211007 22.74785641 29.01606537 19.50537109 25.25756836 C15.58430736 20.70453604 11.76192314 16.08405535 7.98046875 11.4140625 C6.17513956 9.21348373 4.32090841 7.07115149 2.4375 4.9375 C0 2 0 2 0 0 Z " fill="#F9F9F9" transform="translate(426,527)"/>
<path d="M0 0 C3.39310319 2.65505532 3.89290439 5.59833199 4.875 9.6875 C6.23232041 15.15537213 7.75670029 20.51796445 9.5 25.875 C11.56870693 32.28949688 13.21562171 38.74621867 14.65625 45.32958984 C15.30139857 48.23906964 15.98919348 50.97341976 17.11328125 53.73828125 C18 56 18 56 18 60 C-1.47 60 -20.94 60 -41 60 C-39.33688614 55.84221536 -37.97095313 53.35117837 -35.3515625 49.87109375 C-31.24638375 44.34233003 -27.29390521 38.72429063 -23.375 33.0625 C-21.98589652 31.0610456 -20.59656882 29.0597468 -19.20703125 27.05859375 C-18.51174316 26.05683105 -17.81645508 25.05506836 -17.10009766 24.02294922 C-13.76210039 19.21812683 -10.41435018 14.42016578 -7.0625 9.625 C-6.46550293 8.76914307 -5.86850586 7.91328613 -5.25341797 7.03149414 C-4.7070166 6.2502417 -4.16061523 5.46898926 -3.59765625 4.6640625 C-3.11820557 3.97779785 -2.63875488 3.2915332 -2.14477539 2.58447266 C-1 1 -1 1 0 0 Z " fill="#F6F6F5" transform="translate(333,532)"/>
<path d="M0 0 C0.66 0 1.32 0 2 0 C3.58619616 2.17796934 5.05369563 4.35622226 6.5 6.625 C7.40820484 8.01950202 8.31840777 9.4127045 9.23046875 10.8046875 C9.925354 11.86574707 9.925354 11.86574707 10.63427734 12.94824219 C12.62220903 15.9347595 14.70814531 18.84486558 16.8125 21.75 C21.44243439 28.16267721 25.91575035 34.67667349 30.36523438 41.21557617 C33.81904576 46.28900949 37.32038275 51.31791232 40.92578125 56.28515625 C42 58 42 58 42 60 C22.53 60 3.06 60 -17 60 C-14.76109605 48.80548023 -14.76109605 48.80548023 -13.234375 44.08203125 C-11.50376545 38.61487836 -9.83333646 33.13441503 -8.203125 27.63671875 C-7.96235229 26.82623077 -7.72157959 26.0157428 -7.47351074 25.18069458 C-6.73176403 22.68313377 -5.9908652 20.18532242 -5.25 17.6875 C-4.73833982 15.96417532 -4.22662146 14.24086791 -3.71484375 12.51757812 C-2.47589304 8.3452505 -1.23772495 4.1726914 0 0 Z " fill="#F6F6F5" transform="translate(499,532)"/>
</svg>
