<?xml version="1.0" encoding="UTF-8"?>
<svg version="1.1" xmlns="http://www.w3.org/2000/svg" width="832" height="1248">
<path d="M0 0 C274.56 0 549.12 0 832 0 C832 411.84 832 823.68 832 1248 C557.44 1248 282.88 1248 0 1248 C0 836.16 0 424.32 0 0 Z " fill="#FBFBFB" transform="translate(0,0)"/>
<path d="M0 0 C30.36 0 60.72 0 92 0 C92 16.5 92 33 92 50 C69.32960966 50.04010881 69.32960966 50.04010881 59.70117188 50.04882812 C53.11905109 50.05481689 46.53694416 50.06191807 39.95483398 50.07543945 C34.6510344 50.08626725 29.34724965 50.0922766 24.04343987 50.09487724 C22.01514388 50.09673169 19.98684874 50.10035267 17.95855904 50.10573006 C15.12803486 50.11293906 12.29757282 50.113991 9.46704102 50.11352539 C8.19605812 50.1189183 8.19605812 50.1189183 6.8993988 50.12442017 C1.11405216 50.11405216 1.11405216 50.11405216 0 49 C-0.09319449 47.4651703 -0.117458 45.92607918 -0.11352539 44.38842773 C-0.11334412 42.89635803 -0.11334412 42.89635803 -0.11315918 41.37414551 C-0.10804321 40.32126343 -0.10292725 39.26838135 -0.09765625 38.18359375 C-0.09664917 37.22134888 -0.09564209 36.259104 -0.09460449 35.2677002 C-0.0893546 31.65762142 -0.07539348 28.04755957 -0.0625 24.4375 C-0.041875 16.373125 -0.02125 8.30875 0 0 Z " fill="#FAFAF9" transform="translate(369,546)"/>
<path d="M0 0 C0.99 0 1.98 0 3 0 C3 32.01 3 64.02 3 97 C4.32 97.33 5.64 97.66 7 98 C10.84124935 100.99787541 11.89092187 103.92174403 13.125 108.5625 C13.43695313 109.69816406 13.74890625 110.83382812 14.0703125 112.00390625 C15.29148402 116.95293361 16.13022548 121.97965234 17 127 C18.59654419 126.97643433 18.59654419 126.97643433 20.2253418 126.95239258 C24.18555086 126.89796946 28.14572704 126.86360507 32.10620117 126.83520508 C33.81817184 126.8201466 35.53010411 126.79969545 37.24194336 126.77368164 C39.70696505 126.7371681 42.17147535 126.72024438 44.63671875 126.70703125 C45.77919319 126.68380547 45.77919319 126.68380547 46.94474792 126.66011047 C51.50721092 126.65867535 54.37193364 127.19113411 58 130 C60.39330925 132.64523654 61.87408856 134.60016108 62.19921875 138.21484375 C61.94673393 142.55036884 61.32248396 144.59482785 58.5625 148.0625 C56 150 56 150 54 150 C54.433125 151.86205078 54.433125 151.86205078 54.875 153.76171875 C55.25028285 155.40358121 55.62526718 157.04551192 56 158.6875 C56.19078125 159.50412109 56.3815625 160.32074219 56.578125 161.16210938 C57.48733916 165.17239326 58.27000098 168.85717252 58 173 C57.01 173 56.02 173 55 173 C53.35 165.74 51.7 158.48 50 151 C37.13 150.67 24.26 150.34 11 150 C9.68 155.94 8.36 161.88 7 168 C6.34 169.65 5.68 171.3 5 173 C4.34 173 3.68 173 3 173 C3 179.93 3 186.86 3 194 C2.01 194 1.02 194 0 194 C0 129.98 0 65.96 0 0 Z " fill="#3A3939" transform="translate(329,516)"/>
<path d="M0 0 C0.99 0 1.98 0 3 0 C3 64.02 3 128.04 3 194 C2.01 194 1.02 194 0 194 C-0.33 171.56 -0.66 149.12 -1 126 C-2.98 131.445 -2.98 131.445 -5 137 C-7.72303944 139.78945504 -9.33685444 140.77895148 -13 142 C-12.19332494 148.7964692 -10.468266 155.27172504 -8.72851562 161.88085938 C-8.3969043 163.16766602 -8.3969043 163.16766602 -8.05859375 164.48046875 C-7.85548584 165.25285889 -7.65237793 166.02524902 -7.44311523 166.82104492 C-7 169 -7 169 -7 173 C-7.99 173 -8.98 173 -10 173 C-12.64 163.1 -15.28 153.2 -18 143 C-25.26 142.67 -32.52 142.34 -40 142 C-40.226875 143.4025 -40.45375 144.805 -40.6875 146.25 C-42.31152407 155.27103881 -44.71833356 164.12757706 -47 173 C-47.99 173 -48.98 173 -50 173 C-48.89346084 165.31246478 -47.30677456 157.84642612 -45.32128906 150.34570312 C-44.56901953 147.47029862 -44 144.98753759 -44 142 C-45.093125 141.9175 -46.18625 141.835 -47.3125 141.75 C-51 141 -51 141 -53 139.375 C-54.46981805 135.88418213 -53.98413921 133.60851044 -53 130 C-49.57120969 126.45297554 -45.64786919 125.90948707 -40.8828125 125.7890625 C-40.11066406 125.76070312 -39.33851563 125.73234375 -38.54296875 125.703125 C-36.93902832 125.6513014 -35.33482782 125.60695365 -33.73046875 125.5703125 C-27.98880945 125.34102827 -23.60329426 124.47932786 -19.27734375 120.359375 C-17.00248114 116.15748811 -16.1241633 111.51934667 -14.98242188 106.90625 C-13.400821 100.80505829 -11.53243595 94.61412743 -7.0625 90 C-5 89 -5 89 0 89 C0 59.63 0 30.26 0 0 Z " fill="#3D3D3C" transform="translate(497,516)"/>
<path d="M0 0 C30.36 0 60.72 0 92 0 C92 16.5 92 33 92 50 C69.32960966 50.04010881 69.32960966 50.04010881 59.70117188 50.04882812 C53.11905109 50.05481689 46.53694416 50.06191807 39.95483398 50.07543945 C34.6510344 50.08626725 29.34724965 50.0922766 24.04343987 50.09487724 C22.01514388 50.09673169 19.98684874 50.10035267 17.95855904 50.10573006 C15.12803486 50.11293906 12.29757282 50.113991 9.46704102 50.11352539 C8.19605812 50.1189183 8.19605812 50.1189183 6.8993988 50.12442017 C1.11405216 50.11405216 1.11405216 50.11405216 0 49 C-0.09319449 47.4651703 -0.117458 45.92607918 -0.11352539 44.38842773 C-0.11334412 42.89635803 -0.11334412 42.89635803 -0.11315918 41.37414551 C-0.10804321 40.32126343 -0.10292725 39.26838135 -0.09765625 38.18359375 C-0.09664917 37.22134888 -0.09564209 36.259104 -0.09460449 35.2677002 C-0.0893546 31.65762142 -0.07539348 28.04755957 -0.0625 24.4375 C-0.041875 16.373125 -0.02125 8.30875 0 0 Z M4 4 C4 18.19 4 32.38 4 47 C6.64 47 9.28 47 12 47 C12 43.7 12 40.4 12 37 C15.96 37 19.92 37 24 37 C24 34.03 24 31.06 24 28 C24.99 28 25.98 28 27 28 C26.96744792 30.05078125 26.93489583 32.1015625 26.90234375 34.15234375 C26.79438816 36.01732141 26.79438816 36.01732141 28 37 C30.18639453 37.07258946 32.37500389 37.08373783 34.5625 37.0625 C35.76003906 37.05347656 36.95757812 37.04445313 38.19140625 37.03515625 C39.58166016 37.01775391 39.58166016 37.01775391 41 37 C41 39.97 41 42.94 41 46 C56.51 46 72.02 46 88 46 C88 32.14 88 18.28 88 4 C60.28 4 32.56 4 4 4 Z " fill="#777676" transform="translate(369,546)"/>
<path d="M0 0 C4.67881799 2.33940899 5.10629506 3.27643656 7 8 C7.84389787 11.03733488 8.49874051 14.09878821 9.125 17.1875 C9.45965733 18.78542489 9.79554444 20.38309285 10.1328125 21.98046875 C10.27605957 22.68067139 10.41930664 23.38087402 10.56689453 24.10229492 C11.01468066 26.2060653 11.01468066 26.2060653 12 29 C13.12494873 29.00410889 14.24989746 29.00821777 15.40893555 29.01245117 C19.59331725 29.03426678 23.77676185 29.08858097 27.96069336 29.15258789 C29.76952108 29.17574685 31.57848325 29.19015869 33.38745117 29.19555664 C35.99222383 29.20486196 38.59488824 29.24588355 41.19921875 29.29296875 C42.00461594 29.2890361 42.81001312 29.28510345 43.63981628 29.28105164 C47.91978229 29.39161263 49.54361967 29.63688531 53.01293945 32.3972168 C55.10915549 35.14297908 55.639746 36.23615945 55.5 39.625 C55.4896875 40.38039063 55.479375 41.13578125 55.46875 41.9140625 C54.87580752 44.55265655 54.12743033 45.34718948 52 47 C49.66511536 47.36076355 49.66511536 47.36076355 46.88598633 47.34057617 C45.84513382 47.34034958 44.80428131 47.34012299 43.73188782 47.33988953 C42.04895882 47.31666374 42.04895882 47.31666374 40.33203125 47.29296875 C39.18208176 47.28872391 38.03213226 47.28447906 36.84733582 47.28010559 C33.16882059 47.26329189 29.49085008 47.22563377 25.8125 47.1875 C23.32097144 47.17245669 20.82943432 47.15876767 18.33789062 47.14648438 C12.22488093 47.11592951 6.11305131 47.05721053 0 47 C0 31.49 0 15.98 0 0 Z " fill="#F7F7F7" transform="translate(332,616)"/>
<path d="M0 0 C0.74157951 10.23105067 -0.18230543 19.30976015 -2.8125 29.25 C-3.20332764 30.73125366 -3.20332764 30.73125366 -3.60205078 32.24243164 C-6.73540492 43.45435657 -6.73540492 43.45435657 -10.61645508 46.10327148 C-13.95028119 47.3575113 -17.17352103 47.30528878 -20.6875 47.30078125 C-21.79677856 47.30720894 -21.79677856 47.30720894 -22.9284668 47.31376648 C-24.48843362 47.31949681 -26.04842715 47.3200196 -27.60839844 47.31567383 C-29.99200015 47.31251062 -32.37436382 47.33599845 -34.7578125 47.36132812 C-36.2760401 47.36360098 -37.79427104 47.36430468 -39.3125 47.36328125 C-40.02301514 47.372491 -40.73353027 47.38170074 -41.46557617 47.39118958 C-45.59623914 47.35264378 -47.9983197 46.91824671 -51 44 C-50.66447437 41.5674392 -50.21099036 40.23621747 -48.5625 38.390625 C-43.97805728 35.90272621 -38.73547294 36.56434382 -33.6171875 36.56054688 C-27.72841473 36.43233786 -22.81031122 35.6188196 -18 32 C-16.18735918 29.46029066 -15.06090524 26.92789043 -14 24 C-13.60554688 22.92685547 -13.60554688 22.92685547 -13.203125 21.83203125 C-12.11982125 18.70924238 -11.15556589 15.5726876 -10.2890625 12.3828125 C-6.87184718 0 -6.87184718 0 0 0 Z " fill="#F5F5F4" transform="translate(497,608)"/>
<path d="M0 0 C0.99 0 1.98 0 3 0 C3 64.02 3 128.04 3 194 C2.01 194 1.02 194 0 194 C0 170.57 0 147.14 0 123 C-0.99 122.67 -1.98 122.34 -3 122 C-2.85769192 120.58297487 -2.71099254 119.1663904 -2.5625 117.75 C-2.48128906 116.96109375 -2.40007812 116.1721875 -2.31640625 115.359375 C-2 113 -2 113 -1.49986267 111.09376526 C3.40078533 90.56651421 0.11660842 65.55336531 0.06866455 44.55438232 C0.05828886 39.51868107 0.05383693 34.48297457 0.04882812 29.44726562 C0.0382211 19.6314969 0.02123756 9.8157511 0 0 Z " fill="#303030" transform="translate(497,516)"/>
<path d="M0 0 C28.05 0 56.1 0 85 0 C85 0.99 85 1.98 85 3 C71.47 3 57.94 3 44 3 C44 24.12 44 45.24 44 67 C48.62 67 53.24 67 58 67 C58 67.99 58 68.98 58 70 C47.77 70 37.54 70 27 70 C27 69.01 27 68.02 27 67 C31.62 67 36.24 67 41 67 C41 45.88 41 24.76 41 3 C27.47 3 13.94 3 0 3 C0 2.01 0 1.02 0 0 Z " fill="#2C2C2B" transform="translate(373,619)"/>
<path d="M0 0 C29.7 0 59.4 0 90 0 C90 15.84 90 31.68 90 48 C77.46 48 64.92 48 52 48 C52.495 47.01 52.495 47.01 53 46 C64.55 46 76.1 46 88 46 C88 31.48 88 16.96 88 2 C59.95 2.33 31.9 2.66 3 3 C3 17.85 3 32.7 3 48 C2.01 48 1.02 48 0 48 C0 32.16 0 16.32 0 0 Z " fill="#232322" transform="translate(370,547)"/>
<path d="M0 0 C3.0625 2.4375 3.0625 2.4375 5 5 C5.33 5.33 5.66 5.66 6 6 C6.38301738 9.25564772 6.67642942 11.86168034 4.953125 14.76171875 C1.79539232 18.59743521 0.18439332 19.88156067 -4.75 20.375 C-8.10058068 20.35058775 -9.84894532 19.75601354 -12.4375 17.625 C-15.17074942 14.82508596 -15.88129054 14.04464321 -16.3125 10.25 C-15.92220973 6.19098115 -14.50412622 4.16698316 -12 1 C-8.28803409 -0.85598295 -4.04117386 -0.59092637 0 0 Z " fill="#353333" transform="translate(441,562)"/>
<path d="M0 0 C30.36 0 60.72 0 92 0 C92 16.5 92 33 92 50 C69.32960966 50.04010881 69.32960966 50.04010881 59.70117188 50.04882812 C53.11905109 50.05481689 46.53694416 50.06191807 39.95483398 50.07543945 C34.6510344 50.08626725 29.34724965 50.0922766 24.04343987 50.09487724 C22.01514388 50.09673169 19.98684874 50.10035267 17.95855904 50.10573006 C15.12803486 50.11293906 12.29757282 50.113991 9.46704102 50.11352539 C8.19605812 50.1189183 8.19605812 50.1189183 6.8993988 50.12442017 C1.11405216 50.11405216 1.11405216 50.11405216 0 49 C-0.09319449 47.4651703 -0.117458 45.92607918 -0.11352539 44.38842773 C-0.11334412 42.89635803 -0.11334412 42.89635803 -0.11315918 41.37414551 C-0.10804321 40.32126343 -0.10292725 39.26838135 -0.09765625 38.18359375 C-0.09664917 37.22134888 -0.09564209 36.259104 -0.09460449 35.2677002 C-0.0893546 31.65762142 -0.07539348 28.04755957 -0.0625 24.4375 C-0.041875 16.373125 -0.02125 8.30875 0 0 Z M1 1 C1 16.84 1 32.68 1 49 C2.485 48.505 2.485 48.505 4 48 C4 47.67 4 47.34 4 47 C6.64 47 9.28 47 12 47 C12.33 47.66 12.66 48.32 13 49 C38.74 49 64.48 49 91 49 C91 33.16 91 17.32 91 1 C61.3 1 31.6 1 1 1 Z " fill="#6A6969" transform="translate(369,546)"/>
<path d="M0 0 C0.66 0 1.32 0 2 0 C2.01030746 1.22331024 2.02061493 2.44662048 2.03123474 3.70700073 C2.12883203 15.21445454 2.23155292 26.72185261 2.33933926 38.22921562 C2.39459221 44.14579246 2.448016 50.06237422 2.49731445 55.97900391 C2.54492301 61.68485047 2.59726452 67.39063549 2.65294075 73.09640884 C2.67338023 75.2773702 2.69209063 77.45834844 2.70907402 79.63933945 C2.73308278 82.68524047 2.76314215 85.73102442 2.79467773 88.77685547 C2.8004332 89.68603729 2.80618866 90.59521912 2.81211853 91.5319519 C2.72935687 95.9035047 2.72935687 95.9035047 4 100 C3.34 100 2.68 100 2 100 C2.00523682 100.77375977 2.01047363 101.54751953 2.01586914 102.34472656 C2.1070865 117.93250253 2.01425302 133.44208313 1 149 C0.67 149 0.34 149 0 149 C0 99.83 0 50.66 0 0 Z " fill="#212121" transform="translate(330,516)"/>
<path d="M0 0 C0.33 0 0.66 0 1 0 C1.00423194 0.76107654 1.00846388 1.52215307 1.01282406 2.30629253 C1.11636893 20.87061349 1.22504102 39.43489805 1.33933926 57.999156 C1.39449203 66.97688242 1.44794337 75.95461281 1.49731445 84.93237305 C1.54037737 92.76224057 1.58670889 100.59208096 1.63687855 108.42190629 C1.66330273 112.56330215 1.68814911 116.70469324 1.70907402 120.84612083 C1.72887028 124.75390745 1.75307714 128.66164326 1.78049088 132.56938362 C1.78974124 133.99425189 1.79745779 135.4191312 1.80341911 136.84401703 C1.68562301 153.16946217 1.68562301 153.16946217 5 169 C5 170.32 5 171.64 5 173 C4.34 173 3.68 173 3 173 C3 179.93 3 186.86 3 194 C2.01 194 1.02 194 0 194 C0 129.98 0 65.96 0 0 Z " fill="#373738" transform="translate(329,516)"/>
<path d="M0 0 C0.33 0 0.66 0 1 0 C1 5.94 1 11.88 1 18 C25.255 18.495 25.255 18.495 50 19 C49.67 19.66 49.34 20.32 49 21 C35.8 21 22.6 21 9 21 C7.68 26.94 6.36 32.88 5 39 C4.34 40.32 3.68 41.64 3 43 C-2.50264967 29.123753 -0.95349849 14.58119234 0 0 Z " fill="#303030" transform="translate(331,645)"/>
<path d="M0 0 C0.33 0 0.66 0 1 0 C1 21.12 1 42.24 1 64 C5.62 64 10.24 64 15 64 C15 64.99 15 65.98 15 67 C4.77 67 -5.46 67 -16 67 C-16 66.01 -16 65.02 -16 64 C-11.38 64 -6.76 64 -2 64 C-1.34 42.88 -0.68 21.76 0 0 Z " fill="#393939" transform="translate(416,622)"/>
<path d="M0 0 C3.4375 0.9375 3.4375 0.9375 5.375 2.0625 C7.1087306 5.12202459 6.85895216 7.50567525 6.4375 10.9375 C4.875 13.375 4.875 13.375 2.4375 14.9375 C-1.125 15.4375 -1.125 15.4375 -4.5625 14.9375 C-7.41826764 12.63446158 -7.54431881 11.08294949 -8 7.4375 C-7.5625 3.9375 -7.5625 3.9375 -6 1.4375 C-3.5625 -0.0625 -3.5625 -0.0625 0 0 Z " fill="#F6F5F2" transform="translate(436.5625,564.0625)"/>
<path d="M0 0 C7.26 0 14.52 0 22 0 C22 2.31 22 4.62 22 7 C14.74 7 7.48 7 0 7 C0 4.69 0 2.38 0 0 Z " fill="#F2F1F0" transform="translate(384,586)"/>
<path d="M0 0 C3.8491318 0.54987597 5.52044824 2.05857096 8 5 C9.1953125 8.06640625 9.1953125 8.06640625 10.125 11.5625 C10.43695313 12.69816406 10.74890625 13.83382812 11.0703125 15.00390625 C12.22441828 19.96462142 13.08890123 24.98895677 14 30 C25.88 30 37.76 30 50 30 C50 30.33 50 30.66 50 31 C37.13 31.33 24.26 31.66 11 32 C7 17 7 17 6 11.9375 C5.15084613 7.88298152 3.48866687 5.29146263 1 2 C0.67 1.34 0.34 0.68 0 0 Z " fill="#424241" transform="translate(332,613)"/>
<path d="M0 0 C7.59 0 15.18 0 23 0 C27.5042513 10.13456542 27.5042513 10.13456542 28.484375 14.11328125 C28.80341797 15.3962207 28.80341797 15.3962207 29.12890625 16.70507812 C29.33386719 17.56552734 29.53882813 18.42597656 29.75 19.3125 C29.97042969 20.19228516 30.19085938 21.07207031 30.41796875 21.97851562 C31.36077755 25.83466216 32 28.99296506 32 33 C31.01 33 30.02 33 29 33 C26.36 23.1 23.72 13.2 21 3 C14.07 2.34 7.14 1.68 0 1 C0 0.67 0 0.34 0 0 Z " fill="#484747" transform="translate(458,656)"/>
<path d="M0 0 C0 0.99 0 1.98 0 3 C-6.13030766 6.80362324 -11.86244044 6.45694384 -18.83203125 6.52734375 C-23.89635988 6.6327908 -23.89635988 6.6327908 -28.6171875 8.28125 C-30.41790142 10.15176503 -30.41790142 10.15176503 -30 14 C-30.99 13.67 -31.98 13.34 -33 13 C-33.25 10.1875 -33.25 10.1875 -33 7 C-29.29601934 3.16373432 -25.00868625 2.89249564 -19.90234375 2.75390625 C-18.93619141 2.72103516 -17.97003906 2.68816406 -16.97460938 2.65429688 C-14.94608108 2.59298444 -12.91742688 2.53570756 -10.88867188 2.48242188 C-9.44137695 2.43118164 -9.44137695 2.43118164 -7.96484375 2.37890625 C-6.64407837 2.34132202 -6.64407837 2.34132202 -5.29663086 2.30297852 C-2.72548152 2.13556833 -2.72548152 2.13556833 0 0 Z " fill="#313130" transform="translate(477,639)"/>
<path d="M0 0 C1.32 0 2.64 0 4 0 C4 2.31 4 4.62 4 7 C4.66 7 5.32 7 6 7 C5.01 11.95 4.02 16.9 3 22 C-0.15436446 17.26845331 -0.12122014 13.93986203 -0.0625 8.375 C-0.05798828 7.57320312 -0.05347656 6.77140625 -0.04882812 5.9453125 C-0.03703168 3.96350994 -0.01909605 1.98174567 0 0 Z " fill="#4C4D4E" transform="translate(332,666)"/>
<path d="M0 0 C0.33 0 0.66 0 1 0 C1 23.43 1 46.86 1 71 C0.67 71 0.34 71 0 71 C-0.01030746 70.2446698 -0.02061493 69.4893396 -0.03123474 68.71112061 C-0.12924947 61.58967618 -0.23176953 54.46831756 -0.33933926 47.34701157 C-0.39448202 43.68596092 -0.44788799 40.02490217 -0.49731445 36.36376953 C-0.54508582 32.82998084 -0.59743287 29.29628673 -0.65294075 25.76261139 C-0.68321171 23.75965338 -0.70875493 21.75662573 -0.73423767 19.75360107 C-0.75418289 18.53263733 -0.77412811 17.31167358 -0.79467773 16.05371094 C-0.81022202 14.97893494 -0.8257663 13.90415894 -0.84178162 12.79681396 C-0.90254784 10.07731894 -0.90254784 10.07731894 -1.57142639 7.82476807 C-2.25202135 4.92695092 -1.04429095 2.70287069 0 0 Z " fill="#D3D3D5" transform="translate(496,639)"/>
<path d="M0 0 C0.99 0.33 1.98 0.66 3 1 C2.05832504 7.26957277 1.07998188 12.05456742 -3 17 C-6 19 -6 19 -10 19 C-9.505 17.515 -9.505 17.515 -9 16 C-8.36449219 15.72027344 -7.72898437 15.44054687 -7.07421875 15.15234375 C-4.12987236 13.51659575 -3.83744233 11.71262887 -2.8125 8.5625 C-2.48894531 7.59441406 -2.16539062 6.62632812 -1.83203125 5.62890625 C-1.55746094 4.76136719 -1.28289062 3.89382813 -1 3 C-0.67 2.01 -0.34 1.02 0 0 Z " fill="#40403F" transform="translate(493,638)"/>
<path d="M0 0 C0.66 0.33 1.32 0.66 2 1 C1.505 1.680625 1.01 2.36125 0.5 3.0625 C-1.34127336 6.66832699 -1.3641066 8.99482745 -1 13 C-0.11935073 15.35369807 -0.11935073 15.35369807 1 17 C0.01 17.33 -0.98 17.66 -2 18 C-4.47926262 15.36578346 -5.88584206 13.6706779 -6.5 10.0625 C-5.87263356 6.21988055 -4.39792409 4.03266871 -2 1 C-1.34 0.67 -0.68 0.34 0 0 Z " fill="#3D3B3A" transform="translate(431,562)"/>
<path d="M0 0 C0.99 0.33 1.98 0.66 3 1 C2.34 1 1.68 1 1 1 C1 3.97 1 6.94 1 10 C5.29 10.33 9.58 10.66 14 11 C14 13.64 14 16.28 14 19 C13.67 19 13.34 19 13 19 C13 16.69 13 14.38 13 12 C5.41 12 -2.18 12 -10 12 C-10 11.01 -10 10.02 -10 9 C-6.7 9 -3.4 9 0 9 C0 6.03 0 3.06 0 0 Z " fill="#5C5A5B" transform="translate(393,574)"/>
<path d="M0 0 C1.125 3.75 1.125 3.75 0 6 C-1.11375 6.2784375 -1.11375 6.2784375 -2.25 6.5625 C-6.53189885 8.80076531 -7.9502163 12.76087286 -10 17 C-10.66 17 -11.32 17 -12 17 C-11.63091483 9.74132492 -11.63091483 9.74132492 -8.5 6.0625 C-7.675 5.381875 -6.85 4.70125 -6 4 C-5.67 3.67 -5.34 3.34 -5 3 C-3.33382885 2.95936168 -1.66611905 2.957279 0 3 C0 2.01 0 1.02 0 0 Z " fill="#393838" transform="translate(497,602)"/>
<path d="M0 0 C0.66 0 1.32 0 2 0 C2.33 2.31 2.66 4.62 3 7 C7.29 7.33 11.58 7.66 16 8 C16 11.3 16 14.6 16 18 C15.67 18 15.34 18 15 18 C15 16.02 15 14.04 15 12 C14.34 12 13.68 12 13 12 C13 11.34 13 10.68 13 10 C8.38 10 3.76 10 -1 10 C-0.67 6.7 -0.34 3.4 0 0 Z " fill="#2E2E2E" transform="translate(394,575)"/>
<path d="M0 0 C7.59 0 15.18 0 23 0 C25 4 25 4 25 7 C24.01 7 23.02 7 22 7 C21.67 5.68 21.34 4.36 21 3 C14.07 2.34 7.14 1.68 0 1 C0 0.67 0 0.34 0 0 Z " fill="#2F2E2D" transform="translate(458,656)"/>
<path d="M0 0 C-1.39957689 3.38231081 -2.73064421 5.27928642 -6 7 C-9.46885578 7.38542842 -12.81267379 7.5936631 -16 6 C-16 5.34 -16 4.68 -16 4 C-15.40832031 3.96261719 -14.81664062 3.92523437 -14.20703125 3.88671875 C-9.14424919 3.4655085 -4.45499671 0 0 0 Z " fill="#383636" transform="translate(446,575)"/>
<path d="M0 0 C0.33 0.99 0.66 1.98 1 3 C1.66 3 2.32 3 3 3 C2.25 10.75 2.25 10.75 0 13 C-0.66 12.67 -1.32 12.34 -2 12 C-2.33 12.99 -2.66 13.98 -3 15 C-2.44854729 9.76119922 -1.57077907 5.02649303 0 0 Z " fill="#4F4E4D" transform="translate(484,616)"/>
<path d="M0 0 C0.33 0 0.66 0 1 0 C1.04898437 0.83402344 1.09796875 1.66804687 1.1484375 2.52734375 C1.59317268 9.22137501 2.3468204 15.49749359 4 22 C2.68 22 1.36 22 0 22 C0 14.74 0 7.48 0 0 Z " fill="#272727" transform="translate(330,666)"/>
<path d="M0 0 C1.32 0 2.64 0 4 0 C3.44854729 5.23880078 2.57077907 9.97350697 1 15 C0.67 15 0.34 15 0 15 C0 10.05 0 5.1 0 0 Z " fill="#D9DBDE" transform="translate(332,666)"/>
<path d="M0 0 C0.66 0 1.32 0 2 0 C2.50833591 1.24663331 3.00631145 2.49749387 3.5 3.75 C3.7784375 4.44609375 4.056875 5.1421875 4.34375 5.859375 C5 8 5 8 5 12 C4.01 12 3.02 12 2 12 C0.70756464 7.8803623 -0.26252625 4.33168317 0 0 Z " fill="#323334" transform="translate(485,677)"/>
<path d="M0 0 C8.25 0 16.5 0 25 0 C25.33 0.99 25.66 1.98 26 3 C25.34 3.66 24.68 4.32 24 5 C23.67 3.68 23.34 2.36 23 1 C15.41 1 7.82 1 0 1 C0 0.67 0 0.34 0 0 Z " fill="#595857" transform="translate(458,655)"/>
<path d="M0 0 C1.98 0.495 1.98 0.495 4 1 C4 3.31 4 5.62 4 8 C2.35 8.66 0.7 9.32 -1 10 C-0.67 6.7 -0.34 3.4 0 0 Z " fill="#41403F" transform="translate(443,567)"/>
<path d="M0 0 C2.64 0 5.28 0 8 0 C8 0.33 8 0.66 8 1 C11.63 1.33 15.26 1.66 19 2 C19 2.33 19 2.66 19 3 C13.06 3 7.12 3 1 3 C0.67 2.01 0.34 1.02 0 0 Z " fill="#4D4D4E" transform="translate(452,642)"/>
<path d="M0 0 C3.35620271 1.38877354 5.07298728 2.91677965 7 6 C7 6.66 7 7.32 7 8 C6.01 8.33 5.02 8.66 4 9 C3.54625 8.21625 3.0925 7.4325 2.625 6.625 C1.11571258 3.96301969 1.11571258 3.96301969 -1 2 C-0.67 1.34 -0.34 0.68 0 0 Z " fill="#3B3A3A" transform="translate(383,644)"/>
<path d="M0 0 C0.33 0.99 0.66 1.98 1 3 C-3.5 7 -3.5 7 -8 7 C-7.67 6.01 -7.34 5.02 -7 4 C-5.02 3.67 -3.04 3.34 -1 3 C-0.67 2.01 -0.34 1.02 0 0 Z " fill="#363737" transform="translate(491,650)"/>
<path d="M0 0 C0.33 0 0.66 0 1 0 C1 4.62 1 9.24 1 14 C-2 10 -2 10 -1.75 6.4375 C-1 3 -1 3 0 0 Z " fill="#CCCDD0" transform="translate(496,639)"/>
<path d="M0 0 C2.4294516 3.6441774 2.16179575 5.71241272 2 10 C2.66 10.33 3.32 10.66 4 11 C2.68 11.33 1.36 11.66 0 12 C0 8.04 0 4.08 0 0 Z " fill="#292A29" transform="translate(382,583)"/>
<path d="M0 0 C0.66 0.33 1.32 0.66 2 1 C1.2884375 2.051875 1.2884375 2.051875 0.5625 3.125 C-1.08739857 6.16081337 -1.60368464 8.59168786 -2 12 C-2.33 12 -2.66 12 -3 12 C-3 8.66666667 -3 5.33333333 -3 2 C-2.01 1.34 -1.02 0.68 0 0 Z " fill="#555351" transform="translate(431,562)"/>
<path d="M0 0 C1.07396066 4.29584263 1.07329796 7.60212211 1 12 C0.01 12 -0.98 12 -2 12 C-1.34 8.04 -0.68 4.08 0 0 Z " fill="#4B4B4A" transform="translate(449,677)"/>
<path d="M0 0 C1.26026798 2.52053595 0.91874445 3.8542098 0.5625 6.625 C0.40974609 7.85089844 0.40974609 7.85089844 0.25390625 9.1015625 C0.17011719 9.72804688 0.08632813 10.35453125 0 11 C-1.76065836 8.35901246 -2.52722899 7.0257345 -3 4 C-2.67 3.01 -2.34 2.02 -2 1 C-1.34 0.67 -0.68 0.34 0 0 Z " fill="#3D3D3E" transform="translate(335,677)"/>
<path d="M0 0 C0.226875 0.61875 0.45375 1.2375 0.6875 1.875 C2.37929835 4.61410209 3.99244161 5.05024472 7 6 C6.01 6.495 6.01 6.495 5 7 C5 7.66 5 8.32 5 9 C3.0625 8.4375 3.0625 8.4375 1 7 C0.25 3.375 0.25 3.375 0 0 Z " fill="#494748" transform="translate(443,648)"/>
<path d="M0 0 C0.99 0 1.98 0 3 0 C2.34 2.97 1.68 5.94 1 9 C0.67 9 0.34 9 0 9 C0 6.03 0 3.06 0 0 Z " fill="#F9F9FA" transform="translate(333,667)"/>
<path d="M0 0 C1.4606285 2.64738916 2 3.89448334 2 7 C1.01 7.33 0.02 7.66 -1 8 C-1.625 5.6875 -1.625 5.6875 -2 3 C-1.34 2.01 -0.68 1.02 0 0 Z " fill="#444544" transform="translate(344,637)"/>
<path d="M0 0 C-1.15173355 2.46800047 -2.04783565 4.04783565 -4 6 C-4.99 5.67 -5.98 5.34 -7 5 C-2.25 0 -2.25 0 0 0 Z " fill="#272728" transform="translate(446,575)"/>
</svg>
