<?xml version="1.0" encoding="UTF-8"?>
<svg version="1.1" xmlns="http://www.w3.org/2000/svg" width="832" height="1248">
<path d="M0 0 C274.56 0 549.12 0 832 0 C832 411.84 832 823.68 832 1248 C557.44 1248 282.88 1248 0 1248 C0 836.16 0 424.32 0 0 Z " fill="#FCFCFC" transform="translate(0,0)"/>
<path d="M0 0 C1.48249927 -0.00853686 1.48249927 -0.00853686 2.99494803 -0.01724619 C4.63556804 -0.019016 4.63556804 -0.019016 6.30933189 -0.02082157 C7.46512509 -0.02590939 8.62091828 -0.03099721 9.81173551 -0.03623921 C13.02982094 -0.04926325 16.24788139 -0.05773536 19.46598554 -0.0642122 C22.22386514 -0.07057696 24.98172607 -0.08064798 27.73959406 -0.09077286 C36.82775836 -0.1241221 45.91593402 -0.14562408 55.00413948 -0.16397271 C57.37046929 -0.16876678 59.73679863 -0.17375022 62.10312796 -0.17877793 C76.79463903 -0.20975062 91.48615402 -0.23643908 106.1776886 -0.25319672 C109.58187047 -0.25714629 112.98605227 -0.26114927 116.39023399 -0.2652216 C117.2363391 -0.26622996 118.08244421 -0.26723832 118.95418887 -0.26827724 C132.65778291 -0.28528077 146.36119627 -0.32638494 160.06470211 -0.37724458 C174.13119788 -0.42902222 188.19760076 -0.45813926 202.26419103 -0.4653936 C210.16311258 -0.47005596 218.06173835 -0.48480777 225.96056557 -0.5251379 C232.68851715 -0.5594477 239.41611962 -0.57337361 246.14415367 -0.56071376 C249.57624343 -0.55488867 253.00759496 -0.55873789 256.43957329 -0.5888834 C260.1638622 -0.61648118 263.88629833 -0.60709033 267.61060143 -0.58844852 C268.69096377 -0.60524345 269.77132612 -0.62203838 270.88442671 -0.63934225 C278.0711571 -0.54941329 282.21550449 1.06437171 287.34091759 6.1398077 C294.00082345 13.22436935 293.04826316 21.94176603 292.98789024 31.0773077 C292.99467213 32.79948506 293.00357847 34.52165515 293.01444054 36.24381161 C293.03717262 40.90506539 293.02842282 45.56576385 293.01254511 50.22702694 C292.99985448 55.11333326 293.011635 59.99959319 293.01947594 64.88590145 C293.02856329 73.09041505 293.01660858 81.29470334 292.99277306 89.4991827 C292.96556354 98.97423516 292.97437835 108.4487496 293.00190508 117.92378902 C293.0246212 126.07012685 293.027784 134.21630304 293.01471174 142.36266232 C293.00693098 147.22320018 293.00583773 152.08348545 293.02239418 156.94400692 C293.03687614 161.5144729 293.02674948 166.08424766 292.9979229 170.65463924 C292.99133193 172.32833364 292.99317564 174.00208658 293.00423622 175.67575741 C293.10270185 192.09358361 293.10270185 192.09358361 287.34091759 198.1398077 C283.03408678 202.13150455 279.42888139 204.38920846 273.51103306 204.39148998 C272.53551839 204.39670548 271.56000372 204.40192097 270.554928 204.40729451 C269.48577963 204.40283307 268.41663126 204.39837162 267.31508446 204.39377499 C266.17729461 204.39689497 265.03950476 204.40001495 263.86723644 204.40322948 C260.04029614 204.41123071 256.21351347 204.40487741 252.38657188 204.39859676 C249.64860263 204.40020514 246.91064014 204.40479359 244.17267418 204.40921688 C237.49859415 204.41811909 230.82455906 204.41618495 224.15047725 204.4103916 C218.72538053 204.40587723 213.30029642 204.40526123 207.87519836 204.40743923 C206.71755422 204.40789893 206.71755422 204.40789893 205.53652332 204.40836792 C203.96872657 204.40900736 202.40092982 204.40965579 200.83313308 204.4103131 C186.12408271 204.41601911 171.41505726 204.40945485 156.70601097 204.39871237 C144.08763727 204.38978193 131.46930038 204.39132418 118.85092735 204.40054989 C104.1996288 204.41125691 89.54835212 204.41546415 74.8970502 204.40932536 C73.33406151 204.40868826 71.77107281 204.40805952 70.20808411 204.40743923 C69.43906228 204.40713068 68.67004045 204.40682213 67.87771493 204.40650423 C62.46128108 204.40477819 57.04486111 204.40769055 51.62842941 204.41239834 C45.02426952 204.4180122 38.42015715 204.41648032 31.81600269 204.40583685 C28.44704436 204.40058609 25.07823073 204.39959247 21.70926285 204.40513515 C18.05532989 204.41059269 14.40162034 204.40375351 10.74770164 204.39377499 C9.15401734 204.40046715 9.15401734 204.40046715 7.52813739 204.40729451 C0.63488255 204.3707336 -5.95026872 204.19627675 -11.40908241 199.4523077 C-12.23666054 198.76588192 -12.23666054 198.76588192 -13.08095741 198.06558895 C-17.175178 193.06942372 -18.03501243 188.0203605 -18.05349159 181.70818233 C-18.0595827 180.99322422 -18.0656738 180.27826611 -18.07194948 179.54164261 C-18.08850107 177.1634735 -18.08381513 174.78584444 -18.07900429 172.40762997 C-18.08634913 170.69545597 -18.09493657 168.98328692 -18.10466957 167.27112484 C-18.12684899 162.63267636 -18.1298181 157.99440572 -18.12792206 153.35591149 C-18.12780221 149.47918627 -18.13637217 145.60249853 -18.14469957 141.72578377 C-18.16392027 132.57820306 -18.1668221 123.43071361 -18.16005898 114.28311825 C-18.15341681 104.85526062 -18.17629266 95.4277941 -18.21337271 86.0000158 C-18.24408569 77.89618445 -18.25542807 69.79247883 -18.25153589 61.68859047 C-18.2494703 56.85259966 -18.25491864 52.01691336 -18.27942848 47.18097782 C-18.30171992 42.63273046 -18.29979801 38.08511857 -18.27950096 33.5368681 C-18.2760953 31.87122064 -18.28116089 30.20553019 -18.29548454 28.53994083 C-18.42658718 12.16027397 -18.42658718 12.16027397 -12.65908241 6.1398077 C-8.6162283 2.22152047 -5.68082218 0.0190285 0 0 Z " fill="#FBFCFB" transform="translate(278.6590824127197,501.86019229888916)"/>
<path d="M0 0 C1.48249927 -0.00853686 1.48249927 -0.00853686 2.99494803 -0.01724619 C4.63556804 -0.019016 4.63556804 -0.019016 6.30933189 -0.02082157 C7.46512509 -0.02590939 8.62091828 -0.03099721 9.81173551 -0.03623921 C13.02982094 -0.04926325 16.24788139 -0.05773536 19.46598554 -0.0642122 C22.22386514 -0.07057696 24.98172607 -0.08064798 27.73959406 -0.09077286 C36.82775836 -0.1241221 45.91593402 -0.14562408 55.00413948 -0.16397271 C57.37046929 -0.16876678 59.73679863 -0.17375022 62.10312796 -0.17877793 C76.79463903 -0.20975062 91.48615402 -0.23643908 106.1776886 -0.25319672 C109.58187047 -0.25714629 112.98605227 -0.26114927 116.39023399 -0.2652216 C117.2363391 -0.26622996 118.08244421 -0.26723832 118.95418887 -0.26827724 C132.65778291 -0.28528077 146.36119627 -0.32638494 160.06470211 -0.37724458 C174.13119788 -0.42902222 188.19760076 -0.45813926 202.26419103 -0.4653936 C210.16311258 -0.47005596 218.06173835 -0.48480777 225.96056557 -0.5251379 C232.68851715 -0.5594477 239.41611962 -0.57337361 246.14415367 -0.56071376 C249.57624343 -0.55488867 253.00759496 -0.55873789 256.43957329 -0.5888834 C260.1638622 -0.61648118 263.88629833 -0.60709033 267.61060143 -0.58844852 C268.69096377 -0.60524345 269.77132612 -0.62203838 270.88442671 -0.63934225 C278.0711571 -0.54941329 282.21550449 1.06437171 287.34091759 6.1398077 C294.00082345 13.22436935 293.04826316 21.94176603 292.98789024 31.0773077 C292.99467213 32.79948506 293.00357847 34.52165515 293.01444054 36.24381161 C293.03717262 40.90506539 293.02842282 45.56576385 293.01254511 50.22702694 C292.99985448 55.11333326 293.011635 59.99959319 293.01947594 64.88590145 C293.02856329 73.09041505 293.01660858 81.29470334 292.99277306 89.4991827 C292.96556354 98.97423516 292.97437835 108.4487496 293.00190508 117.92378902 C293.0246212 126.07012685 293.027784 134.21630304 293.01471174 142.36266232 C293.00693098 147.22320018 293.00583773 152.08348545 293.02239418 156.94400692 C293.03687614 161.5144729 293.02674948 166.08424766 292.9979229 170.65463924 C292.99133193 172.32833364 292.99317564 174.00208658 293.00423622 175.67575741 C293.10270185 192.09358361 293.10270185 192.09358361 287.34091759 198.1398077 C283.03408678 202.13150455 279.42888139 204.38920846 273.51103306 204.39148998 C272.53551839 204.39670548 271.56000372 204.40192097 270.554928 204.40729451 C269.48577963 204.40283307 268.41663126 204.39837162 267.31508446 204.39377499 C266.17729461 204.39689497 265.03950476 204.40001495 263.86723644 204.40322948 C260.04029614 204.41123071 256.21351347 204.40487741 252.38657188 204.39859676 C249.64860263 204.40020514 246.91064014 204.40479359 244.17267418 204.40921688 C237.49859415 204.41811909 230.82455906 204.41618495 224.15047725 204.4103916 C218.72538053 204.40587723 213.30029642 204.40526123 207.87519836 204.40743923 C206.71755422 204.40789893 206.71755422 204.40789893 205.53652332 204.40836792 C203.96872657 204.40900736 202.40092982 204.40965579 200.83313308 204.4103131 C186.12408271 204.41601911 171.41505726 204.40945485 156.70601097 204.39871237 C144.08763727 204.38978193 131.46930038 204.39132418 118.85092735 204.40054989 C104.1996288 204.41125691 89.54835212 204.41546415 74.8970502 204.40932536 C73.33406151 204.40868826 71.77107281 204.40805952 70.20808411 204.40743923 C69.43906228 204.40713068 68.67004045 204.40682213 67.87771493 204.40650423 C62.46128108 204.40477819 57.04486111 204.40769055 51.62842941 204.41239834 C45.02426952 204.4180122 38.42015715 204.41648032 31.81600269 204.40583685 C28.44704436 204.40058609 25.07823073 204.39959247 21.70926285 204.40513515 C18.05532989 204.41059269 14.40162034 204.40375351 10.74770164 204.39377499 C9.15401734 204.40046715 9.15401734 204.40046715 7.52813739 204.40729451 C0.63488255 204.3707336 -5.95026872 204.19627675 -11.40908241 199.4523077 C-12.23666054 198.76588192 -12.23666054 198.76588192 -13.08095741 198.06558895 C-17.175178 193.06942372 -18.03501243 188.0203605 -18.05349159 181.70818233 C-18.0595827 180.99322422 -18.0656738 180.27826611 -18.07194948 179.54164261 C-18.08850107 177.1634735 -18.08381513 174.78584444 -18.07900429 172.40762997 C-18.08634913 170.69545597 -18.09493657 168.98328692 -18.10466957 167.27112484 C-18.12684899 162.63267636 -18.1298181 157.99440572 -18.12792206 153.35591149 C-18.12780221 149.47918627 -18.13637217 145.60249853 -18.14469957 141.72578377 C-18.16392027 132.57820306 -18.1668221 123.43071361 -18.16005898 114.28311825 C-18.15341681 104.85526062 -18.17629266 95.4277941 -18.21337271 86.0000158 C-18.24408569 77.89618445 -18.25542807 69.79247883 -18.25153589 61.68859047 C-18.2494703 56.85259966 -18.25491864 52.01691336 -18.27942848 47.18097782 C-18.30171992 42.63273046 -18.29979801 38.08511857 -18.27950096 33.5368681 C-18.2760953 31.87122064 -18.28116089 30.20553019 -18.29548454 28.53994083 C-18.42658718 12.16027397 -18.42658718 12.16027397 -12.65908241 6.1398077 C-8.6162283 2.22152047 -5.68082218 0.0190285 0 0 Z M-10.07986832 14.01902866 C-10.91477865 17.07603357 -10.91800785 19.90337512 -10.92650795 23.0722723 C-10.93103906 23.76974406 -10.93557018 24.46721582 -10.9402386 25.18582308 C-10.95289742 27.52260278 -10.9512613 29.85914985 -10.94960976 32.19596004 C-10.95559408 33.87152564 -10.9623994 35.54708847 -10.96996498 37.22264767 C-10.98764179 41.77433612 -10.99232106 46.3259494 -10.99359655 50.87766886 C-10.9954955 54.67737899 -11.00285297 58.47707161 -11.00994074 62.276775 C-11.02622862 71.24154493 -11.03110933 80.20627468 -11.02968788 89.1710577 C-11.02848626 98.41876537 -11.04959128 107.66623972 -11.08117521 116.91388834 C-11.10732615 124.85371098 -11.11805568 132.79345736 -11.11677706 140.73332274 C-11.11626709 145.47536043 -11.12196978 150.2171908 -11.14313316 154.9591856 C-11.16249572 159.41948358 -11.1626537 163.87937603 -11.1480999 168.3396883 C-11.14600824 169.97553569 -11.15073396 171.61140833 -11.16282082 173.24721241 C-11.17826983 175.48307649 -11.16896923 177.71754163 -11.15355873 179.95337582 C-11.15464827 181.20366259 -11.1557378 182.45394936 -11.15686035 183.7421236 C-10.40694757 188.86080509 -7.93903737 191.68196346 -4.60138798 195.48348236 C-0.05000688 198.04561185 4.27959728 197.68761013 9.41780663 197.64101315 C10.54898936 197.64654754 11.68017209 197.65208194 12.84563309 197.65778404 C16.6443321 197.67142091 20.44237757 197.65640398 24.24106407 197.64151669 C26.96110711 197.6430915 29.68112623 197.65064514 32.40115929 197.65788937 C39.0273603 197.67182675 45.65337082 197.66426185 52.27956276 197.64921378 C59.99603624 197.63235663 67.71246221 197.63556362 75.42894841 197.63930786 C89.19790177 197.64518746 102.96676371 197.63101154 116.73569298 197.60636044 C130.09575389 197.58244403 143.45569263 197.57535423 156.8157711 197.58585262 C171.36306971 197.59726346 185.91031179 197.59918949 200.45760971 197.58475453 C202.00905009 197.58322869 203.56049046 197.58170833 205.11193085 197.58019352 C205.87527018 197.57943571 206.63860951 197.57867789 207.42508034 197.57789711 C212.80342641 197.5731552 218.18174724 197.5750051 223.56009293 197.57925892 C230.11561175 197.58418708 236.67101509 197.57819474 243.22650748 197.55836462 C246.5710977 197.54849651 249.91536528 197.54499185 253.25998688 197.55125713 C256.88586187 197.55719818 260.51121681 197.54472647 264.13704491 197.52748775 C265.19394994 197.5334978 266.25085497 197.53950785 267.33978742 197.54570001 C272.673924 197.49946722 276.91855147 197.45823264 281.34091759 194.1398077 C284.88141328 189.25697181 285.84145746 185.95986864 285.84885216 179.84657955 C285.85509212 179.14654452 285.86133208 178.44650949 285.86776114 177.72526127 C285.8836185 175.39751675 285.87111655 173.07083004 285.85849571 170.74307919 C285.86392005 169.06706796 285.87104446 167.39106151 285.87973595 165.71506405 C285.89793387 161.17584479 285.8909168 156.63699017 285.8782196 152.09776473 C285.86807529 147.34264998 285.8774891 142.58756593 285.88376427 137.83244991 C285.89103579 129.8489895 285.88146522 121.86567725 285.86240196 113.88223934 C285.84062671 104.6565993 285.8476913 95.43131277 285.86970758 86.20568126 C285.88786679 78.27851731 285.89041758 70.35145969 285.87995291 62.42428166 C285.8737218 57.6923735 285.87287197 52.96063146 285.88609886 48.22873402 C285.89766459 43.78067016 285.88961857 39.33306169 285.86652184 34.88504696 C285.86123891 33.25404841 285.86274143 31.62301144 285.87157249 29.99202824 C285.88252856 27.76285458 285.86876609 25.53513367 285.84885216 23.30605221 C285.84734406 22.05966189 285.84583595 20.81327158 285.84428215 19.52911186 C285.22866722 15.38399243 284.05815164 13.31665516 281.34091759 10.1398077 C276.02917043 6.28636468 270.45159185 6.71359328 264.15050316 6.74539852 C263.01917157 6.73930742 261.88783997 6.73321631 260.72222561 6.72694063 C256.92908682 6.71028377 253.13628274 6.71509043 249.34311485 6.71988583 C246.62454731 6.71418402 243.90599999 6.70405433 241.18744469 6.69422054 C234.56844505 6.67317752 227.94953303 6.66862501 221.33050389 6.67040843 C215.95026107 6.67171651 210.57004557 6.66790955 205.18980789 6.66048336 C203.63952206 6.65838415 202.08923622 6.65628655 200.53895038 6.65419054 C199.76731302 6.65314701 198.99567565 6.65210348 198.20065533 6.65102834 C183.61081467 6.63213085 169.02102431 6.63317478 154.43117648 6.63999766 C141.08606409 6.64557398 127.74114362 6.62474309 114.39607609 6.59163719 C100.68991539 6.55789963 86.98384663 6.54273185 73.27764362 6.54735422 C65.58399379 6.54959869 57.89052139 6.54435894 50.19690704 6.51946163 C43.64762217 6.49844771 37.09861204 6.49485731 30.54931588 6.51376122 C27.20844121 6.52291871 23.86849805 6.52135229 20.52759552 6.50340557 C16.90403226 6.48528217 13.28183689 6.49791328 9.65831566 6.51834774 C8.60500559 6.50582989 7.55169552 6.49331204 6.46646696 6.48041487 C-0.87856391 6.56933623 -5.45664661 7.90406432 -10.07986832 14.01902866 Z " fill="#070707" transform="translate(278.6590824127197,501.86019229888916)"/>
<path d="M0 0 C1.7734375 1.125 1.7734375 1.125 3.4375 2.375 C4.04851562 2.7875 4.65953125 3.2 5.2890625 3.625 C10.43840641 7.48152991 13.570555 12.22895097 15.4375 18.375 C16.54928307 26.8791652 16.00242448 34.9682493 11.4375 42.375 C6.95697351 48.20069584 1.66844255 52.63481801 -5.5625 54.375 C-14.5538942 55.4817953 -22.16726949 54.8733603 -29.5625 49.375 C-36.45613845 43.28267337 -39.9839139 37.32931017 -40.87109375 28.19921875 C-41.21177866 19.24849694 -39.3584574 14.33593965 -34.3125 7.1875 C-25.80310754 -1.51528775 -11.51291688 -5.48342484 0 0 Z " fill="#FBFBFB" transform="translate(490.5625,615.625)"/>
<path d="M0 0 C0.77916777 0.00291284 1.55833553 0.00582568 2.36111444 0.00882679 C3.18276289 0.00797237 4.00441134 0.00711794 4.85095823 0.00623763 C7.62560042 0.00458031 10.40018319 0.01010829 13.17481989 0.01555592 C15.15523776 0.01583776 17.13565574 0.01568011 19.11607355 0.01511341 C24.51047947 0.01482533 29.90486336 0.02072383 35.29926413 0.02768737 C40.93005841 0.03391909 46.56085314 0.03452456 52.19165033 0.03571278 C62.86245287 0.03882663 73.53324522 0.04704075 84.20404327 0.05706227 C96.34893681 0.06822173 108.49383082 0.07373343 120.6387282 0.0787577 C145.62919867 0.08922332 170.61966007 0.10682381 195.61012262 0.12908131 C196.23512262 3.00408131 196.23512262 3.00408131 196.61012262 6.12908131 C194.09474721 8.64445671 192.55827305 8.37097927 189.12666124 8.39656812 C188.3556615 8.39210668 187.58466177 8.38764523 186.7902984 8.38304859 C185.56478612 8.38772857 185.56478612 8.38772857 184.31451601 8.39250308 C181.56141687 8.4005163 178.80853612 8.39414658 176.05543512 8.38787037 C174.08796554 8.39057876 172.12049697 8.39413883 170.15303034 8.39849049 C164.79778824 8.40763486 159.4426229 8.40406182 154.0873794 8.39773232 C148.49355856 8.3926829 142.89974448 8.39736081 137.3059234 8.40050465 C127.9105663 8.40414739 118.51524059 8.39933713 109.11988825 8.3898235 C98.24421987 8.37893837 87.36862647 8.38246373 76.49295992 8.39347631 C67.16981672 8.40254042 57.84669615 8.40383876 48.52354997 8.39859897 C42.94889973 8.39547444 37.37428478 8.39508313 31.79963678 8.40167195 C26.5597353 8.40743207 21.31993087 8.40347306 16.08003992 8.39188343 C14.15226141 8.38922968 12.22447479 8.39001404 10.29669946 8.39440876 C7.67433679 8.39983758 5.05228919 8.39306276 2.42994684 8.38304859 C1.6589471 8.38751004 0.88794737 8.39197148 0.093584 8.39656812 C-5.16157726 8.35738142 -5.16157726 8.35738142 -7.38987738 6.12908131 C-6.67385664 0.25771122 -5.78456306 0.01640289 0 0 Z " fill="#191818" transform="translate(318.3898773789406,544.8709186911583)"/>
<path d="M0 0 C7.27524646 5.2812005 12.9467632 11.7447311 15.6640625 20.45703125 C16.11367792 23.36537308 16.18892236 26.20477432 16.1640625 29.14453125 C16.15834229 29.93327637 16.15262207 30.72202148 16.14672852 31.53466797 C15.84977807 41.34303103 12.49666807 49.55871861 5.6953125 56.703125 C-4.48057813 65.48961518 -14.16600423 66.2953526 -27.08837891 65.68798828 C-31.88522812 65.19506852 -35.50087218 63.25391727 -39.3359375 60.45703125 C-40.4084375 59.71453125 -41.4809375 58.97203125 -42.5859375 58.20703125 C-50.88827132 49.90469743 -54.57978471 41.13133582 -54.7734375 29.45703125 C-54.72580997 23.00275616 -53.8599621 17.91817496 -50.3359375 12.45703125 C-49.68238281 11.41482422 -49.68238281 11.41482422 -49.015625 10.3515625 C-44.09280509 3.18253787 -36.66613898 -2.98510288 -28.08203125 -5.09765625 C-17.42468542 -6.82587449 -8.96071423 -5.91886643 0 0 Z M-35.3359375 6.45703125 C-36.3878125 7.19953125 -37.4396875 7.94203125 -38.5234375 8.70703125 C-44.43101978 14.48333393 -47.46820458 20.2818606 -47.5859375 28.58203125 C-47.45733475 38.2486712 -45.40826777 44.40396758 -38.62109375 51.4375 C-31.64976765 57.59848392 -24.99362843 59.30932177 -15.73828125 58.9375 C-8.12727681 57.86269685 -1.95067764 54.11402039 3.19140625 48.44921875 C8.92781167 40.6890947 10.03356668 31.88431581 8.6640625 22.45703125 C5.65868603 13.47492496 -0.26792405 7.53245786 -8.625 3.296875 C-17.07748175 0.67831077 -28.14346992 1.09345519 -35.3359375 6.45703125 Z " fill="#0E0E0E" transform="translate(497.3359375,611.54296875)"/>
<path d="M0 0 C26.32025654 -0.02332572 52.64051154 -0.04097756 78.96077633 -0.05181217 C91.18080426 -0.05697583 103.40082579 -0.06401984 115.62084961 -0.07543945 C126.2676513 -0.08538417 136.91444835 -0.09185292 147.56125456 -0.09408849 C153.20240672 -0.09539596 158.84354561 -0.09848409 164.48469353 -0.10573006 C169.78773424 -0.11248693 175.09075613 -0.11461764 180.39380074 -0.11310768 C182.34618863 -0.11338416 184.29857712 -0.11539124 186.2509613 -0.11920547 C188.90434591 -0.12413754 191.55765824 -0.1230001 194.21104431 -0.12025452 C194.99410303 -0.12316736 195.77716174 -0.1260802 196.58394951 -0.12908131 C201.88587879 -0.11412121 201.88587879 -0.11412121 203 1 C203.125 3.5 203.125 3.5 203 6 C201.24878815 7.75121185 198.95330988 7.12766902 196.61944681 7.1384055 C195.84164329 7.1368569 195.06383976 7.1353083 194.26246643 7.13371277 C193.44222911 7.13597833 192.6219918 7.13824388 191.7768988 7.14057809 C189.0069322 7.14694773 186.23701416 7.14608684 183.46704102 7.14526367 C181.48986751 7.14825331 179.5126946 7.15165538 177.53552246 7.15544128 C172.14925242 7.1643052 166.76299825 7.16662039 161.37672162 7.16725707 C156.88835542 7.16820414 152.39999296 7.17188007 147.91162819 7.17542917 C137.32706988 7.18358276 126.74252007 7.18601257 116.15795898 7.18530273 C105.22040043 7.18470165 94.28289116 7.19525751 83.34534508 7.2110464 C73.97127123 7.22409873 64.59721352 7.22948761 55.22313064 7.22884732 C49.61716129 7.22859166 44.01123569 7.23148022 38.40527534 7.24202538 C33.1350266 7.2516677 27.8648638 7.25181227 22.59461212 7.24450874 C20.65554365 7.24345807 18.71646993 7.24585411 16.77741051 7.2518692 C14.13967652 7.25952437 11.50224416 7.25498772 8.86451721 7.24723816 C7.701158 7.2549535 7.701158 7.2549535 6.51429659 7.26282471 C1.22827121 7.22827121 1.22827121 7.22827121 -1 5 C-0.625 2.375 -0.625 2.375 0 0 Z " fill="#101010" transform="translate(312,580)"/>
<path d="M0 0 C0.8348291 0.00045319 1.6696582 0.00090637 2.52978516 0.00137329 C3.84191734 -0.00366463 3.84191734 -0.00366463 5.18055725 -0.00880432 C8.08742675 -0.01834432 10.99423884 -0.02025895 13.90112305 -0.02133179 C15.91272506 -0.02454222 17.92432683 -0.02790612 19.93592834 -0.03141785 C24.15862571 -0.03741673 28.38130258 -0.03925697 32.60400391 -0.03866577 C38.02612327 -0.0385641 43.44811182 -0.05221825 48.87020016 -0.06943798 C53.02650053 -0.08053349 57.18276904 -0.08258574 61.33908272 -0.08205605 C63.33864353 -0.08323979 65.33820507 -0.0876835 67.33775139 -0.09538841 C70.12972154 -0.10513917 72.92140455 -0.10232984 75.71337891 -0.09628296 C76.54618378 -0.10190247 77.37898865 -0.10752197 78.23703003 -0.11331177 C83.95796395 -0.08167838 83.95796395 -0.08167838 86.1862793 2.14663696 C86.3737793 4.70913696 86.3737793 4.70913696 86.1862793 7.14663696 C84.34630235 8.98661391 81.75851934 8.27960326 79.30909729 8.29327393 C78.46491745 8.29282074 77.62073761 8.29236755 76.75097656 8.29190063 C75.8664682 8.29525925 74.98195984 8.29861786 74.07064819 8.30207825 C71.13131323 8.31161839 68.19203505 8.31353288 65.25268555 8.31460571 C63.21866329 8.31781613 61.18464127 8.32118003 59.15061951 8.32469177 C54.88084375 8.3306907 50.61108827 8.33253089 46.34130859 8.3319397 C40.85865567 8.33183802 35.3761321 8.34549223 29.89350986 8.36271191 C25.69088642 8.37380724 21.48829448 8.37585967 17.28565788 8.37532997 C15.26376843 8.37651375 13.24187825 8.38095759 11.22000313 8.38866234 C8.39690099 8.39841274 5.57408285 8.3956039 2.75097656 8.38955688 C1.90882095 8.39517639 1.06666534 8.4007959 0.19898987 8.40658569 C-5.58540538 8.37495228 -5.58540538 8.37495228 -7.8137207 6.14663696 C-7.06961272 0.04495154 -5.98281155 0.03376291 0 0 Z " fill="#191919" transform="translate(318.813720703125,635.8533630371094)"/>
<path d="M0 0 C32.01 0 64.02 0 97 0 C97.495 2.475 97.495 2.475 98 5 C95.34072587 7.65927413 93.36177371 7.2455319 89.74455261 7.27105713 C88.86656509 7.26700867 87.98857758 7.26296021 87.08398438 7.25878906 C86.1603157 7.2622937 85.23664703 7.26579834 84.2849884 7.26940918 C81.2211666 7.27823676 78.1575743 7.27237371 75.09375 7.265625 C72.97147578 7.26697135 70.84920187 7.26891164 68.72692871 7.27142334 C64.27479115 7.274376 59.82273373 7.2700724 55.37060547 7.26074219 C49.65368013 7.24934761 43.93694255 7.25590632 38.22002411 7.26788712 C33.83639095 7.27510188 29.45280257 7.27281955 25.06916809 7.26763153 C22.96075926 7.26629397 20.8523464 7.26794644 18.74394226 7.27259064 C15.80118994 7.27764956 12.85874496 7.26995454 9.91601562 7.25878906 C9.03802811 7.26283752 8.16004059 7.26688599 7.25544739 7.27105713 C1.22852766 7.22852766 1.22852766 7.22852766 -1 5 C-0.67 3.35 -0.34 1.7 0 0 Z " fill="#0A0A0A" transform="translate(312,609)"/>
<path d="M0 0 C25.41 0 50.82 0 77 0 C78 5 78 5 77 7 C67.12539212 7.04627591 57.2508099 7.08184499 47.3761158 7.10362434 C42.79123234 7.11407566 38.20642289 7.12825935 33.62158203 7.15087891 C29.19957626 7.17255936 24.77764181 7.18455846 20.35558701 7.18975449 C18.66582999 7.19345889 16.97607702 7.20069237 15.28635025 7.21146011 C12.92535111 7.22591143 10.5646493 7.22798064 8.20361328 7.22705078 C7.50014771 7.23424133 6.79668213 7.24143188 6.07189941 7.24884033 C1.22810432 7.22810432 1.22810432 7.22810432 -1 5 C-0.67 3.35 -0.34 1.7 0 0 Z " fill="#0C0C0C" transform="translate(312,664)"/>
<path d="M0 0 C0.87760986 -0.00315216 1.75521973 -0.00630432 2.65942383 -0.009552 C3.61357178 -0.00752777 4.56771973 -0.00550354 5.55078125 -0.00341797 C6.52362061 -0.00437469 7.49645996 -0.00533142 8.4987793 -0.00631714 C10.56005925 -0.00699905 12.62134133 -0.00514399 14.68261719 -0.00097656 C17.84965813 0.00437153 21.01655725 -0.00092119 24.18359375 -0.00732422 C26.1809899 -0.00666344 28.17838596 -0.00538228 30.17578125 -0.00341797 C31.1299292 -0.0054422 32.08407715 -0.00746643 33.06713867 -0.009552 C34.38355347 -0.00482376 34.38355347 -0.00482376 35.7265625 0 C36.50298096 0.00079559 37.27939941 0.00159119 38.0793457 0.00241089 C39.86328125 0.12939453 39.86328125 0.12939453 40.86328125 1.12939453 C40.98828125 4.12939453 40.98828125 4.12939453 40.86328125 7.12939453 C39.3217157 8.67096008 37.88882361 8.26407947 35.74243164 8.2746582 C34.43085838 8.28422798 34.43085838 8.28422798 33.0927887 8.29399109 C31.66627235 8.29566032 31.66627235 8.29566032 30.2109375 8.29736328 C28.75523598 8.30235588 28.75523598 8.30235588 27.27012634 8.30744934 C25.21304805 8.31252283 23.1559615 8.31485754 21.09887695 8.31469727 C17.94273381 8.31688279 14.78694054 8.33503145 11.63085938 8.35400391 C9.63671995 8.35693786 7.64257886 8.35892264 5.6484375 8.35986328 C4.2249575 8.37064156 4.2249575 8.37064156 2.77272034 8.38163757 C1.895186 8.37856094 1.01765167 8.37548431 0.11352539 8.37231445 C-0.66067245 8.37373947 -1.4348703 8.37516449 -2.23252869 8.37663269 C-4.13671875 8.12939453 -4.13671875 8.12939453 -6.13671875 6.12939453 C-5.51381888 1.02161562 -5.06636296 0.00519148 0 0 Z " fill="#1F1F1F" transform="translate(395.13671875,523.87060546875)"/>
</svg>
